<ttFont>
    <TTGlyph name=".notdef" xMin="68" yMin="0" xMax="612" yMax="1365">
      <contour>
        <pt x="68" y="0" on="1"/>
        <pt x="68" y="1365" on="1"/>
        <pt x="612" y="1365" on="1"/>
        <pt x="612" y="0" on="1"/>
      </contour>
      <contour>
        <pt x="136" y="68" on="1"/>
        <pt x="544" y="68" on="1"/>
        <pt x="544" y="1297" on="1"/>
        <pt x="136" y="1297" on="1"/>
      </contour>
    </TTGlyph>
    <TTGlyph name="A" xMin="25" yMin="0" xMax="1640" yMax="1638">
      <contour>
        <pt x="115" y="153" on="1"/>
        <pt x="115" y="153" on="0"/>
        <pt x="773" y="1626" on="1"/>
        <pt x="778" y="1638" on="0"/>
        <pt x="866" y="1638" on="0"/>
        <pt x="872" y="1626" on="1"/>
        <pt x="1550" y="153" on="1"/>
        <pt x="1589" y="62" on="0"/>
        <pt x="1627" y="44" on="1"/>
        <pt x="1640" y="38" on="0"/>
        <pt x="1640" y="0" on="0"/>
        <pt x="1627" y="0" on="1"/>
        <pt x="1265" y="0" on="1"/>
        <pt x="1252" y="0" on="0"/>
        <pt x="1252" y="35" on="0"/>
        <pt x="1261" y="42" on="0"/>
        <pt x="1277" y="49" on="0"/>
        <pt x="1282" y="54" on="1"/>
        <pt x="1320" y="92" on="0"/>
        <pt x="1320" y="157" on="0"/>
        <pt x="1313" y="178" on="1"/>
        <pt x="1168" y="521" on="1"/>
        <pt x="447" y="521" on="1"/>
        <pt x="305" y="178" on="1"/>
        <pt x="298" y="157" on="0"/>
        <pt x="298" y="146" on="1"/>
        <pt x="298" y="135" on="1"/>
        <pt x="298" y="134" on="0"/>
        <pt x="298" y="133" on="1"/>
        <pt x="298" y="92" on="0"/>
        <pt x="336" y="54" on="1"/>
        <pt x="340" y="50" on="0"/>
        <pt x="366" y="38" on="0"/>
        <pt x="366" y="0" on="0"/>
        <pt x="353" y="0" on="1"/>
        <pt x="38" y="0" on="1"/>
        <pt x="25" y="0" on="0"/>
        <pt x="25" y="35" on="0"/>
        <pt x="34" y="42" on="0"/>
        <pt x="42" y="46" on="1"/>
        <pt x="75" y="60" on="0"/>
      </contour>
      <contour>
        <pt x="518" y="680" on="1"/>
        <pt x="516" y="677" on="0"/>
        <pt x="518" y="668" on="0"/>
        <pt x="521" y="668" on="1"/>
        <pt x="1092" y="668" on="1"/>
        <pt x="1095" y="668" on="0"/>
        <pt x="1097" y="677" on="0"/>
        <pt x="1095" y="680" on="1"/>
        <pt x="806" y="1308" on="1"/>
        <pt x="799" y="1308" on="1"/>
      </contour>
    </TTGlyph>
    <TTGlyph name="AE" xMin="25" yMin="0" xMax="2020" yMax="1638">
      <contour>
        <pt x="1762" y="970" on="1"/>
        <pt x="1835" y="970" on="0"/>
        <pt x="1883" y="1018" on="1"/>
        <pt x="1887" y="1022" on="0"/>
        <pt x="1899" y="1048" on="0"/>
        <pt x="1937" y="1048" on="0"/>
        <pt x="1937" y="1035" on="1"/>
        <pt x="1937" y="764" on="1"/>
        <pt x="1937" y="751" on="0"/>
        <pt x="1902" y="751" on="0"/>
        <pt x="1895" y="760" on="0"/>
        <pt x="1888" y="776" on="0"/>
        <pt x="1863" y="801" on="0"/>
        <pt x="1796" y="829" on="0"/>
        <pt x="1762" y="829" on="1"/>
        <pt x="1131" y="825" on="1"/>
        <pt x="1131" y="162" on="1"/>
        <pt x="1795" y="162" on="1"/>
        <pt x="1908" y="162" on="0"/>
        <pt x="1942" y="188" on="1"/>
        <pt x="1960" y="200" on="0"/>
        <pt x="1980" y="230" on="0"/>
        <pt x="1991" y="231" on="0"/>
        <pt x="2020" y="221" on="0"/>
        <pt x="2020" y="213" on="0"/>
        <pt x="2006" y="178" on="1"/>
        <pt x="1974" y="97" on="1"/>
        <pt x="1956" y="52" on="0"/>
        <pt x="1943" y="5" on="0"/>
        <pt x="1932" y="0" on="1"/>
        <pt x="872" y="0" on="1"/>
        <pt x="859" y="0" on="0"/>
        <pt x="859" y="35" on="0"/>
        <pt x="868" y="42" on="0"/>
        <pt x="884" y="49" on="0"/>
        <pt x="909" y="74" on="0"/>
        <pt x="937" y="141" on="0"/>
        <pt x="937" y="175" on="1"/>
        <pt x="937" y="521" on="1"/>
        <pt x="447" y="521" on="1"/>
        <pt x="353" y="310" on="0"/>
        <pt x="305" y="178" on="1"/>
        <pt x="281" y="109" on="0"/>
        <pt x="336" y="54" on="1"/>
        <pt x="340" y="50" on="0"/>
        <pt x="366" y="38" on="0"/>
        <pt x="366" y="0" on="0"/>
        <pt x="353" y="0" on="1"/>
        <pt x="38" y="0" on="1"/>
        <pt x="25" y="0" on="0"/>
        <pt x="25" y="35" on="0"/>
        <pt x="34" y="42" on="0"/>
        <pt x="42" y="46" on="1"/>
        <pt x="75" y="61" on="0"/>
        <pt x="115" y="153" on="1"/>
        <pt x="773" y="1626" on="1"/>
        <pt x="778" y="1638" on="0"/>
        <pt x="822" y="1638" on="1"/>
        <pt x="1932" y="1638" on="1"/>
        <pt x="1942" y="1638" on="0"/>
        <pt x="1956" y="1587" on="0"/>
        <pt x="1974" y="1541" on="1"/>
        <pt x="2006" y="1460" on="1"/>
        <pt x="2020" y="1426" on="0"/>
        <pt x="2020" y="1418" on="0"/>
        <pt x="1991" y="1408" on="0"/>
        <pt x="1986" y="1408" on="1"/>
        <pt x="1980" y="1408" on="0"/>
        <pt x="1960" y="1438" on="0"/>
        <pt x="1909" y="1478" on="0"/>
        <pt x="1795" y="1477" on="1"/>
        <pt x="1131" y="1477" on="1"/>
        <pt x="1131" y="970" on="1"/>
      </contour>
      <contour>
        <pt x="937" y="668" on="1"/>
        <pt x="937" y="1436" on="1"/>
        <pt x="851" y="1436" on="1"/>
        <pt x="690" y="1063" on="1"/>
        <pt x="518" y="680" on="1"/>
        <pt x="516" y="677" on="0"/>
        <pt x="518" y="668" on="0"/>
        <pt x="521" y="668" on="1"/>
      </contour>
    </TTGlyph>
    <TTGlyph name="Aacute" xMin="25" yMin="0" xMax="1640" yMax="2207">
      <component glyphName="acute" x="640" y="761" flags="0x1004"/>
      <component glyphName="A" x="0" y="0" flags="0x1204"/>
    </TTGlyph>
    <TTGlyph name="Abreve" xMin="25" yMin="0" xMax="1640" yMax="2109">
      <component glyphName="breve" x="450" y="762" flags="0x1004"/>
      <component glyphName="A" x="0" y="0" flags="0x1204"/>
    </TTGlyph>
    <TTGlyph name="Acircumflex" xMin="25" yMin="0" xMax="1640" yMax="2156">
      <component glyphName="asciicircum" x="468" y="762" flags="0x1004"/>
      <component glyphName="A" x="0" y="0" flags="0x1204"/>
    </TTGlyph>
    <TTGlyph name="Adieresis" xMin="25" yMin="0" xMax="1640" yMax="2023">
      <component glyphName="dieresis" x="454" y="762" flags="0x1004"/>
      <component glyphName="A" x="0" y="0" flags="0x1204"/>
    </TTGlyph>
    <TTGlyph name="Agrave" xMin="25" yMin="0" xMax="1640" yMax="2207">
      <component glyphName="grave" x="390" y="761" flags="0x1004"/>
      <component glyphName="A" x="0" y="0" flags="0x1204"/>
    </TTGlyph>
    <TTGlyph name="Amacron" xMin="25" yMin="0" xMax="1640" yMax="1944">
      <component glyphName="macron" x="396" y="762" flags="0x1004"/>
      <component glyphName="A" x="0" y="0" flags="0x1204"/>
    </TTGlyph>
    <TTGlyph name="Aogonek" xMin="25" yMin="-401" xMax="1640" yMax="1638">
      <contour>
        <pt x="518" y="680" on="1"/>
        <pt x="516" y="677" on="0"/>
        <pt x="518" y="668" on="0"/>
        <pt x="521" y="668" on="1"/>
        <pt x="1092" y="668" on="1"/>
        <pt x="1095" y="668" on="0"/>
        <pt x="1097" y="677" on="0"/>
        <pt x="1095" y="680" on="1"/>
        <pt x="806" y="1308" on="1"/>
        <pt x="799" y="1308" on="1"/>
      </contour>
      <contour>
        <pt x="1572" y="-267" on="1"/>
        <pt x="1573" y="-265" on="0"/>
        <pt x="1601" y="-273" on="0"/>
        <pt x="1601" y="-280" on="1"/>
        <pt x="1592" y="-328" on="0"/>
        <pt x="1491" y="-401" on="0"/>
        <pt x="1367" y="-380" on="0"/>
        <pt x="1285" y="-265" on="0"/>
        <pt x="1307" y="-142" on="0"/>
        <pt x="1397" y="-70" on="0"/>
        <pt x="1452" y="-76" on="1"/>
        <pt x="1409" y="0" on="1"/>
        <pt x="1265" y="0" on="1"/>
        <pt x="1252" y="0" on="0"/>
        <pt x="1252" y="35" on="0"/>
        <pt x="1261" y="42" on="0"/>
        <pt x="1277" y="50" on="0"/>
        <pt x="1282" y="54" on="1"/>
        <pt x="1337" y="109" on="0"/>
        <pt x="1313" y="178" on="1"/>
        <pt x="1168" y="521" on="1"/>
        <pt x="447" y="521" on="1"/>
        <pt x="305" y="178" on="1"/>
        <pt x="281" y="109" on="0"/>
        <pt x="336" y="54" on="1"/>
        <pt x="340" y="50" on="0"/>
        <pt x="366" y="38" on="0"/>
        <pt x="366" y="0" on="0"/>
        <pt x="353" y="0" on="1"/>
        <pt x="38" y="0" on="1"/>
        <pt x="25" y="0" on="0"/>
        <pt x="25" y="35" on="0"/>
        <pt x="34" y="42" on="0"/>
        <pt x="42" y="46" on="1"/>
        <pt x="74" y="60" on="0"/>
        <pt x="115" y="153" on="1"/>
        <pt x="773" y="1626" on="1"/>
        <pt x="778" y="1638" on="0"/>
        <pt x="866" y="1638" on="0"/>
        <pt x="872" y="1626" on="1"/>
        <pt x="1550" y="153" on="1"/>
        <pt x="1589" y="62" on="0"/>
        <pt x="1627" y="44" on="1"/>
        <pt x="1640" y="38" on="0"/>
        <pt x="1640" y="0" on="0"/>
        <pt x="1627" y="0" on="1"/>
        <pt x="1483" y="0" on="1"/>
        <pt x="1549" y="-111" on="1"/>
        <pt x="1552" y="-120" on="0"/>
        <pt x="1547" y="-143" on="0"/>
        <pt x="1542" y="-143" on="1"/>
        <pt x="1510" y="-132" on="0"/>
        <pt x="1440" y="-120" on="0"/>
        <pt x="1376" y="-163" on="0"/>
        <pt x="1360" y="-254" on="0"/>
        <pt x="1410" y="-314" on="0"/>
        <pt x="1449" y="-321" on="1"/>
        <pt x="1522" y="-334" on="0"/>
      </contour>
    </TTGlyph>
    <TTGlyph name="Aring" xMin="25" yMin="0" xMax="1640" yMax="2056">
      <component glyphName="ring" x="533" y="1380" flags="0x1004"/>
      <component glyphName="A" x="0" y="0" flags="0x1204"/>
    </TTGlyph>
    <TTGlyph name="Atilde" xMin="25" yMin="0" xMax="1640" yMax="2087">
      <component glyphName="asciitilde" x="429" y="764" flags="0x1004"/>
      <component glyphName="A" x="0" y="0" flags="0x1204"/>
    </TTGlyph>
    <TTGlyph name="B" xMin="115" yMin="0" xMax="1204" yMax="1638">
      <contour>
        <pt x="706" y="163" on="1"/>
        <pt x="780" y="163" on="0"/>
        <pt x="900" y="232" on="0"/>
        <pt x="932" y="266" on="1"/>
        <pt x="1006" y="345" on="0"/>
        <pt x="1006" y="456" on="1"/>
        <pt x="1006" y="630" on="0"/>
        <pt x="778" y="813" on="0"/>
        <pt x="585" y="813" on="1"/>
        <pt x="451" y="813" on="1"/>
        <pt x="438" y="813" on="0"/>
        <pt x="438" y="841" on="1"/>
        <pt x="438" y="954" on="1"/>
        <pt x="438" y="982" on="0"/>
        <pt x="451" y="982" on="1"/>
        <pt x="585" y="982" on="1"/>
        <pt x="742" y="982" on="0"/>
        <pt x="888" y="1148" on="0"/>
        <pt x="888" y="1244" on="1"/>
        <pt x="888" y="1304" on="0"/>
        <pt x="845" y="1395" on="0"/>
        <pt x="750" y="1466" on="0"/>
        <pt x="700" y="1473" on="1"/>
        <pt x="678" y="1476" on="1"/>
        <pt x="444" y="1476" on="1"/>
        <pt x="421" y="1476" on="0"/>
        <pt x="387" y="1447" on="0"/>
        <pt x="387" y="1425" on="1"/>
        <pt x="387" y="214" on="1"/>
        <pt x="387" y="192" on="0"/>
        <pt x="421" y="163" on="0"/>
        <pt x="444" y="163" on="1"/>
      </contour>
      <contour>
        <pt x="669" y="0" on="1"/>
        <pt x="128" y="0" on="1"/>
        <pt x="115" y="0" on="0"/>
        <pt x="115" y="35" on="0"/>
        <pt x="124" y="42" on="0"/>
        <pt x="140" y="49" on="0"/>
        <pt x="165" y="74" on="0"/>
        <pt x="193" y="141" on="0"/>
        <pt x="193" y="175" on="1"/>
        <pt x="193" y="1463" on="1"/>
        <pt x="193" y="1536" on="0"/>
        <pt x="145" y="1584" on="1"/>
        <pt x="141" y="1588" on="0"/>
        <pt x="115" y="1600" on="0"/>
        <pt x="115" y="1638" on="0"/>
        <pt x="128" y="1638" on="1"/>
        <pt x="664" y="1638" on="1"/>
        <pt x="749" y="1638" on="0"/>
        <pt x="905" y="1572" on="0"/>
        <pt x="959" y="1518" on="1"/>
        <pt x="1078" y="1399" on="0"/>
        <pt x="1078" y="1262" on="1"/>
        <pt x="1078" y="1158" on="0"/>
        <pt x="974" y="1011" on="0"/>
        <pt x="855" y="923" on="1"/>
        <pt x="855" y="902" on="1"/>
        <pt x="1204" y="759" on="0"/>
        <pt x="1204" y="458" on="1"/>
        <pt x="1204" y="298" on="0"/>
        <pt x="1061" y="154" on="1"/>
        <pt x="994" y="86" on="0"/>
        <pt x="788" y="0" on="0"/>
      </contour>
    </TTGlyph>
    <TTGlyph name="C" xMin="80" yMin="-52" xMax="1703" yMax="1657">
      <contour>
        <pt x="923" y="114" on="1"/>
        <pt x="1149" y="114" on="0"/>
        <pt x="1506" y="318" on="0"/>
        <pt x="1621" y="490" on="1"/>
        <pt x="1634" y="511" on="0"/>
        <pt x="1647" y="495" on="0"/>
        <pt x="1657" y="481" on="1"/>
        <pt x="1688" y="436" on="1"/>
        <pt x="1703" y="411" on="0"/>
        <pt x="1699" y="405" on="1"/>
        <pt x="1639" y="283" on="0"/>
        <pt x="1498" y="166" on="1"/>
        <pt x="1237" y="-52" on="0"/>
        <pt x="923" y="-52" on="1"/>
        <pt x="741" y="-52" on="0"/>
        <pt x="423" y="89" on="0"/>
        <pt x="205" y="325" on="0"/>
        <pt x="80" y="642" on="0"/>
        <pt x="80" y="982" on="0"/>
        <pt x="215" y="1293" on="0"/>
        <pt x="441" y="1520" on="0"/>
        <pt x="751" y="1657" on="0"/>
        <pt x="909" y="1657" on="1"/>
        <pt x="1097" y="1657" on="0"/>
        <pt x="1288" y="1584" on="1"/>
        <pt x="1334" y="1567" on="1"/>
        <pt x="1344" y="1563" on="0"/>
        <pt x="1380" y="1587" on="0"/>
        <pt x="1420" y="1587" on="0"/>
        <pt x="1431" y="1568" on="1"/>
        <pt x="1435" y="1565" on="0"/>
        <pt x="1434" y="1547" on="1"/>
        <pt x="1432" y="1518" on="0"/>
        <pt x="1458" y="1414" on="1"/>
        <pt x="1483" y="1304" on="1"/>
        <pt x="1493" y="1261" on="0"/>
        <pt x="1493" y="1249" on="1"/>
        <pt x="1493" y="1243" on="0"/>
        <pt x="1442" y="1218" on="0"/>
        <pt x="1438" y="1225" on="1"/>
        <pt x="1355" y="1370" on="0"/>
        <pt x="1104" y="1480" on="0"/>
        <pt x="729" y="1480" on="0"/>
        <pt x="427" y="1310" on="0"/>
        <pt x="263" y="1007" on="0"/>
        <pt x="263" y="815" on="1"/>
        <pt x="263" y="689" on="0"/>
        <pt x="379" y="432" on="0"/>
        <pt x="562" y="237" on="0"/>
        <pt x="804" y="114" on="0"/>
      </contour>
    </TTGlyph>
    <TTGlyph name="Cacute" xMin="80" yMin="-52" xMax="1703" yMax="2207">
      <component glyphName="acute" x="736" y="761" flags="0x1004"/>
      <component glyphName="C" x="0" y="0" flags="0x1204"/>
    </TTGlyph>
    <TTGlyph name="Ccaron" xMin="80" yMin="-52" xMax="1703" yMax="2165">
      <component glyphName="caron" x="564" y="761" flags="0x1004"/>
      <component glyphName="C" x="0" y="0" flags="0x1204"/>
    </TTGlyph>
    <TTGlyph name="Ccedilla" xMin="80" yMin="-445" xMax="1704" yMax="1657">
      <contour>
        <pt x="994" y="-237" on="0"/>
        <pt x="932" y="-178" on="0"/>
        <pt x="864" y="-178" on="0"/>
        <pt x="821" y="-195" on="1"/>
        <pt x="816" y="-195" on="0"/>
        <pt x="811" y="-172" on="0"/>
        <pt x="814" y="-163" on="1"/>
        <pt x="880" y="-51" on="1"/>
        <pt x="706" y="-43" on="0"/>
        <pt x="405" y="103" on="0"/>
        <pt x="198" y="338" on="0"/>
        <pt x="80" y="647" on="0"/>
        <pt x="80" y="982" on="0"/>
        <pt x="215" y="1293" on="0"/>
        <pt x="441" y="1520" on="0"/>
        <pt x="751" y="1657" on="0"/>
        <pt x="909" y="1657" on="1"/>
        <pt x="1097" y="1657" on="0"/>
        <pt x="1288" y="1584" on="1"/>
        <pt x="1334" y="1567" on="1"/>
        <pt x="1344" y="1563" on="0"/>
        <pt x="1380" y="1587" on="0"/>
        <pt x="1421" y="1587" on="0"/>
        <pt x="1431" y="1568" on="1"/>
        <pt x="1435" y="1565" on="0"/>
        <pt x="1434" y="1547" on="1"/>
        <pt x="1432" y="1519" on="0"/>
        <pt x="1458" y="1414" on="1"/>
        <pt x="1483" y="1304" on="1"/>
        <pt x="1493" y="1260" on="0"/>
        <pt x="1493" y="1249" on="1"/>
        <pt x="1493" y="1243" on="0"/>
        <pt x="1442" y="1218" on="0"/>
        <pt x="1438" y="1225" on="1"/>
        <pt x="1355" y="1370" on="0"/>
        <pt x="1104" y="1480" on="0"/>
        <pt x="729" y="1480" on="0"/>
        <pt x="427" y="1310" on="0"/>
        <pt x="263" y="1007" on="0"/>
        <pt x="263" y="815" on="1"/>
        <pt x="263" y="689" on="0"/>
        <pt x="379" y="432" on="0"/>
        <pt x="562" y="237" on="0"/>
        <pt x="804" y="114" on="0"/>
        <pt x="923" y="114" on="1"/>
        <pt x="1149" y="114" on="0"/>
        <pt x="1506" y="318" on="0"/>
        <pt x="1621" y="490" on="1"/>
        <pt x="1634" y="511" on="0"/>
        <pt x="1647" y="495" on="0"/>
        <pt x="1668" y="467" on="0"/>
        <pt x="1674" y="457" on="1"/>
        <pt x="1688" y="436" on="1"/>
        <pt x="1704" y="412" on="0"/>
        <pt x="1699" y="405" on="1"/>
        <pt x="1641" y="287" on="0"/>
        <pt x="1505" y="172" on="1"/>
        <pt x="1254" y="-40" on="0"/>
        <pt x="954" y="-51" on="1"/>
        <pt x="911" y="-128" on="1"/>
        <pt x="916" y="-127" on="0"/>
        <pt x="925" y="-127" on="1"/>
        <pt x="983" y="-127" on="0"/>
        <pt x="1068" y="-211" on="0"/>
        <pt x="1068" y="-343" on="0"/>
        <pt x="975" y="-445" on="0"/>
        <pt x="841" y="-445" on="0"/>
        <pt x="771" y="-380" on="0"/>
        <pt x="762" y="-332" on="1"/>
        <pt x="762" y="-325" on="0"/>
        <pt x="790" y="-317" on="0"/>
        <pt x="791" y="-319" on="1"/>
        <pt x="796" y="-339" on="0"/>
        <pt x="866" y="-375" on="0"/>
        <pt x="900" y="-375" on="1"/>
        <pt x="994" y="-375" on="0"/>
        <pt x="994" y="-272" on="1"/>
      </contour>
    </TTGlyph>
    <TTGlyph name="Ccircumflex" xMin="80" yMin="-52" xMax="1703" yMax="2156">
      <component glyphName="asciicircum" x="564" y="762" flags="0x1004"/>
      <component glyphName="C" x="0" y="0" flags="0x1204"/>
    </TTGlyph>
    <TTGlyph name="Cdotaccent" xMin="80" yMin="-52" xMax="1703" yMax="2078">
      <component glyphName="period" x="694" y="1793" flags="0x1004"/>
      <component glyphName="C" x="0" y="0" flags="0x1204"/>
    </TTGlyph>
    <TTGlyph name="D" xMin="115" yMin="0" xMax="1414" yMax="1638">
      <contour>
        <pt x="631" y="0" on="1"/>
        <pt x="128" y="0" on="1"/>
        <pt x="115" y="0" on="0"/>
        <pt x="115" y="35" on="0"/>
        <pt x="124" y="42" on="0"/>
        <pt x="140" y="49" on="0"/>
        <pt x="165" y="74" on="0"/>
        <pt x="193" y="141" on="0"/>
        <pt x="193" y="175" on="1"/>
        <pt x="193" y="1463" on="1"/>
        <pt x="193" y="1536" on="0"/>
        <pt x="145" y="1584" on="1"/>
        <pt x="141" y="1588" on="0"/>
        <pt x="115" y="1600" on="0"/>
        <pt x="115" y="1638" on="0"/>
        <pt x="128" y="1638" on="1"/>
        <pt x="581" y="1638" on="1"/>
        <pt x="825" y="1638" on="0"/>
        <pt x="1048" y="1506" on="1"/>
        <pt x="1206" y="1412" on="0"/>
        <pt x="1414" y="1069" on="0"/>
        <pt x="1414" y="824" on="1"/>
        <pt x="1414" y="668" on="0"/>
        <pt x="1298" y="371" on="0"/>
        <pt x="1097" y="141" on="0"/>
        <pt x="800" y="0" on="0"/>
      </contour>
      <contour>
        <pt x="387" y="194" on="1"/>
        <pt x="387" y="157" on="0"/>
        <pt x="448" y="157" on="1"/>
        <pt x="560" y="157" on="1"/>
        <pt x="966" y="158" on="0"/>
        <pt x="1124" y="434" on="1"/>
        <pt x="1216" y="595" on="0"/>
        <pt x="1216" y="824" on="1"/>
        <pt x="1216" y="1103" on="0"/>
        <pt x="1062" y="1285" on="1"/>
        <pt x="985" y="1376" on="0"/>
        <pt x="729" y="1479" on="0"/>
        <pt x="562" y="1479" on="1"/>
        <pt x="408" y="1479" on="1"/>
        <pt x="400" y="1479" on="0"/>
        <pt x="387" y="1467" on="0"/>
        <pt x="387" y="1458" on="1"/>
      </contour>
    </TTGlyph>
    <TTGlyph name="Dcaron" xMin="115" yMin="0" xMax="1414" yMax="2165">
      <component glyphName="caron" x="294" y="761" flags="0x1004"/>
      <component glyphName="D" x="0" y="0" flags="0x1204"/>
    </TTGlyph>
    <TTGlyph name="Dcroat" xMin="-11" yMin="0" xMax="1288" yMax="1638">
      <contour>
        <pt x="505" y="0" on="1"/>
        <pt x="2" y="0" on="1"/>
        <pt x="-11" y="0" on="0"/>
        <pt x="-11" y="35" on="0"/>
        <pt x="-2" y="42" on="0"/>
        <pt x="14" y="50" on="0"/>
        <pt x="39" y="74" on="0"/>
        <pt x="67" y="141" on="0"/>
        <pt x="67" y="175" on="1"/>
        <pt x="67" y="764" on="1"/>
        <pt x="-11" y="764" on="1"/>
        <pt x="-11" y="916" on="1"/>
        <pt x="67" y="916" on="1"/>
        <pt x="67" y="1463" on="1"/>
        <pt x="67" y="1536" on="0"/>
        <pt x="19" y="1584" on="1"/>
        <pt x="15" y="1588" on="0"/>
        <pt x="-11" y="1600" on="0"/>
        <pt x="-11" y="1638" on="0"/>
        <pt x="2" y="1638" on="1"/>
        <pt x="455" y="1638" on="1"/>
        <pt x="699" y="1638" on="0"/>
        <pt x="922" y="1506" on="1"/>
        <pt x="1080" y="1412" on="0"/>
        <pt x="1288" y="1069" on="0"/>
        <pt x="1288" y="824" on="1"/>
        <pt x="1288" y="668" on="0"/>
        <pt x="1172" y="371" on="0"/>
        <pt x="971" y="141" on="0"/>
        <pt x="674" y="0" on="0"/>
      </contour>
      <contour>
        <pt x="258" y="194" on="1"/>
        <pt x="258" y="157" on="0"/>
        <pt x="293" y="157" on="1"/>
        <pt x="363" y="157" on="0"/>
        <pt x="576" y="158" on="0"/>
        <pt x="688" y="193" on="1"/>
        <pt x="898" y="258" on="0"/>
        <pt x="1092" y="594" on="0"/>
        <pt x="1092" y="824" on="1"/>
        <pt x="1092" y="1102" on="0"/>
        <pt x="938" y="1282" on="1"/>
        <pt x="860" y="1372" on="0"/>
        <pt x="604" y="1477" on="0"/>
        <pt x="335" y="1480" on="0"/>
        <pt x="258" y="1480" on="0"/>
        <pt x="258" y="1458" on="1"/>
        <pt x="258" y="916" on="1"/>
        <pt x="606" y="916" on="1"/>
        <pt x="606" y="764" on="1"/>
        <pt x="258" y="764" on="1"/>
      </contour>
    </TTGlyph>
    <TTGlyph name="E" xMin="105" yMin="0" xMax="1266" yMax="1638">
      <contour>
        <pt x="1008" y="980" on="1"/>
        <pt x="1081" y="980" on="0"/>
        <pt x="1129" y="1028" on="1"/>
        <pt x="1133" y="1032" on="0"/>
        <pt x="1145" y="1058" on="0"/>
        <pt x="1183" y="1058" on="0"/>
        <pt x="1183" y="1045" on="1"/>
        <pt x="1183" y="755" on="1"/>
        <pt x="1183" y="742" on="0"/>
        <pt x="1148" y="742" on="0"/>
        <pt x="1141" y="751" on="0"/>
        <pt x="1134" y="767" on="0"/>
        <pt x="1109" y="792" on="0"/>
        <pt x="1042" y="818" on="0"/>
        <pt x="1008" y="818" on="1"/>
        <pt x="377" y="818" on="1"/>
        <pt x="377" y="162" on="1"/>
        <pt x="1041" y="162" on="1"/>
        <pt x="1154" y="162" on="0"/>
        <pt x="1205" y="201" on="0"/>
        <pt x="1226" y="231" on="0"/>
        <pt x="1237" y="231" on="0"/>
        <pt x="1266" y="221" on="0"/>
        <pt x="1266" y="213" on="0"/>
        <pt x="1252" y="178" on="1"/>
        <pt x="1220" y="97" on="1"/>
        <pt x="1202" y="51" on="0"/>
        <pt x="1189" y="4" on="0"/>
        <pt x="1178" y="0" on="1"/>
        <pt x="118" y="0" on="1"/>
        <pt x="105" y="0" on="0"/>
        <pt x="105" y="35" on="0"/>
        <pt x="114" y="42" on="0"/>
        <pt x="130" y="49" on="0"/>
        <pt x="155" y="74" on="0"/>
        <pt x="183" y="141" on="0"/>
        <pt x="183" y="175" on="1"/>
        <pt x="183" y="1463" on="1"/>
        <pt x="183" y="1536" on="0"/>
        <pt x="135" y="1584" on="1"/>
        <pt x="131" y="1588" on="0"/>
        <pt x="105" y="1600" on="0"/>
        <pt x="105" y="1638" on="0"/>
        <pt x="118" y="1638" on="1"/>
        <pt x="1178" y="1638" on="1"/>
        <pt x="1188" y="1638" on="0"/>
        <pt x="1202" y="1587" on="0"/>
        <pt x="1220" y="1541" on="1"/>
        <pt x="1252" y="1460" on="1"/>
        <pt x="1266" y="1425" on="0"/>
        <pt x="1266" y="1417" on="0"/>
        <pt x="1237" y="1407" on="0"/>
        <pt x="1228" y="1407" on="0"/>
        <pt x="1218" y="1418" on="0"/>
        <pt x="1205" y="1437" on="0"/>
        <pt x="1154" y="1476" on="0"/>
        <pt x="1041" y="1476" on="1"/>
        <pt x="377" y="1476" on="1"/>
        <pt x="377" y="980" on="1"/>
      </contour>
    </TTGlyph>
    <TTGlyph name="Eacute" xMin="105" yMin="0" xMax="1266" yMax="2207">
      <component glyphName="acute" x="466" y="761" flags="0x1004"/>
      <component glyphName="E" x="0" y="0" flags="0x1204"/>
    </TTGlyph>
    <TTGlyph name="Ebreve" xMin="105" yMin="0" xMax="1266" yMax="2109">
      <component glyphName="breve" x="276" y="762" flags="0x1004"/>
      <component glyphName="E" x="0" y="0" flags="0x1204"/>
    </TTGlyph>
    <TTGlyph name="Ecaron" xMin="105" yMin="0" xMax="1266" yMax="2165">
      <component glyphName="caron" x="294" y="761" flags="0x1004"/>
      <component glyphName="E" x="0" y="0" flags="0x1204"/>
    </TTGlyph>
    <TTGlyph name="Ecircumflex" xMin="105" yMin="0" xMax="1266" yMax="2156">
      <component glyphName="asciicircum" x="322" y="762" flags="0x1004"/>
      <component glyphName="E" x="0" y="0" flags="0x1204"/>
    </TTGlyph>
    <TTGlyph name="Edieresis" xMin="105" yMin="0" xMax="1266" yMax="2023">
      <component glyphName="dieresis" x="280" y="762" flags="0x1004"/>
      <component glyphName="E" x="0" y="0" flags="0x1204"/>
    </TTGlyph>
    <TTGlyph name="Edotaccent" xMin="105" yMin="0" xMax="1266" yMax="2078">
      <component glyphName="period" x="424" y="1793" flags="0x1004"/>
      <component glyphName="E" x="0" y="0" flags="0x1204"/>
    </TTGlyph>
    <TTGlyph name="Egrave" xMin="105" yMin="0" xMax="1266" yMax="2207">
      <component glyphName="grave" x="216" y="761" flags="0x1004"/>
      <component glyphName="E" x="0" y="0" flags="0x1204"/>
    </TTGlyph>
    <TTGlyph name="Emacron" xMin="105" yMin="0" xMax="1266" yMax="1944">
      <component glyphName="macron" x="222" y="762" flags="0x1004"/>
      <component glyphName="E" x="0" y="0" flags="0x1204"/>
    </TTGlyph>
    <TTGlyph name="Eogonek" xMin="115" yMin="-401" xMax="1276" yMax="1638">
      <contour>
        <pt x="829" y="-267" on="1"/>
        <pt x="830" y="-265" on="0"/>
        <pt x="858" y="-273" on="0"/>
        <pt x="858" y="-280" on="1"/>
        <pt x="849" y="-328" on="0"/>
        <pt x="748" y="-401" on="0"/>
        <pt x="624" y="-380" on="0"/>
        <pt x="542" y="-265" on="0"/>
        <pt x="564" y="-142" on="0"/>
        <pt x="654" y="-70" on="0"/>
        <pt x="709" y="-76" on="1"/>
        <pt x="665" y="0" on="1"/>
        <pt x="128" y="0" on="1"/>
        <pt x="115" y="0" on="0"/>
        <pt x="115" y="35" on="0"/>
        <pt x="124" y="42" on="0"/>
        <pt x="140" y="50" on="0"/>
        <pt x="165" y="74" on="0"/>
        <pt x="193" y="141" on="0"/>
        <pt x="193" y="175" on="1"/>
        <pt x="193" y="1463" on="1"/>
        <pt x="193" y="1536" on="0"/>
        <pt x="145" y="1584" on="1"/>
        <pt x="141" y="1588" on="0"/>
        <pt x="115" y="1600" on="0"/>
        <pt x="115" y="1638" on="0"/>
        <pt x="128" y="1638" on="1"/>
        <pt x="1188" y="1638" on="1"/>
        <pt x="1198" y="1638" on="0"/>
        <pt x="1212" y="1586" on="0"/>
        <pt x="1230" y="1544" on="1"/>
        <pt x="1262" y="1470" on="1"/>
        <pt x="1276" y="1438" on="0"/>
        <pt x="1276" y="1431" on="0"/>
        <pt x="1247" y="1421" on="0"/>
        <pt x="1242" y="1421" on="1"/>
        <pt x="1236" y="1421" on="0"/>
        <pt x="1216" y="1450" on="0"/>
        <pt x="1165" y="1490" on="0"/>
        <pt x="1051" y="1490" on="1"/>
        <pt x="387" y="1490" on="1"/>
        <pt x="387" y="970" on="1"/>
        <pt x="1018" y="970" on="1"/>
        <pt x="1091" y="970" on="0"/>
        <pt x="1139" y="1018" on="1"/>
        <pt x="1143" y="1022" on="0"/>
        <pt x="1155" y="1048" on="0"/>
        <pt x="1193" y="1048" on="0"/>
        <pt x="1194" y="1035" on="1"/>
        <pt x="1194" y="764" on="1"/>
        <pt x="1194" y="751" on="0"/>
        <pt x="1158" y="751" on="0"/>
        <pt x="1151" y="760" on="0"/>
        <pt x="1144" y="776" on="0"/>
        <pt x="1119" y="801" on="0"/>
        <pt x="1052" y="827" on="0"/>
        <pt x="1018" y="827" on="1"/>
        <pt x="387" y="827" on="1"/>
        <pt x="387" y="148" on="1"/>
        <pt x="1051" y="148" on="1"/>
        <pt x="1164" y="148" on="0"/>
        <pt x="1198" y="174" on="1"/>
        <pt x="1216" y="186" on="0"/>
        <pt x="1236" y="216" on="0"/>
        <pt x="1247" y="217" on="0"/>
        <pt x="1276" y="207" on="0"/>
        <pt x="1276" y="200" on="0"/>
        <pt x="1262" y="168" on="1"/>
        <pt x="1230" y="94" on="1"/>
        <pt x="1212" y="52" on="0"/>
        <pt x="1199" y="5" on="0"/>
        <pt x="1188" y="0" on="1"/>
        <pt x="740" y="0" on="1"/>
        <pt x="806" y="-111" on="1"/>
        <pt x="809" y="-120" on="0"/>
        <pt x="804" y="-143" on="0"/>
        <pt x="799" y="-143" on="1"/>
        <pt x="767" y="-132" on="0"/>
        <pt x="697" y="-120" on="0"/>
        <pt x="633" y="-163" on="0"/>
        <pt x="617" y="-254" on="0"/>
        <pt x="667" y="-314" on="0"/>
        <pt x="706" y="-321" on="1"/>
        <pt x="779" y="-334" on="0"/>
      </contour>
    </TTGlyph>
    <TTGlyph name="Eth" xMin="-11" yMin="0" xMax="1288" yMax="1638">
      <contour>
        <pt x="258" y="194" on="1"/>
        <pt x="258" y="157" on="0"/>
        <pt x="293" y="157" on="1"/>
        <pt x="363" y="157" on="0"/>
        <pt x="576" y="158" on="0"/>
        <pt x="688" y="193" on="1"/>
        <pt x="898" y="258" on="0"/>
        <pt x="1092" y="594" on="0"/>
        <pt x="1092" y="824" on="1"/>
        <pt x="1092" y="1102" on="0"/>
        <pt x="938" y="1282" on="1"/>
        <pt x="860" y="1372" on="0"/>
        <pt x="604" y="1477" on="0"/>
        <pt x="335" y="1480" on="0"/>
        <pt x="258" y="1480" on="0"/>
        <pt x="258" y="1458" on="1"/>
        <pt x="258" y="916" on="1"/>
        <pt x="606" y="916" on="1"/>
        <pt x="606" y="764" on="1"/>
        <pt x="258" y="764" on="1"/>
      </contour>
      <contour>
        <pt x="505" y="0" on="1"/>
        <pt x="2" y="0" on="1"/>
        <pt x="-11" y="0" on="0"/>
        <pt x="-11" y="35" on="0"/>
        <pt x="-2" y="42" on="0"/>
        <pt x="14" y="50" on="0"/>
        <pt x="39" y="74" on="0"/>
        <pt x="67" y="141" on="0"/>
        <pt x="67" y="175" on="1"/>
        <pt x="67" y="764" on="1"/>
        <pt x="-11" y="764" on="1"/>
        <pt x="-11" y="916" on="1"/>
        <pt x="67" y="916" on="1"/>
        <pt x="67" y="1463" on="1"/>
        <pt x="67" y="1536" on="0"/>
        <pt x="19" y="1584" on="1"/>
        <pt x="15" y="1588" on="0"/>
        <pt x="-11" y="1600" on="0"/>
        <pt x="-11" y="1638" on="0"/>
        <pt x="2" y="1638" on="1"/>
        <pt x="455" y="1638" on="1"/>
        <pt x="699" y="1638" on="0"/>
        <pt x="922" y="1506" on="1"/>
        <pt x="1080" y="1412" on="0"/>
        <pt x="1288" y="1069" on="0"/>
        <pt x="1288" y="824" on="1"/>
        <pt x="1288" y="668" on="0"/>
        <pt x="1172" y="371" on="0"/>
        <pt x="971" y="141" on="0"/>
        <pt x="674" y="0" on="0"/>
      </contour>
    </TTGlyph>
    <TTGlyph name="Euro" xMin="40" yMin="-52" xMax="1786" yMax="1657">
      <contour>
        <pt x="1006" y="114" on="1"/>
        <pt x="1232" y="114" on="0"/>
        <pt x="1589" y="318" on="0"/>
        <pt x="1704" y="490" on="1"/>
        <pt x="1717" y="511" on="0"/>
        <pt x="1724" y="503" on="1"/>
        <pt x="1742" y="480" on="0"/>
        <pt x="1756" y="457" on="1"/>
        <pt x="1770" y="436" on="1"/>
        <pt x="1786" y="412" on="0"/>
        <pt x="1782" y="405" on="1"/>
        <pt x="1722" y="284" on="0"/>
        <pt x="1581" y="166" on="1"/>
        <pt x="1319" y="-52" on="0"/>
        <pt x="702" y="-52" on="0"/>
        <pt x="266" y="306" on="0"/>
        <pt x="193" y="580" on="1"/>
        <pt x="40" y="580" on="1"/>
        <pt x="40" y="730" on="1"/>
        <pt x="167" y="730" on="1"/>
        <pt x="163" y="767" on="0"/>
        <pt x="163" y="848" on="0"/>
        <pt x="166" y="880" on="1"/>
        <pt x="40" y="880" on="1"/>
        <pt x="40" y="1030" on="1"/>
        <pt x="192" y="1030" on="1"/>
        <pt x="241" y="1207" on="0"/>
        <pt x="477" y="1492" on="0"/>
        <pt x="815" y="1657" on="0"/>
        <pt x="982" y="1657" on="1"/>
        <pt x="1180" y="1657" on="0"/>
        <pt x="1370" y="1584" on="1"/>
        <pt x="1416" y="1567" on="1"/>
        <pt x="1427" y="1563" on="0"/>
        <pt x="1462" y="1587" on="0"/>
        <pt x="1503" y="1587" on="0"/>
        <pt x="1514" y="1568" on="1"/>
        <pt x="1518" y="1565" on="0"/>
        <pt x="1517" y="1547" on="1"/>
        <pt x="1515" y="1518" on="0"/>
        <pt x="1540" y="1414" on="1"/>
        <pt x="1566" y="1304" on="1"/>
        <pt x="1576" y="1260" on="0"/>
        <pt x="1576" y="1249" on="1"/>
        <pt x="1576" y="1243" on="0"/>
        <pt x="1525" y="1218" on="0"/>
        <pt x="1521" y="1225" on="1"/>
        <pt x="1438" y="1370" on="0"/>
        <pt x="1187" y="1480" on="0"/>
        <pt x="1006" y="1480" on="1"/>
        <pt x="772" y="1480" on="0"/>
        <pt x="437" y="1236" on="0"/>
        <pt x="376" y="1030" on="1"/>
        <pt x="1026" y="1030" on="1"/>
        <pt x="1026" y="880" on="1"/>
        <pt x="349" y="880" on="1"/>
        <pt x="346" y="848" on="0"/>
        <pt x="346" y="769" on="0"/>
        <pt x="353" y="730" on="1"/>
        <pt x="1026" y="730" on="1"/>
        <pt x="1026" y="580" on="1"/>
        <pt x="395" y="580" on="1"/>
        <pt x="475" y="385" on="0"/>
        <pt x="822" y="114" on="0"/>
      </contour>
    </TTGlyph>
    <TTGlyph name="F" xMin="115" yMin="0" xMax="1276" yMax="1638">
      <contour>
        <pt x="128" y="0" on="1"/>
        <pt x="115" y="0" on="0"/>
        <pt x="115" y="35" on="0"/>
        <pt x="124" y="42" on="0"/>
        <pt x="140" y="49" on="0"/>
        <pt x="165" y="74" on="0"/>
        <pt x="193" y="141" on="0"/>
        <pt x="193" y="175" on="1"/>
        <pt x="193" y="1463" on="1"/>
        <pt x="193" y="1536" on="0"/>
        <pt x="145" y="1584" on="1"/>
        <pt x="141" y="1588" on="0"/>
        <pt x="115" y="1600" on="0"/>
        <pt x="115" y="1638" on="0"/>
        <pt x="128" y="1638" on="1"/>
        <pt x="1188" y="1638" on="1"/>
        <pt x="1198" y="1638" on="0"/>
        <pt x="1212" y="1587" on="0"/>
        <pt x="1230" y="1541" on="1"/>
        <pt x="1262" y="1460" on="1"/>
        <pt x="1276" y="1425" on="0"/>
        <pt x="1276" y="1417" on="0"/>
        <pt x="1247" y="1407" on="0"/>
        <pt x="1242" y="1407" on="1"/>
        <pt x="1235" y="1407" on="0"/>
        <pt x="1216" y="1436" on="0"/>
        <pt x="1165" y="1476" on="0"/>
        <pt x="1051" y="1476" on="1"/>
        <pt x="387" y="1476" on="1"/>
        <pt x="387" y="980" on="1"/>
        <pt x="1018" y="980" on="1"/>
        <pt x="1091" y="980" on="0"/>
        <pt x="1139" y="1028" on="1"/>
        <pt x="1143" y="1032" on="0"/>
        <pt x="1155" y="1058" on="0"/>
        <pt x="1193" y="1058" on="0"/>
        <pt x="1193" y="1045" on="1"/>
        <pt x="1193" y="755" on="1"/>
        <pt x="1193" y="742" on="0"/>
        <pt x="1158" y="742" on="0"/>
        <pt x="1151" y="751" on="0"/>
        <pt x="1144" y="767" on="0"/>
        <pt x="1119" y="792" on="0"/>
        <pt x="1052" y="818" on="0"/>
        <pt x="1018" y="818" on="1"/>
        <pt x="387" y="818" on="1"/>
        <pt x="387" y="175" on="1"/>
        <pt x="387" y="102" on="0"/>
        <pt x="435" y="54" on="1"/>
        <pt x="439" y="50" on="0"/>
        <pt x="465" y="38" on="0"/>
        <pt x="465" y="0" on="0"/>
        <pt x="452" y="0" on="1"/>
      </contour>
    </TTGlyph>
    <TTGlyph name="G" xMin="80" yMin="-39" xMax="1603" yMax="1670">
      <contour>
        <pt x="1525" y="181" on="1"/>
        <pt x="1525" y="171" on="0"/>
        <pt x="1496" y="171" on="0"/>
        <pt x="1491" y="169" on="1"/>
        <pt x="1385" y="84" on="0"/>
        <pt x="1081" y="-39" on="0"/>
        <pt x="741" y="-39" on="0"/>
        <pt x="423" y="102" on="0"/>
        <pt x="205" y="338" on="0"/>
        <pt x="80" y="655" on="0"/>
        <pt x="80" y="995" on="0"/>
        <pt x="215" y="1306" on="0"/>
        <pt x="441" y="1533" on="0"/>
        <pt x="751" y="1670" on="0"/>
        <pt x="909" y="1670" on="1"/>
        <pt x="1097" y="1670" on="0"/>
        <pt x="1288" y="1598" on="1"/>
        <pt x="1334" y="1580" on="1"/>
        <pt x="1344" y="1576" on="0"/>
        <pt x="1380" y="1600" on="0"/>
        <pt x="1421" y="1600" on="0"/>
        <pt x="1431" y="1581" on="1"/>
        <pt x="1435" y="1578" on="0"/>
        <pt x="1434" y="1560" on="1"/>
        <pt x="1432" y="1532" on="0"/>
        <pt x="1458" y="1426" on="1"/>
        <pt x="1483" y="1318" on="1"/>
        <pt x="1493" y="1274" on="0"/>
        <pt x="1493" y="1262" on="1"/>
        <pt x="1493" y="1256" on="0"/>
        <pt x="1442" y="1231" on="0"/>
        <pt x="1438" y="1238" on="1"/>
        <pt x="1355" y="1383" on="0"/>
        <pt x="1104" y="1493" on="0"/>
        <pt x="729" y="1493" on="0"/>
        <pt x="427" y="1323" on="0"/>
        <pt x="263" y="1020" on="0"/>
        <pt x="263" y="828" on="1"/>
        <pt x="263" y="702" on="0"/>
        <pt x="379" y="445" on="0"/>
        <pt x="562" y="251" on="0"/>
        <pt x="804" y="128" on="0"/>
        <pt x="1028" y="128" on="0"/>
        <pt x="1298" y="241" on="0"/>
        <pt x="1331" y="280" on="1"/>
        <pt x="1331" y="689" on="1"/>
        <pt x="1331" y="762" on="0"/>
        <pt x="1283" y="810" on="1"/>
        <pt x="1279" y="814" on="0"/>
        <pt x="1253" y="826" on="0"/>
        <pt x="1253" y="864" on="0"/>
        <pt x="1266" y="864" on="1"/>
        <pt x="1590" y="864" on="1"/>
        <pt x="1603" y="864" on="0"/>
        <pt x="1603" y="829" on="0"/>
        <pt x="1594" y="822" on="0"/>
        <pt x="1578" y="815" on="0"/>
        <pt x="1553" y="790" on="0"/>
        <pt x="1525" y="723" on="0"/>
        <pt x="1525" y="689" on="1"/>
      </contour>
    </TTGlyph>
    <TTGlyph name="Gbreve" xMin="80" yMin="-39" xMax="1603" yMax="2109">
      <component glyphName="breve" x="546" y="762" flags="0x1004"/>
      <component glyphName="G" x="0" y="0" flags="0x1204"/>
    </TTGlyph>
    <TTGlyph name="Gcircumflex" xMin="80" yMin="-39" xMax="1603" yMax="2156">
      <component glyphName="asciicircum" x="564" y="762" flags="0x1004"/>
      <component glyphName="G" x="0" y="0" flags="0x1204"/>
    </TTGlyph>
    <TTGlyph name="Gcommaaccent" xMin="80" yMin="-632" xMax="1603" yMax="1670">
      <component glyphName="comma" x="696" y="-440" flags="0x1004"/>
      <component glyphName="G" x="0" y="0" flags="0x1204"/>
    </TTGlyph>
    <TTGlyph name="Gdotaccent" xMin="80" yMin="-39" xMax="1603" yMax="2078">
      <component glyphName="period" x="694" y="1793" flags="0x1004"/>
      <component glyphName="G" x="0" y="0" flags="0x1204"/>
    </TTGlyph>
    <TTGlyph name="H" xMin="115" yMin="0" xMax="1793" yMax="1638">
      <contour>
        <pt x="128" y="1638" on="1"/>
        <pt x="452" y="1638" on="1"/>
        <pt x="465" y="1638" on="0"/>
        <pt x="465" y="1603" on="0"/>
        <pt x="456" y="1596" on="0"/>
        <pt x="440" y="1589" on="0"/>
        <pt x="415" y="1564" on="0"/>
        <pt x="387" y="1497" on="0"/>
        <pt x="387" y="1463" on="1"/>
        <pt x="387" y="1008" on="1"/>
        <pt x="1521" y="1008" on="1"/>
        <pt x="1521" y="1463" on="1"/>
        <pt x="1521" y="1536" on="0"/>
        <pt x="1473" y="1584" on="1"/>
        <pt x="1469" y="1588" on="0"/>
        <pt x="1443" y="1600" on="0"/>
        <pt x="1443" y="1638" on="0"/>
        <pt x="1456" y="1638" on="1"/>
        <pt x="1780" y="1638" on="1"/>
        <pt x="1793" y="1638" on="0"/>
        <pt x="1793" y="1603" on="0"/>
        <pt x="1784" y="1596" on="0"/>
        <pt x="1768" y="1589" on="0"/>
        <pt x="1743" y="1564" on="0"/>
        <pt x="1715" y="1497" on="0"/>
        <pt x="1715" y="1463" on="1"/>
        <pt x="1715" y="175" on="1"/>
        <pt x="1715" y="102" on="0"/>
        <pt x="1763" y="54" on="1"/>
        <pt x="1767" y="50" on="0"/>
        <pt x="1793" y="38" on="0"/>
        <pt x="1793" y="0" on="0"/>
        <pt x="1780" y="0" on="1"/>
        <pt x="1456" y="0" on="1"/>
        <pt x="1443" y="0" on="0"/>
        <pt x="1443" y="35" on="0"/>
        <pt x="1452" y="42" on="0"/>
        <pt x="1468" y="49" on="0"/>
        <pt x="1493" y="74" on="0"/>
        <pt x="1521" y="141" on="0"/>
        <pt x="1521" y="175" on="1"/>
        <pt x="1521" y="842" on="1"/>
        <pt x="387" y="842" on="1"/>
        <pt x="387" y="175" on="1"/>
        <pt x="387" y="102" on="0"/>
        <pt x="435" y="54" on="1"/>
        <pt x="439" y="50" on="0"/>
        <pt x="465" y="38" on="0"/>
        <pt x="465" y="0" on="0"/>
        <pt x="452" y="0" on="1"/>
        <pt x="128" y="0" on="1"/>
        <pt x="115" y="0" on="0"/>
        <pt x="115" y="35" on="0"/>
        <pt x="124" y="42" on="0"/>
        <pt x="140" y="49" on="0"/>
        <pt x="165" y="74" on="0"/>
        <pt x="193" y="141" on="0"/>
        <pt x="193" y="175" on="1"/>
        <pt x="193" y="1463" on="1"/>
        <pt x="193" y="1536" on="0"/>
        <pt x="145" y="1584" on="1"/>
        <pt x="141" y="1588" on="0"/>
        <pt x="115" y="1600" on="0"/>
        <pt x="115" y="1638" on="0"/>
      </contour>
    </TTGlyph>
    <TTGlyph name="Hcircumflex" xMin="115" yMin="0" xMax="1793" yMax="2156">
      <component glyphName="asciicircum" x="600" y="762" flags="0x1004"/>
      <component glyphName="H" x="0" y="0" flags="0x1204"/>
    </TTGlyph>
    <TTGlyph name="I" xMin="115" yMin="0" xMax="465" yMax="1638">
      <contour>
        <pt x="128" y="1638" on="1"/>
        <pt x="452" y="1638" on="1"/>
        <pt x="465" y="1638" on="0"/>
        <pt x="465" y="1603" on="0"/>
        <pt x="456" y="1596" on="0"/>
        <pt x="440" y="1589" on="0"/>
        <pt x="415" y="1564" on="0"/>
        <pt x="387" y="1497" on="0"/>
        <pt x="387" y="1463" on="1"/>
        <pt x="387" y="175" on="1"/>
        <pt x="387" y="102" on="0"/>
        <pt x="435" y="54" on="1"/>
        <pt x="439" y="50" on="0"/>
        <pt x="465" y="38" on="0"/>
        <pt x="465" y="0" on="0"/>
        <pt x="452" y="0" on="1"/>
        <pt x="128" y="0" on="1"/>
        <pt x="115" y="0" on="0"/>
        <pt x="115" y="35" on="0"/>
        <pt x="124" y="42" on="0"/>
        <pt x="140" y="49" on="0"/>
        <pt x="165" y="74" on="0"/>
        <pt x="193" y="141" on="0"/>
        <pt x="193" y="175" on="1"/>
        <pt x="193" y="1463" on="1"/>
        <pt x="193" y="1536" on="0"/>
        <pt x="145" y="1584" on="1"/>
        <pt x="141" y="1588" on="0"/>
        <pt x="115" y="1600" on="0"/>
        <pt x="115" y="1638" on="0"/>
      </contour>
    </TTGlyph>
    <TTGlyph name="IJ" xMin="95" yMin="-418" xMax="1007" yMax="1638">
      <component glyphName="J" x="600" y="0" flags="0x1004"/>
      <component glyphName="I" x="-20" y="0" flags="0x1004"/>
    </TTGlyph>
    <TTGlyph name="Iacute" xMin="115" yMin="0" xMax="549" yMax="2207">
      <component glyphName="acute" x="108" y="761" flags="0x1004"/>
      <component glyphName="I" x="0" y="0" flags="0x1204"/>
    </TTGlyph>
    <TTGlyph name="Ibreve" xMin="8" yMin="0" xMax="572" yMax="2109">
      <component glyphName="breve" x="-82" y="762" flags="0x1004"/>
      <component glyphName="I" x="0" y="0" flags="0x1204"/>
    </TTGlyph>
    <TTGlyph name="Icircumflex" xMin="24" yMin="0" xMax="558" yMax="2156">
      <component glyphName="asciicircum" x="-64" y="762" flags="0x1004"/>
      <component glyphName="I" x="0" y="0" flags="0x1204"/>
    </TTGlyph>
    <TTGlyph name="Idieresis" xMin="9" yMin="0" xMax="572" yMax="2023">
      <component glyphName="dieresis" x="-78" y="762" flags="0x1004"/>
      <component glyphName="I" x="0" y="0" flags="0x1204"/>
    </TTGlyph>
    <TTGlyph name="Idotaccent" xMin="115" yMin="0" xMax="465" yMax="2078">
      <component glyphName="period" x="66" y="1793" flags="0x1004"/>
      <component glyphName="I" x="0" y="0" flags="0x1204"/>
    </TTGlyph>
    <TTGlyph name="Igrave" xMin="31" yMin="0" xMax="465" yMax="2207">
      <component glyphName="grave" x="-142" y="761" flags="0x1004"/>
      <component glyphName="I" x="0" y="0" flags="0x1204"/>
    </TTGlyph>
    <TTGlyph name="Imacron" xMin="-46" yMin="0" xMax="626" yMax="1944">
      <component glyphName="macron" x="-136" y="762" flags="0x1004"/>
      <component glyphName="I" x="0" y="0" flags="0x1204"/>
    </TTGlyph>
    <TTGlyph name="Iogonek" xMin="115" yMin="-401" xMax="465" yMax="1638">
      <contour>
        <pt x="422" y="-267" on="1"/>
        <pt x="423" y="-265" on="0"/>
        <pt x="451" y="-273" on="0"/>
        <pt x="451" y="-280" on="1"/>
        <pt x="442" y="-328" on="0"/>
        <pt x="341" y="-401" on="0"/>
        <pt x="217" y="-380" on="0"/>
        <pt x="135" y="-265" on="0"/>
        <pt x="157" y="-142" on="0"/>
        <pt x="247" y="-70" on="0"/>
        <pt x="302" y="-76" on="1"/>
        <pt x="259" y="0" on="1"/>
        <pt x="128" y="0" on="1"/>
        <pt x="115" y="0" on="0"/>
        <pt x="115" y="35" on="0"/>
        <pt x="124" y="42" on="0"/>
        <pt x="140" y="49" on="0"/>
        <pt x="165" y="74" on="0"/>
        <pt x="193" y="141" on="0"/>
        <pt x="193" y="175" on="1"/>
        <pt x="193" y="1463" on="1"/>
        <pt x="193" y="1536" on="0"/>
        <pt x="145" y="1584" on="1"/>
        <pt x="141" y="1588" on="0"/>
        <pt x="115" y="1600" on="0"/>
        <pt x="115" y="1638" on="0"/>
        <pt x="128" y="1638" on="1"/>
        <pt x="452" y="1638" on="1"/>
        <pt x="465" y="1638" on="0"/>
        <pt x="465" y="1603" on="0"/>
        <pt x="456" y="1596" on="0"/>
        <pt x="440" y="1589" on="0"/>
        <pt x="415" y="1564" on="0"/>
        <pt x="387" y="1497" on="0"/>
        <pt x="387" y="1463" on="1"/>
        <pt x="387" y="175" on="1"/>
        <pt x="387" y="102" on="0"/>
        <pt x="435" y="54" on="1"/>
        <pt x="439" y="50" on="0"/>
        <pt x="465" y="38" on="0"/>
        <pt x="465" y="0" on="0"/>
        <pt x="452" y="0" on="1"/>
        <pt x="333" y="0" on="1"/>
        <pt x="399" y="-111" on="1"/>
        <pt x="402" y="-120" on="0"/>
        <pt x="397" y="-143" on="0"/>
        <pt x="392" y="-143" on="1"/>
        <pt x="360" y="-132" on="0"/>
        <pt x="290" y="-120" on="0"/>
        <pt x="226" y="-163" on="0"/>
        <pt x="210" y="-254" on="0"/>
        <pt x="260" y="-314" on="0"/>
        <pt x="299" y="-321" on="1"/>
        <pt x="372" y="-334" on="0"/>
      </contour>
    </TTGlyph>
    <TTGlyph name="Itilde" xMin="-13" yMin="0" xMax="592" yMax="2087">
      <component glyphName="asciitilde" x="-103" y="764" flags="0x1004"/>
      <component glyphName="I" x="0" y="0" flags="0x1204"/>
    </TTGlyph>
    <TTGlyph name="J" xMin="-111" yMin="-418" xMax="407" yMax="1638">
      <contour>
        <pt x="329" y="1463" on="1"/>
        <pt x="329" y="9" on="1"/>
        <pt x="329" y="-7" on="0"/>
        <pt x="153" y="-224" on="0"/>
        <pt x="-36" y="-418" on="0"/>
        <pt x="-58" y="-418" on="1"/>
        <pt x="-59" y="-418" on="0"/>
        <pt x="-60" y="-418" on="1"/>
        <pt x="-100" y="-406" on="0"/>
        <pt x="-109" y="-385" on="1"/>
        <pt x="-111" y="-379" on="0"/>
        <pt x="-88" y="-349" on="1"/>
        <pt x="126" y="-69" on="0"/>
        <pt x="135" y="132" on="1"/>
        <pt x="135" y="1463" on="1"/>
        <pt x="135" y="1536" on="0"/>
        <pt x="87" y="1584" on="1"/>
        <pt x="83" y="1588" on="0"/>
        <pt x="57" y="1600" on="0"/>
        <pt x="57" y="1638" on="0"/>
        <pt x="70" y="1638" on="1"/>
        <pt x="394" y="1638" on="1"/>
        <pt x="407" y="1638" on="0"/>
        <pt x="407" y="1603" on="0"/>
        <pt x="398" y="1596" on="0"/>
        <pt x="382" y="1589" on="0"/>
        <pt x="357" y="1564" on="0"/>
        <pt x="329" y="1497" on="0"/>
      </contour>
    </TTGlyph>
    <TTGlyph name="J.swash" xMin="40" yMin="-40" xMax="1029" yMax="1638">
      <contour>
        <pt x="951" y="380" on="1"/>
        <pt x="951" y="332" on="0"/>
        <pt x="904" y="259" on="1"/>
        <pt x="826" y="136" on="0"/>
        <pt x="587" y="-40" on="0"/>
        <pt x="433" y="-39" on="1"/>
        <pt x="332" y="-39" on="0"/>
        <pt x="150" y="52" on="0"/>
        <pt x="40" y="205" on="0"/>
        <pt x="40" y="371" on="0"/>
        <pt x="58" y="462" on="0"/>
        <pt x="87" y="558" on="0"/>
        <pt x="85" y="572" on="1"/>
        <pt x="82" y="586" on="0"/>
        <pt x="71" y="608" on="0"/>
        <pt x="76" y="618" on="1"/>
        <pt x="93" y="640" on="0"/>
        <pt x="103" y="632" on="1"/>
        <pt x="360" y="435" on="1"/>
        <pt x="370" y="427" on="0"/>
        <pt x="349" y="399" on="0"/>
        <pt x="338" y="399" on="0"/>
        <pt x="321" y="404" on="0"/>
        <pt x="280" y="398" on="0"/>
        <pt x="217" y="355" on="0"/>
        <pt x="217" y="322" on="1"/>
        <pt x="217" y="241" on="0"/>
        <pt x="336" y="126" on="0"/>
        <pt x="496" y="126" on="0"/>
        <pt x="628" y="206" on="0"/>
        <pt x="670" y="270" on="1"/>
        <pt x="758" y="406" on="0"/>
        <pt x="757" y="568" on="1"/>
        <pt x="757" y="1463" on="1"/>
        <pt x="757" y="1536" on="0"/>
        <pt x="709" y="1584" on="1"/>
        <pt x="705" y="1588" on="0"/>
        <pt x="679" y="1600" on="0"/>
        <pt x="679" y="1638" on="0"/>
        <pt x="692" y="1638" on="1"/>
        <pt x="1016" y="1638" on="1"/>
        <pt x="1029" y="1638" on="0"/>
        <pt x="1029" y="1603" on="0"/>
        <pt x="1020" y="1596" on="0"/>
        <pt x="1004" y="1589" on="0"/>
        <pt x="979" y="1564" on="0"/>
        <pt x="951" y="1497" on="0"/>
        <pt x="951" y="1463" on="1"/>
      </contour>
    </TTGlyph>
    <TTGlyph name="Jcircumflex" xMin="-111" yMin="-418" xMax="500" yMax="2156">
      <component glyphName="asciicircum" x="-122" y="762" flags="0x1004"/>
      <component glyphName="J" x="0" y="0" flags="0x1204"/>
    </TTGlyph>
    <TTGlyph name="K" xMin="115" yMin="0" xMax="1297" yMax="1638">
      <contour>
        <pt x="537" y="935" on="1"/>
        <pt x="1169" y="153" on="1"/>
        <pt x="1197" y="115" on="0"/>
        <pt x="1265" y="56" on="0"/>
        <pt x="1271" y="50" on="0"/>
        <pt x="1297" y="38" on="0"/>
        <pt x="1297" y="0" on="0"/>
        <pt x="1284" y="0" on="1"/>
        <pt x="922" y="0" on="1"/>
        <pt x="909" y="0" on="0"/>
        <pt x="909" y="35" on="0"/>
        <pt x="918" y="42" on="0"/>
        <pt x="926" y="46" on="1"/>
        <pt x="963" y="62" on="0"/>
        <pt x="952" y="127" on="0"/>
        <pt x="914" y="178" on="1"/>
        <pt x="404" y="809" on="1"/>
        <pt x="387" y="809" on="1"/>
        <pt x="387" y="175" on="1"/>
        <pt x="387" y="102" on="0"/>
        <pt x="435" y="54" on="1"/>
        <pt x="439" y="50" on="0"/>
        <pt x="465" y="38" on="0"/>
        <pt x="465" y="0" on="0"/>
        <pt x="452" y="0" on="1"/>
        <pt x="128" y="0" on="1"/>
        <pt x="115" y="0" on="0"/>
        <pt x="115" y="35" on="0"/>
        <pt x="124" y="42" on="0"/>
        <pt x="140" y="49" on="0"/>
        <pt x="165" y="74" on="0"/>
        <pt x="193" y="141" on="0"/>
        <pt x="193" y="175" on="1"/>
        <pt x="193" y="1463" on="1"/>
        <pt x="193" y="1536" on="0"/>
        <pt x="145" y="1584" on="1"/>
        <pt x="141" y="1588" on="0"/>
        <pt x="115" y="1600" on="0"/>
        <pt x="115" y="1638" on="0"/>
        <pt x="128" y="1638" on="1"/>
        <pt x="452" y="1638" on="1"/>
        <pt x="465" y="1638" on="0"/>
        <pt x="465" y="1603" on="0"/>
        <pt x="456" y="1596" on="0"/>
        <pt x="440" y="1589" on="0"/>
        <pt x="415" y="1564" on="0"/>
        <pt x="387" y="1497" on="0"/>
        <pt x="387" y="1463" on="1"/>
        <pt x="387" y="1045" on="1"/>
        <pt x="404" y="1045" on="1"/>
        <pt x="857" y="1477" on="1"/>
        <pt x="921" y="1538" on="0"/>
        <pt x="925" y="1543" on="1"/>
        <pt x="952" y="1575" on="0"/>
        <pt x="909" y="1594" on="1"/>
        <pt x="896" y="1600" on="0"/>
        <pt x="896" y="1638" on="0"/>
        <pt x="909" y="1638" on="1"/>
        <pt x="1224" y="1638" on="1"/>
        <pt x="1237" y="1638" on="0"/>
        <pt x="1237" y="1602" on="0"/>
        <pt x="1232" y="1595" on="0"/>
        <pt x="1186" y="1576" on="0"/>
        <pt x="1135" y="1523" on="1"/>
        <pt x="537" y="951" on="1"/>
      </contour>
    </TTGlyph>
    <TTGlyph name="Kcommaaccent" xMin="115" yMin="-593" xMax="1297" yMax="1638">
      <component glyphName="comma" x="479" y="-401" flags="0x1004"/>
      <component glyphName="K" x="0" y="0" flags="0x1204"/>
    </TTGlyph>
    <TTGlyph name="L" xMin="115" yMin="0" xMax="1276" yMax="1638">
      <contour>
        <pt x="193" y="175" on="1"/>
        <pt x="193" y="1463" on="1"/>
        <pt x="193" y="1536" on="0"/>
        <pt x="145" y="1584" on="1"/>
        <pt x="141" y="1588" on="0"/>
        <pt x="115" y="1600" on="0"/>
        <pt x="115" y="1638" on="0"/>
        <pt x="128" y="1638" on="1"/>
        <pt x="452" y="1638" on="1"/>
        <pt x="465" y="1638" on="0"/>
        <pt x="465" y="1603" on="0"/>
        <pt x="456" y="1596" on="0"/>
        <pt x="440" y="1589" on="0"/>
        <pt x="415" y="1564" on="0"/>
        <pt x="387" y="1497" on="0"/>
        <pt x="387" y="1463" on="1"/>
        <pt x="387" y="162" on="1"/>
        <pt x="1051" y="162" on="1"/>
        <pt x="1164" y="162" on="0"/>
        <pt x="1198" y="188" on="1"/>
        <pt x="1216" y="200" on="0"/>
        <pt x="1236" y="230" on="0"/>
        <pt x="1247" y="231" on="0"/>
        <pt x="1276" y="221" on="0"/>
        <pt x="1276" y="213" on="0"/>
        <pt x="1262" y="178" on="1"/>
        <pt x="1230" y="97" on="1"/>
        <pt x="1212" y="52" on="0"/>
        <pt x="1199" y="5" on="0"/>
        <pt x="1188" y="0" on="1"/>
        <pt x="128" y="0" on="1"/>
        <pt x="115" y="0" on="0"/>
        <pt x="115" y="35" on="0"/>
        <pt x="124" y="42" on="0"/>
        <pt x="140" y="49" on="0"/>
        <pt x="165" y="74" on="0"/>
        <pt x="193" y="141" on="0"/>
      </contour>
    </TTGlyph>
    <TTGlyph name="Lacute" xMin="115" yMin="0" xMax="1276" yMax="2207">
      <component glyphName="acute" x="108" y="761" flags="0x1004"/>
      <component glyphName="L" x="0" y="0" flags="0x1204"/>
    </TTGlyph>
    <TTGlyph name="Lcaron" xMin="115" yMin="0" xMax="1276" yMax="1678">
      <component glyphName="comma" x="510" y="1393" flags="0x1004"/>
      <component glyphName="L" x="0" y="0" flags="0x1004"/>
    </TTGlyph>
    <TTGlyph name="Lcommaaccent" xMin="115" yMin="-593" xMax="1276" yMax="1638">
      <component glyphName="comma" x="431" y="-401" flags="0x1004"/>
      <component glyphName="L" x="0" y="0" flags="0x1204"/>
    </TTGlyph>
    <TTGlyph name="Ldot" xMin="115" yMin="0" xMax="1276" yMax="1638">
      <component glyphName="periodcentered" x="471" y="17" flags="0x1004"/>
      <component glyphName="L" x="0" y="0" flags="0x1204"/>
    </TTGlyph>
    <TTGlyph name="Lslash" xMin="68" yMin="0" xMax="1276" yMax="1638">
      <contour>
        <pt x="68" y="706" on="1"/>
        <pt x="68" y="723" on="0"/>
        <pt x="74" y="726" on="1"/>
        <pt x="193" y="789" on="1"/>
        <pt x="193" y="1463" on="1"/>
        <pt x="193" y="1536" on="0"/>
        <pt x="145" y="1584" on="1"/>
        <pt x="141" y="1588" on="0"/>
        <pt x="115" y="1600" on="0"/>
        <pt x="115" y="1638" on="0"/>
        <pt x="128" y="1638" on="1"/>
        <pt x="452" y="1638" on="1"/>
        <pt x="465" y="1638" on="0"/>
        <pt x="465" y="1603" on="0"/>
        <pt x="456" y="1596" on="0"/>
        <pt x="440" y="1589" on="0"/>
        <pt x="415" y="1564" on="0"/>
        <pt x="387" y="1497" on="0"/>
        <pt x="387" y="1463" on="1"/>
        <pt x="387" y="892" on="1"/>
        <pt x="555" y="981" on="1"/>
        <pt x="563" y="985" on="0"/>
        <pt x="579" y="977" on="0"/>
        <pt x="580" y="969" on="1"/>
        <pt x="580" y="840" on="1"/>
        <pt x="580" y="823" on="0"/>
        <pt x="575" y="820" on="1"/>
        <pt x="387" y="720" on="1"/>
        <pt x="387" y="148" on="1"/>
        <pt x="1051" y="148" on="1"/>
        <pt x="1164" y="148" on="0"/>
        <pt x="1198" y="174" on="1"/>
        <pt x="1216" y="186" on="0"/>
        <pt x="1236" y="216" on="0"/>
        <pt x="1247" y="217" on="0"/>
        <pt x="1276" y="207" on="0"/>
        <pt x="1276" y="200" on="0"/>
        <pt x="1262" y="168" on="1"/>
        <pt x="1230" y="94" on="1"/>
        <pt x="1212" y="52" on="0"/>
        <pt x="1199" y="5" on="0"/>
        <pt x="1188" y="0" on="1"/>
        <pt x="128" y="0" on="1"/>
        <pt x="115" y="0" on="0"/>
        <pt x="115" y="35" on="0"/>
        <pt x="124" y="42" on="0"/>
        <pt x="140" y="50" on="0"/>
        <pt x="165" y="74" on="0"/>
        <pt x="193" y="141" on="0"/>
        <pt x="193" y="175" on="1"/>
        <pt x="193" y="617" on="1"/>
        <pt x="94" y="565" on="1"/>
        <pt x="86" y="561" on="0"/>
        <pt x="69" y="569" on="0"/>
        <pt x="68" y="577" on="1"/>
      </contour>
    </TTGlyph>
    <TTGlyph name="M" xMin="128" yMin="0" xMax="2059" yMax="1642">
      <contour>
        <pt x="387" y="1544" on="1"/>
        <pt x="324" y="1565" on="0"/>
        <pt x="288" y="1565" on="1"/>
        <pt x="234" y="1565" on="0"/>
        <pt x="170" y="1554" on="0"/>
        <pt x="164" y="1564" on="0"/>
        <pt x="164" y="1584" on="0"/>
        <pt x="178" y="1606" on="0"/>
        <pt x="188" y="1608" on="1"/>
        <pt x="337" y="1642" on="0"/>
        <pt x="596" y="1642" on="1"/>
        <pt x="1098" y="822" on="1"/>
        <pt x="1108" y="822" on="1"/>
        <pt x="1588" y="1642" on="1"/>
        <pt x="1847" y="1642" on="0"/>
        <pt x="1996" y="1608" on="1"/>
        <pt x="2020" y="1603" on="0"/>
        <pt x="2020" y="1571" on="1"/>
        <pt x="2020" y="1553" on="0"/>
        <pt x="1956" y="1564" on="0"/>
        <pt x="1850" y="1564" on="0"/>
        <pt x="1790" y="1541" on="1"/>
        <pt x="1981" y="175" on="1"/>
        <pt x="1995" y="68" on="0"/>
        <pt x="2046" y="44" on="1"/>
        <pt x="2059" y="38" on="0"/>
        <pt x="2059" y="0" on="0"/>
        <pt x="2046" y="0" on="1"/>
        <pt x="1713" y="0" on="1"/>
        <pt x="1700" y="0" on="0"/>
        <pt x="1700" y="35" on="0"/>
        <pt x="1709" y="42" on="0"/>
        <pt x="1717" y="46" on="1"/>
        <pt x="1743" y="57" on="0"/>
        <pt x="1782" y="152" on="0"/>
        <pt x="1782" y="187" on="0"/>
        <pt x="1781" y="193" on="1"/>
        <pt x="1620" y="1381" on="1"/>
        <pt x="1615" y="1381" on="1"/>
        <pt x="1121" y="517" on="1"/>
        <pt x="1118" y="512" on="0"/>
        <pt x="1051" y="514" on="0"/>
        <pt x="1049" y="517" on="1"/>
        <pt x="534" y="1381" on="1"/>
        <pt x="525" y="1381" on="1"/>
        <pt x="378" y="193" on="1"/>
        <pt x="373" y="161" on="0"/>
        <pt x="409" y="74" on="0"/>
        <pt x="433" y="50" on="0"/>
        <pt x="459" y="38" on="0"/>
        <pt x="459" y="0" on="0"/>
        <pt x="446" y="0" on="1"/>
        <pt x="141" y="0" on="1"/>
        <pt x="128" y="0" on="0"/>
        <pt x="128" y="35" on="0"/>
        <pt x="137" y="42" on="0"/>
        <pt x="145" y="46" on="1"/>
        <pt x="192" y="66" on="0"/>
        <pt x="206" y="175" on="1"/>
      </contour>
    </TTGlyph>
    <TTGlyph name="N" xMin="108" yMin="0" xMax="1793" yMax="1638">
      <contour>
        <pt x="377" y="1638" on="1"/>
        <pt x="386" y="1638" on="0"/>
        <pt x="394" y="1630" on="1"/>
        <pt x="1512" y="444" on="1"/>
        <pt x="1519" y="444" on="1"/>
        <pt x="1519" y="1463" on="1"/>
        <pt x="1519" y="1535" on="0"/>
        <pt x="1470" y="1584" on="1"/>
        <pt x="1466" y="1588" on="0"/>
        <pt x="1440" y="1600" on="0"/>
        <pt x="1440" y="1638" on="0"/>
        <pt x="1453" y="1638" on="1"/>
        <pt x="1780" y="1638" on="1"/>
        <pt x="1793" y="1638" on="0"/>
        <pt x="1793" y="1603" on="0"/>
        <pt x="1784" y="1596" on="0"/>
        <pt x="1768" y="1589" on="0"/>
        <pt x="1742" y="1563" on="0"/>
        <pt x="1713" y="1497" on="0"/>
        <pt x="1713" y="1463" on="1"/>
        <pt x="1713" y="53" on="1"/>
        <pt x="1713" y="16" on="0"/>
        <pt x="1694" y="0" on="0"/>
        <pt x="1652" y="0" on="0"/>
        <pt x="1639" y="12" on="1"/>
        <pt x="382" y="1346" on="1"/>
        <pt x="382" y="175" on="1"/>
        <pt x="382" y="98" on="0"/>
        <pt x="426" y="54" on="1"/>
        <pt x="430" y="50" on="0"/>
        <pt x="456" y="38" on="0"/>
        <pt x="456" y="0" on="0"/>
        <pt x="443" y="0" on="1"/>
        <pt x="121" y="0" on="1"/>
        <pt x="108" y="0" on="0"/>
        <pt x="108" y="35" on="0"/>
        <pt x="117" y="42" on="0"/>
        <pt x="133" y="49" on="0"/>
        <pt x="138" y="54" on="1"/>
        <pt x="188" y="104" on="0"/>
        <pt x="188" y="175" on="1"/>
        <pt x="188" y="1463" on="1"/>
        <pt x="188" y="1537" on="0"/>
        <pt x="141" y="1584" on="1"/>
        <pt x="137" y="1588" on="0"/>
        <pt x="111" y="1600" on="0"/>
        <pt x="111" y="1638" on="0"/>
        <pt x="124" y="1638" on="1"/>
      </contour>
    </TTGlyph>
    <TTGlyph name="Nacute" xMin="108" yMin="0" xMax="1793" yMax="2207">
      <component glyphName="acute" x="770" y="761" flags="0x1004"/>
      <component glyphName="N" x="0" y="0" flags="0x1204"/>
    </TTGlyph>
    <TTGlyph name="Ncaron" xMin="108" yMin="0" xMax="1793" yMax="2165">
      <component glyphName="caron" x="598" y="761" flags="0x1004"/>
      <component glyphName="N" x="0" y="0" flags="0x1204"/>
    </TTGlyph>
    <TTGlyph name="Ncommaaccent" xMin="108" yMin="-593" xMax="1793" yMax="1638">
      <component glyphName="comma" x="673" y="-401" flags="0x1004"/>
      <component glyphName="N" x="0" y="0" flags="0x1204"/>
    </TTGlyph>
    <TTGlyph name="Ntilde" xMin="108" yMin="0" xMax="1793" yMax="2087">
      <component glyphName="asciitilde" x="559" y="764" flags="0x1004"/>
      <component glyphName="N" x="0" y="0" flags="0x1204"/>
    </TTGlyph>
    <TTGlyph name="O" xMin="80" yMin="-37" xMax="1812" yMax="1672">
      <contour>
        <pt x="743" y="170" on="1"/>
        <pt x="841" y="131" on="0"/>
        <pt x="935" y="131" on="1"/>
        <pt x="1255" y="131" on="0"/>
        <pt x="1634" y="506" on="0"/>
        <pt x="1634" y="822" on="1"/>
        <pt x="1634" y="931" on="0"/>
        <pt x="1523" y="1171" on="0"/>
        <pt x="1337" y="1370" on="0"/>
        <pt x="1068" y="1500" on="0"/>
        <pt x="728" y="1500" on="0"/>
        <pt x="426" y="1328" on="0"/>
        <pt x="262" y="1024" on="0"/>
        <pt x="262" y="623" on="0"/>
        <pt x="555" y="245" on="0"/>
      </contour>
      <contour>
        <pt x="212" y="334" on="0"/>
        <pt x="80" y="655" on="0"/>
        <pt x="80" y="998" on="0"/>
        <pt x="219" y="1309" on="0"/>
        <pt x="448" y="1536" on="0"/>
        <pt x="759" y="1672" on="0"/>
        <pt x="1065" y="1672" on="0"/>
        <pt x="1198" y="1632" on="1"/>
        <pt x="1461" y="1553" on="0"/>
        <pt x="1812" y="1122" on="0"/>
        <pt x="1812" y="831" on="1"/>
        <pt x="1812" y="660" on="0"/>
        <pt x="1688" y="348" on="0"/>
        <pt x="1465" y="107" on="0"/>
        <pt x="1126" y="-37" on="0"/>
        <pt x="750" y="-37" on="0"/>
        <pt x="436" y="101" on="0"/>
      </contour>
    </TTGlyph>
    <TTGlyph name="OE" xMin="80" yMin="0" xMax="2141" yMax="1638">
      <contour>
        <pt x="1883" y="981" on="1"/>
        <pt x="1956" y="981" on="0"/>
        <pt x="2004" y="1029" on="1"/>
        <pt x="2008" y="1033" on="0"/>
        <pt x="2020" y="1059" on="0"/>
        <pt x="2058" y="1059" on="0"/>
        <pt x="2058" y="1046" on="1"/>
        <pt x="2058" y="754" on="1"/>
        <pt x="2058" y="741" on="0"/>
        <pt x="2023" y="741" on="0"/>
        <pt x="2016" y="750" on="0"/>
        <pt x="2009" y="766" on="0"/>
        <pt x="1984" y="791" on="0"/>
        <pt x="1917" y="819" on="0"/>
        <pt x="1883" y="819" on="1"/>
        <pt x="1252" y="815" on="1"/>
        <pt x="1252" y="162" on="1"/>
        <pt x="1916" y="162" on="1"/>
        <pt x="2057" y="162" on="0"/>
        <pt x="2086" y="210" on="1"/>
        <pt x="2100" y="230" on="0"/>
        <pt x="2112" y="231" on="0"/>
        <pt x="2141" y="221" on="0"/>
        <pt x="2141" y="213" on="0"/>
        <pt x="2127" y="178" on="1"/>
        <pt x="2095" y="97" on="1"/>
        <pt x="2077" y="52" on="0"/>
        <pt x="2064" y="5" on="0"/>
        <pt x="2053" y="0" on="1"/>
        <pt x="924" y="0" on="1"/>
        <pt x="690" y="0" on="0"/>
        <pt x="303" y="215" on="0"/>
        <pt x="80" y="597" on="0"/>
        <pt x="80" y="1104" on="0"/>
        <pt x="416" y="1520" on="0"/>
        <pt x="664" y="1598" on="1"/>
        <pt x="790" y="1638" on="0"/>
        <pt x="924" y="1638" on="1"/>
        <pt x="2053" y="1638" on="1"/>
        <pt x="2063" y="1638" on="0"/>
        <pt x="2077" y="1586" on="0"/>
        <pt x="2095" y="1542" on="1"/>
        <pt x="2127" y="1464" on="1"/>
        <pt x="2141" y="1430" on="0"/>
        <pt x="2141" y="1422" on="0"/>
        <pt x="2112" y="1412" on="0"/>
        <pt x="2103" y="1412" on="0"/>
        <pt x="2093" y="1423" on="0"/>
        <pt x="2080" y="1442" on="0"/>
        <pt x="2029" y="1482" on="0"/>
        <pt x="1916" y="1481" on="1"/>
        <pt x="1252" y="1481" on="1"/>
        <pt x="1252" y="981" on="1"/>
      </contour>
      <contour>
        <pt x="1058" y="160" on="1"/>
        <pt x="1058" y="1476" on="1"/>
        <pt x="924" y="1476" on="1"/>
        <pt x="625" y="1476" on="0"/>
        <pt x="262" y="1122" on="0"/>
        <pt x="262" y="831" on="1"/>
        <pt x="262" y="704" on="0"/>
        <pt x="376" y="458" on="0"/>
        <pt x="560" y="274" on="0"/>
        <pt x="808" y="160" on="0"/>
        <pt x="935" y="160" on="1"/>
      </contour>
    </TTGlyph>
    <TTGlyph name="Oacute" xMin="80" yMin="-37" xMax="1812" yMax="2207">
      <component glyphName="acute" x="742" y="761" flags="0x1004"/>
      <component glyphName="O" x="0" y="0" flags="0x1204"/>
    </TTGlyph>
    <TTGlyph name="Obreve" xMin="80" yMin="-37" xMax="1812" yMax="2109">
      <component glyphName="breve" x="552" y="762" flags="0x1004"/>
      <component glyphName="O" x="0" y="0" flags="0x1204"/>
    </TTGlyph>
    <TTGlyph name="Ocircumflex" xMin="80" yMin="-37" xMax="1812" yMax="2156">
      <component glyphName="asciicircum" x="570" y="762" flags="0x1004"/>
      <component glyphName="O" x="0" y="0" flags="0x1204"/>
    </TTGlyph>
    <TTGlyph name="Odieresis" xMin="80" yMin="-37" xMax="1812" yMax="2023">
      <component glyphName="dieresis" x="556" y="762" flags="0x1004"/>
      <component glyphName="O" x="0" y="0" flags="0x1204"/>
    </TTGlyph>
    <TTGlyph name="Ograve" xMin="80" yMin="-37" xMax="1812" yMax="2207">
      <component glyphName="grave" x="492" y="761" flags="0x1004"/>
      <component glyphName="O" x="0" y="0" flags="0x1204"/>
    </TTGlyph>
    <TTGlyph name="Omacron" xMin="80" yMin="-37" xMax="1812" yMax="1944">
      <component glyphName="macron" x="498" y="762" flags="0x1004"/>
      <component glyphName="O" x="0" y="0" flags="0x1204"/>
    </TTGlyph>
    <TTGlyph name="Oslash" xMin="79" yMin="-37" xMax="1862" yMax="1689">
      <contour>
        <pt x="1492" y="1257" on="1"/>
        <pt x="555" y="326" on="1"/>
        <pt x="652" y="236" on="0"/>
        <pt x="876" y="131" on="0"/>
        <pt x="985" y="131" on="1"/>
        <pt x="1305" y="131" on="0"/>
        <pt x="1684" y="506" on="0"/>
        <pt x="1684" y="822" on="1"/>
        <pt x="1684" y="928" on="0"/>
        <pt x="1582" y="1159" on="0"/>
      </contour>
      <contour>
        <pt x="1381" y="1358" on="1"/>
        <pt x="1193" y="1500" on="0"/>
        <pt x="778" y="1500" on="0"/>
        <pt x="476" y="1328" on="0"/>
        <pt x="312" y="1024" on="0"/>
        <pt x="312" y="632" on="0"/>
        <pt x="455" y="438" on="1"/>
      </contour>
      <contour>
        <pt x="974" y="-37" on="1"/>
        <pt x="649" y="-37" on="0"/>
        <pt x="410" y="183" on="1"/>
        <pt x="211" y="-15" on="1"/>
        <pt x="190" y="-36" on="0"/>
        <pt x="172" y="-27" on="1"/>
        <pt x="125" y="-4" on="0"/>
        <pt x="82" y="48" on="1"/>
        <pt x="79" y="55" on="0"/>
        <pt x="88" y="71" on="0"/>
        <pt x="89" y="75" on="1"/>
        <pt x="310" y="294" on="1"/>
        <pt x="130" y="530" on="0"/>
        <pt x="130" y="831" on="1"/>
        <pt x="130" y="998" on="0"/>
        <pt x="269" y="1309" on="0"/>
        <pt x="498" y="1536" on="0"/>
        <pt x="809" y="1672" on="0"/>
        <pt x="974" y="1672" on="1"/>
        <pt x="1281" y="1672" on="0"/>
        <pt x="1521" y="1496" on="1"/>
        <pt x="1693" y="1667" on="1"/>
        <pt x="1713" y="1689" on="0"/>
        <pt x="1732" y="1679" on="1"/>
        <pt x="1779" y="1656" on="0"/>
        <pt x="1822" y="1604" on="1"/>
        <pt x="1830" y="1590" on="0"/>
        <pt x="1815" y="1577" on="1"/>
        <pt x="1634" y="1398" on="1"/>
        <pt x="1862" y="1159" on="0"/>
        <pt x="1862" y="831" on="1"/>
        <pt x="1862" y="660" on="0"/>
        <pt x="1738" y="348" on="0"/>
        <pt x="1515" y="107" on="0"/>
        <pt x="1176" y="-37" on="0"/>
      </contour>
    </TTGlyph>
    <TTGlyph name="Otilde" xMin="80" yMin="-37" xMax="1812" yMax="2087">
      <component glyphName="asciitilde" x="531" y="764" flags="0x1004"/>
      <component glyphName="O" x="0" y="0" flags="0x1204"/>
    </TTGlyph>
    <TTGlyph name="P" xMin="115" yMin="0" xMax="1188" yMax="1638">
      <contour>
        <pt x="387" y="1424" on="1"/>
        <pt x="387" y="175" on="1"/>
        <pt x="387" y="102" on="0"/>
        <pt x="435" y="54" on="1"/>
        <pt x="439" y="50" on="0"/>
        <pt x="465" y="38" on="0"/>
        <pt x="465" y="0" on="0"/>
        <pt x="452" y="0" on="1"/>
        <pt x="128" y="0" on="1"/>
        <pt x="115" y="0" on="0"/>
        <pt x="115" y="35" on="0"/>
        <pt x="124" y="42" on="0"/>
        <pt x="140" y="49" on="0"/>
        <pt x="165" y="74" on="0"/>
        <pt x="193" y="141" on="0"/>
        <pt x="193" y="175" on="1"/>
        <pt x="193" y="1463" on="1"/>
        <pt x="193" y="1536" on="0"/>
        <pt x="145" y="1584" on="1"/>
        <pt x="141" y="1588" on="0"/>
        <pt x="115" y="1600" on="0"/>
        <pt x="115" y="1638" on="0"/>
        <pt x="128" y="1638" on="1"/>
        <pt x="674" y="1638" on="1"/>
        <pt x="809" y="1638" on="0"/>
        <pt x="1042" y="1533" on="0"/>
        <pt x="1188" y="1328" on="0"/>
        <pt x="1188" y="1044" on="0"/>
        <pt x="1122" y="948" on="1"/>
        <pt x="992" y="762" on="0"/>
        <pt x="585" y="763" on="1"/>
        <pt x="451" y="763" on="1"/>
        <pt x="438" y="763" on="0"/>
        <pt x="438" y="791" on="1"/>
        <pt x="438" y="875" on="1"/>
        <pt x="438" y="903" on="0"/>
        <pt x="451" y="903" on="1"/>
        <pt x="585" y="903" on="1"/>
        <pt x="998" y="903" on="0"/>
        <pt x="998" y="1196" on="1"/>
        <pt x="998" y="1303" on="0"/>
        <pt x="936" y="1363" on="1"/>
        <pt x="834" y="1462" on="0"/>
        <pt x="678" y="1476" on="1"/>
        <pt x="448" y="1476" on="1"/>
        <pt x="426" y="1476" on="0"/>
        <pt x="387" y="1441" on="0"/>
      </contour>
    </TTGlyph>
    <TTGlyph name="Q" xMin="80" yMin="-173" xMax="1812" yMax="1672">
      <contour>
        <pt x="212" y="334" on="0"/>
        <pt x="80" y="655" on="0"/>
        <pt x="80" y="998" on="0"/>
        <pt x="219" y="1309" on="0"/>
        <pt x="448" y="1536" on="0"/>
        <pt x="759" y="1672" on="0"/>
        <pt x="1065" y="1672" on="0"/>
        <pt x="1198" y="1632" on="1"/>
        <pt x="1461" y="1553" on="0"/>
        <pt x="1812" y="1122" on="0"/>
        <pt x="1812" y="831" on="1"/>
        <pt x="1812" y="630" on="0"/>
        <pt x="1645" y="272" on="0"/>
        <pt x="1492" y="151" on="1"/>
        <pt x="1552" y="67" on="0"/>
        <pt x="1648" y="51" on="1"/>
        <pt x="1684" y="45" on="0"/>
        <pt x="1762" y="83" on="0"/>
        <pt x="1777" y="83" on="0"/>
        <pt x="1803" y="58" on="0"/>
        <pt x="1810" y="39" on="0"/>
        <pt x="1764" y="-34" on="1"/>
        <pt x="1680" y="-166" on="0"/>
        <pt x="1664" y="-171" on="1"/>
        <pt x="1657" y="-173" on="0"/>
        <pt x="1538" y="-130" on="0"/>
        <pt x="1379" y="-12" on="0"/>
        <pt x="1337" y="53" on="1"/>
        <pt x="1149" y="-37" on="0"/>
        <pt x="750" y="-37" on="0"/>
        <pt x="436" y="101" on="0"/>
      </contour>
      <contour>
        <pt x="743" y="170" on="1"/>
        <pt x="841" y="131" on="0"/>
        <pt x="935" y="131" on="1"/>
        <pt x="1255" y="131" on="0"/>
        <pt x="1634" y="506" on="0"/>
        <pt x="1634" y="822" on="1"/>
        <pt x="1634" y="931" on="0"/>
        <pt x="1523" y="1171" on="0"/>
        <pt x="1337" y="1370" on="0"/>
        <pt x="1068" y="1500" on="0"/>
        <pt x="728" y="1500" on="0"/>
        <pt x="426" y="1328" on="0"/>
        <pt x="262" y="1024" on="0"/>
        <pt x="262" y="623" on="0"/>
        <pt x="555" y="245" on="0"/>
      </contour>
    </TTGlyph>
    <TTGlyph name="Q.Uswash" xMin="80" yMin="-426" xMax="3287" yMax="1672">
      <contour>
        <pt x="1895" y="-275" on="1"/>
        <pt x="1581" y="-77" on="0"/>
        <pt x="1518" y="-41" on="0"/>
        <pt x="1451" y="1" on="1"/>
        <pt x="1355" y="61" on="0"/>
        <pt x="1337" y="53" on="1"/>
        <pt x="1149" y="-37" on="0"/>
        <pt x="750" y="-37" on="0"/>
        <pt x="436" y="101" on="0"/>
        <pt x="212" y="334" on="0"/>
        <pt x="80" y="655" on="0"/>
        <pt x="80" y="998" on="0"/>
        <pt x="219" y="1309" on="0"/>
        <pt x="448" y="1536" on="0"/>
        <pt x="759" y="1672" on="0"/>
        <pt x="1065" y="1672" on="0"/>
        <pt x="1198" y="1632" on="1"/>
        <pt x="1461" y="1553" on="0"/>
        <pt x="1812" y="1122" on="0"/>
        <pt x="1812" y="831" on="1"/>
        <pt x="1812" y="635" on="0"/>
        <pt x="1642" y="260" on="0"/>
        <pt x="1517" y="169" on="1"/>
        <pt x="1518" y="168" on="0"/>
        <pt x="1528" y="153" on="0"/>
        <pt x="1551" y="130" on="0"/>
        <pt x="1672" y="96" on="0"/>
        <pt x="1770" y="40" on="1"/>
        <pt x="1989" y="-84" on="1"/>
        <pt x="2396" y="-314" on="0"/>
        <pt x="2776" y="-314" on="1"/>
        <pt x="3012" y="-314" on="0"/>
        <pt x="3226" y="-194" on="1"/>
        <pt x="3251" y="-180" on="0"/>
        <pt x="3264" y="-180" on="0"/>
        <pt x="3287" y="-202" on="0"/>
        <pt x="3287" y="-211" on="1"/>
        <pt x="3287" y="-246" on="0"/>
        <pt x="3262" y="-258" on="1"/>
        <pt x="3101" y="-340" on="0"/>
        <pt x="2827" y="-426" on="0"/>
        <pt x="2422" y="-426" on="0"/>
        <pt x="2017" y="-351" on="0"/>
      </contour>
      <contour>
        <pt x="743" y="170" on="1"/>
        <pt x="841" y="131" on="0"/>
        <pt x="935" y="131" on="1"/>
        <pt x="1255" y="131" on="0"/>
        <pt x="1634" y="506" on="0"/>
        <pt x="1634" y="822" on="1"/>
        <pt x="1634" y="931" on="0"/>
        <pt x="1523" y="1171" on="0"/>
        <pt x="1337" y="1370" on="0"/>
        <pt x="1068" y="1500" on="0"/>
        <pt x="728" y="1500" on="0"/>
        <pt x="426" y="1328" on="0"/>
        <pt x="262" y="1024" on="0"/>
        <pt x="262" y="623" on="0"/>
        <pt x="555" y="245" on="0"/>
      </contour>
    </TTGlyph>
    <TTGlyph name="Q.uswash" xMin="80" yMin="-422" xMax="2967" yMax="1672">
      <contour>
        <pt x="2946" y="-212" on="1"/>
        <pt x="2967" y="-212" on="0"/>
        <pt x="2967" y="-255" on="0"/>
        <pt x="2932" y="-277" on="1"/>
        <pt x="2677" y="-422" on="0"/>
        <pt x="2007" y="-422" on="0"/>
        <pt x="1740" y="-236" on="1"/>
        <pt x="1715" y="-218" on="0"/>
        <pt x="1509" y="-38" on="0"/>
        <pt x="1365" y="66" on="0"/>
        <pt x="1337" y="53" on="1"/>
        <pt x="1149" y="-37" on="0"/>
        <pt x="750" y="-37" on="0"/>
        <pt x="436" y="101" on="0"/>
        <pt x="212" y="334" on="0"/>
        <pt x="80" y="655" on="0"/>
        <pt x="80" y="998" on="0"/>
        <pt x="219" y="1309" on="0"/>
        <pt x="448" y="1536" on="0"/>
        <pt x="759" y="1672" on="0"/>
        <pt x="1065" y="1672" on="0"/>
        <pt x="1198" y="1632" on="1"/>
        <pt x="1461" y="1553" on="0"/>
        <pt x="1812" y="1122" on="0"/>
        <pt x="1812" y="831" on="1"/>
        <pt x="1812" y="628" on="0"/>
        <pt x="1630" y="247" on="0"/>
        <pt x="1471" y="131" on="1"/>
        <pt x="1509" y="118" on="1"/>
        <pt x="1596" y="88" on="0"/>
        <pt x="1734" y="14" on="0"/>
        <pt x="2037" y="-198" on="0"/>
        <pt x="2346" y="-329" on="0"/>
        <pt x="2729" y="-329" on="0"/>
        <pt x="2921" y="-224" on="1"/>
        <pt x="2943" y="-212" on="0"/>
      </contour>
      <contour>
        <pt x="743" y="170" on="1"/>
        <pt x="841" y="131" on="0"/>
        <pt x="935" y="131" on="1"/>
        <pt x="1255" y="131" on="0"/>
        <pt x="1634" y="506" on="0"/>
        <pt x="1634" y="822" on="1"/>
        <pt x="1634" y="931" on="0"/>
        <pt x="1523" y="1171" on="0"/>
        <pt x="1337" y="1370" on="0"/>
        <pt x="1068" y="1500" on="0"/>
        <pt x="728" y="1500" on="0"/>
        <pt x="426" y="1328" on="0"/>
        <pt x="262" y="1024" on="0"/>
        <pt x="262" y="623" on="0"/>
        <pt x="555" y="245" on="0"/>
      </contour>
    </TTGlyph>
    <TTGlyph name="R" xMin="115" yMin="0" xMax="1403" yMax="1636">
      <contour>
        <pt x="438" y="1474" on="1"/>
        <pt x="417" y="1474" on="0"/>
        <pt x="387" y="1445" on="0"/>
        <pt x="387" y="1424" on="1"/>
        <pt x="387" y="175" on="1"/>
        <pt x="387" y="102" on="0"/>
        <pt x="435" y="54" on="1"/>
        <pt x="439" y="50" on="0"/>
        <pt x="465" y="38" on="0"/>
        <pt x="465" y="0" on="0"/>
        <pt x="452" y="0" on="1"/>
        <pt x="128" y="0" on="1"/>
        <pt x="115" y="0" on="0"/>
        <pt x="115" y="35" on="0"/>
        <pt x="124" y="42" on="0"/>
        <pt x="140" y="49" on="0"/>
        <pt x="165" y="74" on="0"/>
        <pt x="193" y="141" on="0"/>
        <pt x="193" y="175" on="1"/>
        <pt x="193" y="1463" on="1"/>
        <pt x="193" y="1536" on="0"/>
        <pt x="145" y="1584" on="1"/>
        <pt x="141" y="1588" on="0"/>
        <pt x="115" y="1600" on="0"/>
        <pt x="115" y="1636" on="0"/>
        <pt x="128" y="1636" on="1"/>
        <pt x="641" y="1636" on="1"/>
        <pt x="861" y="1634" on="0"/>
        <pt x="1158" y="1449" on="0"/>
        <pt x="1158" y="1241" on="1"/>
        <pt x="1158" y="996" on="0"/>
        <pt x="902" y="882" on="1"/>
        <pt x="808" y="840" on="0"/>
        <pt x="710" y="831" on="0"/>
        <pt x="710" y="828" on="1"/>
        <pt x="742" y="810" on="1"/>
        <pt x="762" y="798" on="0"/>
        <pt x="886" y="700" on="0"/>
        <pt x="1008" y="577" on="0"/>
        <pt x="1176" y="359" on="0"/>
        <pt x="1216" y="290" on="1"/>
        <pt x="1298" y="144" on="1"/>
        <pt x="1343" y="62" on="0"/>
        <pt x="1403" y="46" on="0"/>
        <pt x="1403" y="0" on="0"/>
        <pt x="1390" y="0" on="1"/>
        <pt x="1066" y="0" on="1"/>
        <pt x="1053" y="0" on="0"/>
        <pt x="1053" y="35" on="0"/>
        <pt x="1062" y="42" on="0"/>
        <pt x="1078" y="49" on="0"/>
        <pt x="1089" y="61" on="0"/>
        <pt x="1088" y="96" on="0"/>
        <pt x="1084" y="106" on="1"/>
        <pt x="1011" y="294" on="0"/>
        <pt x="885" y="464" on="1"/>
        <pt x="651" y="780" on="0"/>
        <pt x="482" y="804" on="1"/>
        <pt x="458" y="808" on="0"/>
        <pt x="458" y="809" on="1"/>
        <pt x="456" y="827" on="0"/>
        <pt x="456" y="858" on="1"/>
        <pt x="456" y="919" on="1"/>
        <pt x="456" y="929" on="0"/>
        <pt x="466" y="929" on="1"/>
        <pt x="712" y="929" on="0"/>
        <pt x="850" y="1028" on="1"/>
        <pt x="956" y="1103" on="0"/>
        <pt x="956" y="1357" on="0"/>
        <pt x="752" y="1474" on="0"/>
        <pt x="623" y="1474" on="1"/>
      </contour>
    </TTGlyph>
    <TTGlyph name="R.swash" xMin="115" yMin="0" xMax="1844" yMax="1636">
      <contour>
        <pt x="438" y="1474" on="1"/>
        <pt x="417" y="1474" on="0"/>
        <pt x="387" y="1445" on="0"/>
        <pt x="387" y="1424" on="1"/>
        <pt x="387" y="175" on="1"/>
        <pt x="387" y="102" on="0"/>
        <pt x="435" y="54" on="1"/>
        <pt x="439" y="50" on="0"/>
        <pt x="465" y="38" on="0"/>
        <pt x="465" y="0" on="0"/>
        <pt x="452" y="0" on="1"/>
        <pt x="128" y="0" on="1"/>
        <pt x="115" y="0" on="0"/>
        <pt x="115" y="35" on="0"/>
        <pt x="124" y="42" on="0"/>
        <pt x="140" y="49" on="0"/>
        <pt x="165" y="74" on="0"/>
        <pt x="193" y="141" on="0"/>
        <pt x="193" y="175" on="1"/>
        <pt x="193" y="1463" on="1"/>
        <pt x="193" y="1536" on="0"/>
        <pt x="145" y="1584" on="1"/>
        <pt x="141" y="1588" on="0"/>
        <pt x="115" y="1600" on="0"/>
        <pt x="115" y="1636" on="0"/>
        <pt x="128" y="1636" on="1"/>
        <pt x="641" y="1636" on="1"/>
        <pt x="861" y="1634" on="0"/>
        <pt x="1158" y="1449" on="0"/>
        <pt x="1158" y="1241" on="1"/>
        <pt x="1158" y="1134" on="0"/>
        <pt x="1013" y="970" on="0"/>
        <pt x="854" y="882" on="0"/>
        <pt x="802" y="860" on="1"/>
        <pt x="782" y="852" on="1"/>
        <pt x="970" y="798" on="0"/>
        <pt x="1235" y="644" on="1"/>
        <pt x="1624" y="418" on="0"/>
        <pt x="1788" y="132" on="1"/>
        <pt x="1844" y="35" on="0"/>
        <pt x="1844" y="28" on="1"/>
        <pt x="1844" y="0" on="0"/>
        <pt x="1831" y="0" on="1"/>
        <pt x="1507" y="0" on="1"/>
        <pt x="1494" y="0" on="0"/>
        <pt x="1494" y="35" on="0"/>
        <pt x="1503" y="42" on="0"/>
        <pt x="1519" y="49" on="0"/>
        <pt x="1530" y="61" on="0"/>
        <pt x="1529" y="96" on="0"/>
        <pt x="1525" y="106" on="1"/>
        <pt x="1469" y="243" on="0"/>
        <pt x="1061" y="579" on="0"/>
        <pt x="597" y="808" on="0"/>
        <pt x="458" y="809" on="1"/>
        <pt x="456" y="827" on="0"/>
        <pt x="456" y="868" on="1"/>
        <pt x="456" y="919" on="1"/>
        <pt x="456" y="929" on="0"/>
        <pt x="466" y="929" on="1"/>
        <pt x="712" y="929" on="0"/>
        <pt x="850" y="1028" on="1"/>
        <pt x="956" y="1104" on="0"/>
        <pt x="956" y="1357" on="0"/>
        <pt x="753" y="1474" on="0"/>
        <pt x="623" y="1474" on="1"/>
      </contour>
    </TTGlyph>
    <TTGlyph name="S" xMin="35" yMin="-19" xMax="990" yMax="1643">
      <contour>
        <pt x="342" y="12" on="1"/>
        <pt x="312" y="19" on="0"/>
        <pt x="240" y="42" on="0"/>
        <pt x="230" y="42" on="1"/>
        <pt x="218" y="42" on="1"/>
        <pt x="183" y="42" on="0"/>
        <pt x="164" y="2" on="1"/>
        <pt x="163" y="0" on="0"/>
        <pt x="162" y="0" on="1"/>
        <pt x="133" y="0" on="1"/>
        <pt x="127" y="0" on="0"/>
        <pt x="126" y="5" on="1"/>
        <pt x="40" y="300" on="1"/>
        <pt x="35" y="321" on="0"/>
        <pt x="70" y="321" on="1"/>
        <pt x="84" y="321" on="0"/>
        <pt x="94" y="310" on="0"/>
        <pt x="98" y="306" on="0"/>
        <pt x="105" y="294" on="1"/>
        <pt x="237" y="131" on="0"/>
        <pt x="492" y="131" on="1"/>
        <pt x="626" y="131" on="0"/>
        <pt x="803" y="272" on="0"/>
        <pt x="803" y="409" on="1"/>
        <pt x="803" y="501" on="0"/>
        <pt x="744" y="592" on="0"/>
        <pt x="725" y="615" on="1"/>
        <pt x="685" y="664" on="0"/>
        <pt x="382" y="836" on="0"/>
        <pt x="288" y="904" on="1"/>
        <pt x="48" y="1077" on="0"/>
        <pt x="48" y="1443" on="0"/>
        <pt x="277" y="1643" on="0"/>
        <pt x="466" y="1643" on="1"/>
        <pt x="572" y="1643" on="0"/>
        <pt x="690" y="1586" on="1"/>
        <pt x="746" y="1559" on="0"/>
        <pt x="798" y="1541" on="0"/>
        <pt x="818" y="1580" on="0"/>
        <pt x="820" y="1580" on="1"/>
        <pt x="865" y="1585" on="0"/>
        <pt x="865" y="1566" on="1"/>
        <pt x="895" y="1245" on="1"/>
        <pt x="895" y="1236" on="0"/>
        <pt x="849" y="1236" on="1"/>
        <pt x="842" y="1236" on="0"/>
        <pt x="837" y="1254" on="1"/>
        <pt x="806" y="1356" on="0"/>
        <pt x="578" y="1491" on="0"/>
        <pt x="464" y="1491" on="1"/>
        <pt x="222" y="1491" on="0"/>
        <pt x="222" y="1291" on="1"/>
        <pt x="222" y="1146" on="0"/>
        <pt x="484" y="1002" on="1"/>
        <pt x="674" y="900" on="1"/>
        <pt x="849" y="803" on="0"/>
        <pt x="990" y="578" on="0"/>
        <pt x="990" y="450" on="1"/>
        <pt x="990" y="440" on="1"/>
        <pt x="965" y="268" on="0"/>
        <pt x="930" y="206" on="1"/>
        <pt x="872" y="104" on="0"/>
        <pt x="658" y="-19" on="0"/>
        <pt x="522" y="-19" on="1"/>
        <pt x="447" y="-16" on="0"/>
        <pt x="399" y="-4" on="1"/>
      </contour>
    </TTGlyph>
    <TTGlyph name="T" xMin="25" yMin="0" xMax="1795" yMax="1638">
      <contour>
        <pt x="1707" y="1638" on="1"/>
        <pt x="1717" y="1638" on="0"/>
        <pt x="1731" y="1587" on="0"/>
        <pt x="1749" y="1541" on="1"/>
        <pt x="1749" y="1541" on="0"/>
        <pt x="1781" y="1460" on="1"/>
        <pt x="1795" y="1425" on="0"/>
        <pt x="1795" y="1417" on="0"/>
        <pt x="1766" y="1407" on="0"/>
        <pt x="1762" y="1407" on="1"/>
        <pt x="1755" y="1407" on="0"/>
        <pt x="1734" y="1436" on="0"/>
        <pt x="1683" y="1476" on="0"/>
        <pt x="1570" y="1476" on="1"/>
        <pt x="1007" y="1476" on="1"/>
        <pt x="1007" y="175" on="1"/>
        <pt x="1007" y="102" on="0"/>
        <pt x="1055" y="54" on="1"/>
        <pt x="1059" y="50" on="0"/>
        <pt x="1085" y="38" on="0"/>
        <pt x="1085" y="0" on="0"/>
        <pt x="1072" y="0" on="1"/>
        <pt x="748" y="0" on="1"/>
        <pt x="735" y="0" on="0"/>
        <pt x="735" y="35" on="0"/>
        <pt x="744" y="42" on="0"/>
        <pt x="760" y="49" on="0"/>
        <pt x="785" y="74" on="0"/>
        <pt x="813" y="141" on="0"/>
        <pt x="813" y="175" on="1"/>
        <pt x="813" y="1476" on="1"/>
        <pt x="250" y="1476" on="1"/>
        <pt x="109" y="1476" on="0"/>
        <pt x="80" y="1428" on="1"/>
        <pt x="66" y="1408" on="0"/>
        <pt x="54" y="1407" on="0"/>
        <pt x="25" y="1417" on="0"/>
        <pt x="25" y="1425" on="0"/>
        <pt x="39" y="1460" on="1"/>
        <pt x="71" y="1541" on="1"/>
        <pt x="89" y="1586" on="0"/>
        <pt x="102" y="1633" on="0"/>
        <pt x="113" y="1638" on="1"/>
      </contour>
    </TTGlyph>
    <TTGlyph name="Thorn" xMin="115" yMin="0" xMax="1188" yMax="1638">
      <contour>
        <pt x="128" y="1638" on="1"/>
        <pt x="452" y="1638" on="1"/>
        <pt x="465" y="1638" on="0"/>
        <pt x="465" y="1603" on="0"/>
        <pt x="456" y="1596" on="0"/>
        <pt x="440" y="1589" on="0"/>
        <pt x="415" y="1564" on="0"/>
        <pt x="387" y="1497" on="0"/>
        <pt x="387" y="1463" on="1"/>
        <pt x="387" y="1278" on="1"/>
        <pt x="674" y="1278" on="1"/>
        <pt x="970" y="1278" on="0"/>
        <pt x="1114" y="1085" on="1"/>
        <pt x="1188" y="987" on="0"/>
        <pt x="1188" y="720" on="0"/>
        <pt x="1088" y="562" on="0"/>
        <pt x="1014" y="523" on="1"/>
        <pt x="905" y="467" on="0"/>
        <pt x="684" y="440" on="0"/>
        <pt x="585" y="440" on="1"/>
        <pt x="451" y="440" on="1"/>
        <pt x="438" y="440" on="0"/>
        <pt x="438" y="468" on="1"/>
        <pt x="438" y="552" on="1"/>
        <pt x="438" y="580" on="0"/>
        <pt x="451" y="580" on="1"/>
        <pt x="585" y="580" on="1"/>
        <pt x="891" y="580" on="0"/>
        <pt x="968" y="721" on="1"/>
        <pt x="998" y="776" on="0"/>
        <pt x="998" y="909" on="0"/>
        <pt x="963" y="995" on="0"/>
        <pt x="934" y="1021" on="1"/>
        <pt x="834" y="1113" on="0"/>
        <pt x="678" y="1116" on="1"/>
        <pt x="448" y="1116" on="1"/>
        <pt x="426" y="1116" on="0"/>
        <pt x="387" y="1081" on="0"/>
        <pt x="387" y="1064" on="1"/>
        <pt x="387" y="175" on="1"/>
        <pt x="387" y="102" on="0"/>
        <pt x="435" y="54" on="1"/>
        <pt x="439" y="50" on="0"/>
        <pt x="465" y="38" on="0"/>
        <pt x="465" y="0" on="0"/>
        <pt x="452" y="0" on="1"/>
        <pt x="128" y="0" on="1"/>
        <pt x="115" y="0" on="0"/>
        <pt x="115" y="35" on="0"/>
        <pt x="124" y="42" on="0"/>
        <pt x="140" y="49" on="0"/>
        <pt x="165" y="74" on="0"/>
        <pt x="193" y="141" on="0"/>
        <pt x="193" y="175" on="1"/>
        <pt x="193" y="1463" on="1"/>
        <pt x="193" y="1536" on="0"/>
        <pt x="145" y="1584" on="1"/>
        <pt x="141" y="1588" on="0"/>
        <pt x="115" y="1600" on="0"/>
        <pt x="115" y="1638" on="0"/>
      </contour>
    </TTGlyph>
    <TTGlyph name="U" xMin="115" yMin="-36" xMax="1609" yMax="1638">
      <contour>
        <pt x="195" y="1463" on="1"/>
        <pt x="195" y="1534" on="0"/>
        <pt x="145" y="1584" on="1"/>
        <pt x="141" y="1588" on="0"/>
        <pt x="115" y="1600" on="0"/>
        <pt x="115" y="1638" on="0"/>
        <pt x="128" y="1638" on="1"/>
        <pt x="464" y="1638" on="1"/>
        <pt x="477" y="1638" on="0"/>
        <pt x="477" y="1603" on="0"/>
        <pt x="468" y="1596" on="0"/>
        <pt x="452" y="1589" on="0"/>
        <pt x="427" y="1564" on="0"/>
        <pt x="399" y="1497" on="0"/>
        <pt x="399" y="1463" on="1"/>
        <pt x="399" y="634" on="1"/>
        <pt x="399" y="403" on="0"/>
        <pt x="684" y="148" on="0"/>
        <pt x="890" y="148" on="1"/>
        <pt x="1011" y="148" on="0"/>
        <pt x="1224" y="271" on="0"/>
        <pt x="1349" y="474" on="0"/>
        <pt x="1349" y="588" on="1"/>
        <pt x="1349" y="1463" on="1"/>
        <pt x="1349" y="1536" on="0"/>
        <pt x="1301" y="1584" on="1"/>
        <pt x="1297" y="1588" on="0"/>
        <pt x="1271" y="1600" on="0"/>
        <pt x="1271" y="1638" on="0"/>
        <pt x="1284" y="1638" on="1"/>
        <pt x="1596" y="1638" on="1"/>
        <pt x="1609" y="1638" on="0"/>
        <pt x="1609" y="1603" on="0"/>
        <pt x="1600" y="1596" on="0"/>
        <pt x="1584" y="1589" on="0"/>
        <pt x="1559" y="1564" on="0"/>
        <pt x="1531" y="1497" on="0"/>
        <pt x="1531" y="1463" on="1"/>
        <pt x="1531" y="588" on="1"/>
        <pt x="1531" y="416" on="0"/>
        <pt x="1354" y="128" on="0"/>
        <pt x="1057" y="-36" on="0"/>
        <pt x="696" y="-36" on="0"/>
        <pt x="383" y="132" on="0"/>
        <pt x="195" y="441" on="0"/>
        <pt x="195" y="634" on="1"/>
      </contour>
    </TTGlyph>
    <TTGlyph name="Uacute" xMin="115" yMin="-36" xMax="1609" yMax="2207">
      <component glyphName="acute" x="680" y="761" flags="0x1004"/>
      <component glyphName="U" x="0" y="0" flags="0x1204"/>
    </TTGlyph>
    <TTGlyph name="Ucircumflex" xMin="115" yMin="-36" xMax="1609" yMax="2156">
      <component glyphName="asciicircum" x="508" y="762" flags="0x1004"/>
      <component glyphName="U" x="0" y="0" flags="0x1204"/>
    </TTGlyph>
    <TTGlyph name="Udieresis" xMin="115" yMin="-36" xMax="1609" yMax="2023">
      <component glyphName="dieresis" x="494" y="762" flags="0x1004"/>
      <component glyphName="U" x="0" y="0" flags="0x1204"/>
    </TTGlyph>
    <TTGlyph name="Ugrave" xMin="115" yMin="-36" xMax="1609" yMax="2207">
      <component glyphName="grave" x="430" y="761" flags="0x1004"/>
      <component glyphName="U" x="0" y="0" flags="0x1204"/>
    </TTGlyph>
    <TTGlyph name="V" xMin="25" yMin="0" xMax="1640" yMax="1638">
      <contour>
        <pt x="866" y="330" on="1"/>
        <pt x="1360" y="1460" on="1"/>
        <pt x="1384" y="1529" on="0"/>
        <pt x="1329" y="1584" on="1"/>
        <pt x="1325" y="1588" on="0"/>
        <pt x="1299" y="1600" on="0"/>
        <pt x="1299" y="1638" on="0"/>
        <pt x="1312" y="1638" on="1"/>
        <pt x="1627" y="1638" on="1"/>
        <pt x="1640" y="1638" on="0"/>
        <pt x="1640" y="1603" on="0"/>
        <pt x="1631" y="1596" on="0"/>
        <pt x="1623" y="1592" on="1"/>
        <pt x="1590" y="1577" on="0"/>
        <pt x="1550" y="1485" on="1"/>
        <pt x="892" y="12" on="1"/>
        <pt x="887" y="0" on="0"/>
        <pt x="799" y="0" on="0"/>
        <pt x="793" y="12" on="1"/>
        <pt x="642" y="322" on="1"/>
        <pt x="380" y="888" on="1"/>
        <pt x="115" y="1485" on="1"/>
        <pt x="76" y="1576" on="0"/>
        <pt x="38" y="1594" on="1"/>
        <pt x="25" y="1600" on="0"/>
        <pt x="25" y="1638" on="0"/>
        <pt x="38" y="1638" on="1"/>
        <pt x="400" y="1638" on="1"/>
        <pt x="413" y="1638" on="0"/>
        <pt x="413" y="1603" on="0"/>
        <pt x="404" y="1596" on="0"/>
        <pt x="388" y="1589" on="0"/>
        <pt x="383" y="1584" on="1"/>
        <pt x="328" y="1529" on="0"/>
        <pt x="352" y="1460" on="1"/>
        <pt x="859" y="330" on="1"/>
      </contour>
    </TTGlyph>
    <TTGlyph name="W" xMin="25" yMin="0" xMax="2861" yMax="1638">
      <contour>
        <pt x="1447" y="1365" on="1"/>
        <pt x="1439" y="1365" on="1"/>
        <pt x="1357" y="1172" on="0"/>
        <pt x="1002" y="258" on="0"/>
        <pt x="892" y="12" on="1"/>
        <pt x="887" y="0" on="0"/>
        <pt x="799" y="0" on="0"/>
        <pt x="793" y="12" on="1"/>
        <pt x="793" y="12" on="0"/>
        <pt x="642" y="322" on="1"/>
        <pt x="380" y="888" on="1"/>
        <pt x="380" y="888" on="0"/>
        <pt x="115" y="1485" on="1"/>
        <pt x="76" y="1576" on="0"/>
        <pt x="38" y="1594" on="1"/>
        <pt x="25" y="1600" on="0"/>
        <pt x="25" y="1638" on="0"/>
        <pt x="38" y="1638" on="1"/>
        <pt x="400" y="1638" on="1"/>
        <pt x="413" y="1638" on="0"/>
        <pt x="413" y="1603" on="0"/>
        <pt x="404" y="1596" on="0"/>
        <pt x="388" y="1589" on="0"/>
        <pt x="383" y="1584" on="1"/>
        <pt x="328" y="1529" on="0"/>
        <pt x="352" y="1460" on="1"/>
        <pt x="859" y="330" on="1"/>
        <pt x="866" y="330" on="1"/>
        <pt x="1301" y="1460" on="1"/>
        <pt x="1303" y="1467" on="0"/>
        <pt x="1315" y="1499" on="0"/>
        <pt x="1319" y="1512" on="0"/>
        <pt x="1327" y="1536" on="0"/>
        <pt x="1327" y="1542" on="1"/>
        <pt x="1327" y="1558" on="1"/>
        <pt x="1327" y="1581" on="0"/>
        <pt x="1285" y="1600" on="0"/>
        <pt x="1285" y="1610" on="1"/>
        <pt x="1285" y="1638" on="0"/>
        <pt x="1298" y="1638" on="1"/>
        <pt x="1629" y="1638" on="1"/>
        <pt x="1642" y="1638" on="0"/>
        <pt x="1642" y="1603" on="0"/>
        <pt x="1633" y="1596" on="0"/>
        <pt x="1617" y="1589" on="0"/>
        <pt x="1604" y="1576" on="0"/>
        <pt x="1599" y="1558" on="0"/>
        <pt x="1602" y="1544" on="1"/>
        <pt x="1605" y="1524" on="0"/>
        <pt x="1618" y="1492" on="1"/>
        <pt x="1630" y="1460" on="1"/>
        <pt x="2137" y="330" on="1"/>
        <pt x="2144" y="330" on="1"/>
        <pt x="2581" y="1460" on="1"/>
        <pt x="2605" y="1529" on="0"/>
        <pt x="2550" y="1584" on="1"/>
        <pt x="2546" y="1588" on="0"/>
        <pt x="2520" y="1600" on="0"/>
        <pt x="2520" y="1638" on="0"/>
        <pt x="2533" y="1638" on="1"/>
        <pt x="2848" y="1638" on="1"/>
        <pt x="2861" y="1638" on="0"/>
        <pt x="2861" y="1603" on="0"/>
        <pt x="2852" y="1596" on="0"/>
        <pt x="2844" y="1592" on="1"/>
        <pt x="2811" y="1577" on="0"/>
        <pt x="2771" y="1485" on="1"/>
        <pt x="2663" y="1242" on="0"/>
        <pt x="2281" y="261" on="0"/>
        <pt x="2170" y="12" on="1"/>
        <pt x="2165" y="0" on="0"/>
        <pt x="2077" y="0" on="0"/>
        <pt x="2071" y="12" on="1"/>
        <pt x="1843" y="484" on="1"/>
      </contour>
    </TTGlyph>
    <TTGlyph name="X" xMin="25" yMin="0" xMax="1650" yMax="1638">
      <contour>
        <pt x="945" y="829" on="1"/>
        <pt x="1522" y="153" on="1"/>
        <pt x="1550" y="115" on="0"/>
        <pt x="1618" y="56" on="0"/>
        <pt x="1624" y="50" on="0"/>
        <pt x="1650" y="38" on="0"/>
        <pt x="1650" y="0" on="0"/>
        <pt x="1637" y="0" on="1"/>
        <pt x="1275" y="0" on="1"/>
        <pt x="1262" y="0" on="0"/>
        <pt x="1262" y="35" on="0"/>
        <pt x="1271" y="42" on="0"/>
        <pt x="1279" y="46" on="1"/>
        <pt x="1316" y="62" on="0"/>
        <pt x="1305" y="127" on="0"/>
        <pt x="1267" y="178" on="1"/>
        <pt x="844" y="675" on="1"/>
        <pt x="401" y="178" on="1"/>
        <pt x="336" y="97" on="0"/>
        <pt x="341" y="64" on="0"/>
        <pt x="355" y="50" on="0"/>
        <pt x="381" y="38" on="0"/>
        <pt x="381" y="0" on="0"/>
        <pt x="368" y="0" on="1"/>
        <pt x="53" y="0" on="1"/>
        <pt x="40" y="0" on="0"/>
        <pt x="40" y="35" on="0"/>
        <pt x="49" y="42" on="0"/>
        <pt x="65" y="49" on="0"/>
        <pt x="71" y="55" on="0"/>
        <pt x="138" y="105" on="0"/>
        <pt x="177" y="153" on="1"/>
        <pt x="737" y="800" on="1"/>
        <pt x="153" y="1485" on="1"/>
        <pt x="125" y="1523" on="0"/>
        <pt x="57" y="1582" on="0"/>
        <pt x="51" y="1588" on="0"/>
        <pt x="25" y="1600" on="0"/>
        <pt x="25" y="1638" on="0"/>
        <pt x="38" y="1638" on="1"/>
        <pt x="400" y="1638" on="1"/>
        <pt x="413" y="1638" on="0"/>
        <pt x="413" y="1603" on="0"/>
        <pt x="404" y="1596" on="0"/>
        <pt x="396" y="1592" on="1"/>
        <pt x="359" y="1576" on="0"/>
        <pt x="370" y="1511" on="0"/>
        <pt x="408" y="1460" on="1"/>
        <pt x="838" y="955" on="1"/>
        <pt x="1274" y="1460" on="1"/>
        <pt x="1339" y="1541" on="0"/>
        <pt x="1334" y="1574" on="0"/>
        <pt x="1320" y="1588" on="0"/>
        <pt x="1294" y="1600" on="0"/>
        <pt x="1294" y="1638" on="0"/>
        <pt x="1307" y="1638" on="1"/>
        <pt x="1622" y="1638" on="1"/>
        <pt x="1635" y="1638" on="0"/>
        <pt x="1635" y="1603" on="0"/>
        <pt x="1626" y="1596" on="0"/>
        <pt x="1610" y="1589" on="0"/>
        <pt x="1604" y="1583" on="0"/>
        <pt x="1537" y="1533" on="0"/>
        <pt x="1498" y="1485" on="1"/>
      </contour>
    </TTGlyph>
    <TTGlyph name="Y" xMin="25" yMin="0" xMax="1671" yMax="1638">
      <contour>
        <pt x="744" y="691" on="1"/>
        <pt x="153" y="1485" on="1"/>
        <pt x="125" y="1523" on="0"/>
        <pt x="57" y="1582" on="0"/>
        <pt x="51" y="1588" on="0"/>
        <pt x="25" y="1600" on="0"/>
        <pt x="25" y="1638" on="0"/>
        <pt x="38" y="1638" on="1"/>
        <pt x="400" y="1638" on="1"/>
        <pt x="413" y="1638" on="0"/>
        <pt x="413" y="1603" on="0"/>
        <pt x="404" y="1596" on="0"/>
        <pt x="396" y="1592" on="1"/>
        <pt x="359" y="1576" on="0"/>
        <pt x="370" y="1511" on="0"/>
        <pt x="408" y="1460" on="1"/>
        <pt x="849" y="870" on="1"/>
        <pt x="857" y="870" on="1"/>
        <pt x="1310" y="1460" on="1"/>
        <pt x="1375" y="1541" on="0"/>
        <pt x="1370" y="1574" on="0"/>
        <pt x="1356" y="1588" on="0"/>
        <pt x="1330" y="1600" on="0"/>
        <pt x="1330" y="1638" on="0"/>
        <pt x="1343" y="1638" on="1"/>
        <pt x="1658" y="1638" on="1"/>
        <pt x="1671" y="1638" on="0"/>
        <pt x="1671" y="1603" on="0"/>
        <pt x="1662" y="1596" on="0"/>
        <pt x="1646" y="1589" on="0"/>
        <pt x="1640" y="1583" on="0"/>
        <pt x="1627" y="1574" on="1"/>
        <pt x="1600" y="1553" on="1"/>
        <pt x="1560" y="1521" on="0"/>
        <pt x="1534" y="1485" on="1"/>
        <pt x="950" y="727" on="1"/>
        <pt x="950" y="175" on="1"/>
        <pt x="950" y="102" on="0"/>
        <pt x="998" y="54" on="1"/>
        <pt x="1002" y="50" on="0"/>
        <pt x="1028" y="38" on="0"/>
        <pt x="1028" y="0" on="0"/>
        <pt x="1015" y="0" on="1"/>
        <pt x="678" y="0" on="1"/>
        <pt x="665" y="0" on="0"/>
        <pt x="665" y="35" on="0"/>
        <pt x="674" y="42" on="0"/>
        <pt x="690" y="49" on="0"/>
        <pt x="716" y="75" on="0"/>
        <pt x="744" y="141" on="0"/>
        <pt x="744" y="175" on="1"/>
      </contour>
    </TTGlyph>
    <TTGlyph name="Y.swash" xMin="23" yMin="0" xMax="1671" yMax="1638">
      <contour>
        <pt x="744" y="695" on="1"/>
        <pt x="744" y="721" on="0"/>
        <pt x="631" y="962" on="0"/>
        <pt x="409" y="1307" on="0"/>
        <pt x="293" y="1418" on="1"/>
        <pt x="253" y="1456" on="0"/>
        <pt x="184" y="1502" on="1"/>
        <pt x="69" y="1575" on="1"/>
        <pt x="23" y="1603" on="0"/>
        <pt x="23" y="1610" on="1"/>
        <pt x="23" y="1638" on="0"/>
        <pt x="36" y="1638" on="1"/>
        <pt x="179" y="1638" on="0"/>
        <pt x="343" y="1540" on="1"/>
        <pt x="438" y="1482" on="0"/>
        <pt x="592" y="1314" on="1"/>
        <pt x="665" y="1234" on="0"/>
        <pt x="724" y="1142" on="1"/>
        <pt x="843" y="953" on="1"/>
        <pt x="863" y="953" on="1"/>
        <pt x="867" y="959" on="0"/>
        <pt x="895" y="1006" on="1"/>
        <pt x="940" y="1080" on="1"/>
        <pt x="1006" y="1184" on="0"/>
        <pt x="1049" y="1239" on="1"/>
        <pt x="1138" y="1348" on="1"/>
        <pt x="1211" y="1433" on="0"/>
        <pt x="1375" y="1558" on="0"/>
        <pt x="1426" y="1582" on="1"/>
        <pt x="1544" y="1638" on="0"/>
        <pt x="1658" y="1638" on="1"/>
        <pt x="1671" y="1638" on="0"/>
        <pt x="1671" y="1610" on="1"/>
        <pt x="1671" y="1603" on="0"/>
        <pt x="1625" y="1575" on="1"/>
        <pt x="1510" y="1502" on="1"/>
        <pt x="1441" y="1456" on="0"/>
        <pt x="1401" y="1418" on="1"/>
        <pt x="1285" y="1307" on="0"/>
        <pt x="1063" y="962" on="0"/>
        <pt x="950" y="721" on="0"/>
        <pt x="950" y="695" on="1"/>
        <pt x="950" y="175" on="1"/>
        <pt x="950" y="102" on="0"/>
        <pt x="998" y="54" on="1"/>
        <pt x="1002" y="50" on="0"/>
        <pt x="1028" y="38" on="0"/>
        <pt x="1028" y="0" on="0"/>
        <pt x="1015" y="0" on="1"/>
        <pt x="678" y="0" on="1"/>
        <pt x="665" y="0" on="0"/>
        <pt x="665" y="35" on="0"/>
        <pt x="674" y="42" on="0"/>
        <pt x="690" y="49" on="0"/>
        <pt x="716" y="75" on="0"/>
        <pt x="744" y="141" on="0"/>
        <pt x="744" y="175" on="1"/>
      </contour>
    </TTGlyph>
    <TTGlyph name="Yacute" xMin="25" yMin="0" xMax="1671" yMax="2207">
      <component glyphName="acute" x="666" y="761" flags="0x1004"/>
      <component glyphName="Y" x="0" y="0" flags="0x1204"/>
    </TTGlyph>
    <TTGlyph name="Z" xMin="68" yMin="0" xMax="1364" yMax="1638">
      <contour>
        <pt x="1309" y="1638" on="1"/>
        <pt x="1364" y="1638" on="0"/>
        <pt x="1364" y="1592" on="1"/>
        <pt x="1364" y="1572" on="0"/>
        <pt x="1352" y="1555" on="1"/>
        <pt x="398" y="202" on="1"/>
        <pt x="387" y="191" on="0"/>
        <pt x="399" y="165" on="0"/>
        <pt x="428" y="165" on="1"/>
        <pt x="1126" y="165" on="1"/>
        <pt x="1239" y="165" on="0"/>
        <pt x="1290" y="204" on="0"/>
        <pt x="1310" y="234" on="0"/>
        <pt x="1322" y="234" on="0"/>
        <pt x="1351" y="224" on="0"/>
        <pt x="1351" y="216" on="0"/>
        <pt x="1337" y="180" on="1"/>
        <pt x="1305" y="98" on="1"/>
        <pt x="1287" y="51" on="0"/>
        <pt x="1274" y="2" on="0"/>
        <pt x="1270" y="0" on="0"/>
        <pt x="1263" y="0" on="1"/>
        <pt x="112" y="3" on="1"/>
        <pt x="68" y="3" on="0"/>
        <pt x="68" y="68" on="1"/>
        <pt x="68" y="82" on="0"/>
        <pt x="89" y="111" on="1"/>
        <pt x="1008" y="1413" on="1"/>
        <pt x="1050" y="1476" on="0"/>
        <pt x="998" y="1476" on="1"/>
        <pt x="369" y="1476" on="1"/>
        <pt x="256" y="1476" on="0"/>
        <pt x="222" y="1450" on="1"/>
        <pt x="204" y="1438" on="0"/>
        <pt x="184" y="1408" on="0"/>
        <pt x="173" y="1407" on="0"/>
        <pt x="144" y="1417" on="0"/>
        <pt x="144" y="1426" on="0"/>
        <pt x="158" y="1460" on="1"/>
        <pt x="190" y="1540" on="1"/>
        <pt x="208" y="1586" on="0"/>
        <pt x="222" y="1634" on="0"/>
        <pt x="232" y="1638" on="1"/>
      </contour>
    </TTGlyph>
    <TTGlyph name="a" xMin="52" yMin="-21" xMax="1073" yMax="973">
      <contour>
        <pt x="212" y="253" on="1"/>
        <pt x="212" y="186" on="0"/>
        <pt x="328" y="119" on="0"/>
        <pt x="448" y="119" on="0"/>
        <pt x="507" y="129" on="0"/>
        <pt x="538" y="142" on="1"/>
        <pt x="596" y="166" on="0"/>
        <pt x="641" y="192" on="1"/>
        <pt x="641" y="192" on="0"/>
        <pt x="688" y="218" on="1"/>
        <pt x="630" y="484" on="1"/>
        <pt x="594" y="470" on="0"/>
        <pt x="541" y="453" on="1"/>
        <pt x="445" y="423" on="1"/>
        <pt x="212" y="353" on="0"/>
      </contour>
      <contour>
        <pt x="611" y="587" on="1"/>
        <pt x="581" y="861" on="0"/>
        <pt x="452" y="861" on="1"/>
        <pt x="373" y="861" on="0"/>
        <pt x="256" y="748" on="0"/>
        <pt x="256" y="672" on="1"/>
        <pt x="265" y="631" on="1"/>
        <pt x="265" y="623" on="0"/>
        <pt x="226" y="589" on="0"/>
        <pt x="219" y="595" on="1"/>
        <pt x="103" y="744" on="1"/>
        <pt x="103" y="757" on="0"/>
        <pt x="148" y="789" on="0"/>
        <pt x="164" y="805" on="1"/>
        <pt x="188" y="828" on="1"/>
        <pt x="240" y="880" on="0"/>
        <pt x="261" y="894" on="1"/>
        <pt x="310" y="926" on="1"/>
        <pt x="382" y="973" on="0"/>
        <pt x="470" y="973" on="1"/>
        <pt x="599" y="973" on="0"/>
        <pt x="666" y="903" on="1"/>
        <pt x="712" y="855" on="0"/>
        <pt x="748" y="762" on="0"/>
        <pt x="756" y="733" on="1"/>
        <pt x="773" y="671" on="0"/>
        <pt x="784" y="589" on="1"/>
        <pt x="795" y="512" on="1"/>
        <pt x="801" y="466" on="0"/>
        <pt x="814" y="386" on="0"/>
        <pt x="818" y="357" on="0"/>
        <pt x="834" y="284" on="0"/>
        <pt x="841" y="260" on="1"/>
        <pt x="862" y="189" on="0"/>
        <pt x="918" y="118" on="0"/>
        <pt x="987" y="118" on="0"/>
        <pt x="1001" y="138" on="1"/>
        <pt x="1027" y="176" on="0"/>
        <pt x="1039" y="176" on="1"/>
        <pt x="1045" y="176" on="0"/>
        <pt x="1073" y="148" on="0"/>
        <pt x="1073" y="134" on="0"/>
        <pt x="1010" y="55" on="0"/>
        <pt x="931" y="-21" on="0"/>
        <pt x="914" y="-21" on="1"/>
        <pt x="850" y="-21" on="0"/>
        <pt x="735" y="80" on="0"/>
        <pt x="722" y="136" on="1"/>
        <pt x="689" y="106" on="0"/>
        <pt x="610" y="63" on="1"/>
        <pt x="454" y="-21" on="0"/>
        <pt x="266" y="-21" on="0"/>
        <pt x="137" y="33" on="0"/>
        <pt x="52" y="145" on="0"/>
        <pt x="52" y="267" on="0"/>
        <pt x="86" y="349" on="0"/>
        <pt x="140" y="408" on="0"/>
        <pt x="220" y="459" on="0"/>
        <pt x="261" y="476" on="1"/>
        <pt x="347" y="511" on="0"/>
        <pt x="556" y="566" on="0"/>
      </contour>
    </TTGlyph>
    <TTGlyph name="aacute" xMin="52" yMin="-21" xMax="1073" yMax="1508">
      <component glyphName="acute" x="288" y="62" flags="0x1004"/>
      <component glyphName="a" x="0" y="0" flags="0x1204"/>
    </TTGlyph>
    <TTGlyph name="abreve" xMin="52" yMin="-21" xMax="1073" yMax="1411">
      <component glyphName="breve" x="98" y="64" flags="0x1004"/>
      <component glyphName="a" x="0" y="0" flags="0x1204"/>
    </TTGlyph>
    <TTGlyph name="acircumflex" xMin="52" yMin="-21" xMax="1073" yMax="1458">
      <component glyphName="asciicircum" x="116" y="64" flags="0x1004"/>
      <component glyphName="a" x="0" y="0" flags="0x1204"/>
    </TTGlyph>
    <TTGlyph name="acute" xMin="118" yMin="1019" xMax="441" yMax="1446">
      <contour>
        <pt x="286" y="1435" on="1"/>
        <pt x="299" y="1446" on="0"/>
        <pt x="312" y="1435" on="1"/>
        <pt x="430" y="1364" on="1"/>
        <pt x="441" y="1348" on="0"/>
        <pt x="430" y="1333" on="1"/>
        <pt x="430" y="1333" on="0"/>
        <pt x="364" y="1262" on="1"/>
        <pt x="182" y="1044" on="1"/>
        <pt x="160" y="1019" on="0"/>
        <pt x="124" y="1058" on="1"/>
        <pt x="118" y="1064" on="0"/>
        <pt x="125" y="1074" on="1"/>
      </contour>
    </TTGlyph>
    <TTGlyph name="adieresis" xMin="52" yMin="-21" xMax="1073" yMax="1325">
      <component glyphName="dieresis" x="102" y="64" flags="0x1004"/>
      <component glyphName="a" x="0" y="0" flags="0x1204"/>
    </TTGlyph>
    <TTGlyph name="ae" xMin="52" yMin="-21" xMax="1570" yMax="974">
      <contour>
        <pt x="212" y="253" on="1"/>
        <pt x="212" y="186" on="0"/>
        <pt x="328" y="119" on="0"/>
        <pt x="448" y="119" on="0"/>
        <pt x="507" y="129" on="0"/>
        <pt x="538" y="142" on="1"/>
        <pt x="596" y="166" on="0"/>
        <pt x="641" y="192" on="1"/>
        <pt x="641" y="192" on="0"/>
        <pt x="688" y="218" on="1"/>
        <pt x="630" y="484" on="1"/>
        <pt x="594" y="470" on="0"/>
        <pt x="541" y="453" on="1"/>
        <pt x="445" y="423" on="1"/>
        <pt x="212" y="353" on="0"/>
      </contour>
      <contour>
        <pt x="256" y="672" on="1"/>
        <pt x="265" y="631" on="1"/>
        <pt x="265" y="623" on="0"/>
        <pt x="226" y="589" on="0"/>
        <pt x="219" y="595" on="1"/>
        <pt x="103" y="744" on="1"/>
        <pt x="103" y="757" on="0"/>
        <pt x="148" y="789" on="0"/>
        <pt x="174" y="814" on="1"/>
        <pt x="218" y="858" on="1"/>
        <pt x="283" y="920" on="0"/>
        <pt x="398" y="973" on="0"/>
        <pt x="489" y="973" on="1"/>
        <pt x="670" y="973" on="0"/>
        <pt x="741" y="777" on="1"/>
        <pt x="809" y="871" on="0"/>
        <pt x="1026" y="974" on="0"/>
        <pt x="1162" y="974" on="1"/>
        <pt x="1352" y="974" on="0"/>
        <pt x="1497" y="800" on="1"/>
        <pt x="1570" y="712" on="0"/>
        <pt x="1570" y="660" on="1"/>
        <pt x="816" y="387" on="1"/>
        <pt x="859" y="270" on="0"/>
        <pt x="1064" y="135" on="0"/>
        <pt x="1193" y="135" on="1"/>
        <pt x="1359" y="135" on="0"/>
        <pt x="1494" y="290" on="1"/>
        <pt x="1509" y="305" on="0"/>
        <pt x="1556" y="269" on="1"/>
        <pt x="1559" y="267" on="0"/>
        <pt x="1555" y="260" on="1"/>
        <pt x="1487" y="134" on="0"/>
        <pt x="1270" y="-18" on="0"/>
        <pt x="1147" y="-18" on="1"/>
        <pt x="906" y="-18" on="0"/>
        <pt x="754" y="166" on="1"/>
        <pt x="708" y="118" on="0"/>
        <pt x="629" y="71" on="1"/>
        <pt x="476" y="-21" on="0"/>
        <pt x="179" y="-21" on="0"/>
        <pt x="94" y="92" on="1"/>
        <pt x="52" y="148" on="0"/>
        <pt x="52" y="266" on="0"/>
        <pt x="86" y="347" on="0"/>
        <pt x="141" y="406" on="0"/>
        <pt x="221" y="457" on="0"/>
        <pt x="262" y="474" on="1"/>
        <pt x="354" y="512" on="0"/>
        <pt x="557" y="566" on="0"/>
        <pt x="611" y="587" on="1"/>
        <pt x="581" y="861" on="0"/>
        <pt x="452" y="861" on="1"/>
        <pt x="374" y="861" on="0"/>
        <pt x="256" y="747" on="0"/>
      </contour>
      <contour>
        <pt x="1361" y="695" on="1"/>
        <pt x="1302" y="864" on="0"/>
        <pt x="1106" y="864" on="1"/>
        <pt x="1019" y="864" on="0"/>
        <pt x="872" y="770" on="0"/>
        <pt x="790" y="622" on="0"/>
        <pt x="790" y="492" on="0"/>
        <pt x="794" y="493" on="1"/>
        <pt x="1359" y="690" on="1"/>
        <pt x="1359" y="696" on="1"/>
      </contour>
    </TTGlyph>
    <TTGlyph name="agrave" xMin="52" yMin="-21" xMax="1073" yMax="1508">
      <component glyphName="grave" x="38" y="62" flags="0x1004"/>
      <component glyphName="a" x="0" y="0" flags="0x1204"/>
    </TTGlyph>
    <TTGlyph name="amacron" xMin="52" yMin="-21" xMax="1073" yMax="1246">
      <component glyphName="macron" x="44" y="64" flags="0x1004"/>
      <component glyphName="a" x="0" y="0" flags="0x1204"/>
    </TTGlyph>
    <TTGlyph name="ampersand" xMin="80" yMin="-36" xMax="1688" yMax="1675">
      <contour>
        <pt x="767" y="1049" on="1"/>
        <pt x="767" y="1021" on="0"/>
        <pt x="754" y="1021" on="1"/>
        <pt x="634" y="1021" on="1"/>
        <pt x="517" y="1021" on="0"/>
        <pt x="412" y="945" on="1"/>
        <pt x="229" y="812" on="0"/>
        <pt x="228" y="592" on="1"/>
        <pt x="228" y="502" on="0"/>
        <pt x="318" y="333" on="0"/>
        <pt x="460" y="212" on="0"/>
        <pt x="643" y="139" on="0"/>
        <pt x="793" y="139" on="0"/>
        <pt x="897" y="171" on="0"/>
        <pt x="970" y="223" on="0"/>
        <pt x="1000" y="258" on="1"/>
        <pt x="1051" y="318" on="0"/>
        <pt x="1100" y="467" on="0"/>
        <pt x="1099" y="552" on="0"/>
        <pt x="1061" y="556" on="1"/>
        <pt x="723" y="556" on="1"/>
        <pt x="610" y="556" on="0"/>
        <pt x="559" y="517" on="0"/>
        <pt x="538" y="487" on="0"/>
        <pt x="527" y="487" on="0"/>
        <pt x="498" y="497" on="0"/>
        <pt x="498" y="505" on="0"/>
        <pt x="512" y="536" on="1"/>
        <pt x="544" y="610" on="1"/>
        <pt x="562" y="652" on="0"/>
        <pt x="576" y="701" on="0"/>
        <pt x="586" y="704" on="1"/>
        <pt x="1514" y="704" on="1"/>
        <pt x="1586" y="704" on="0"/>
        <pt x="1634" y="752" on="1"/>
        <pt x="1638" y="756" on="0"/>
        <pt x="1651" y="782" on="0"/>
        <pt x="1688" y="782" on="0"/>
        <pt x="1688" y="768" on="1"/>
        <pt x="1671" y="651" on="0"/>
        <pt x="1645" y="581" on="1"/>
        <pt x="1636" y="558" on="0"/>
        <pt x="1609" y="556" on="1"/>
        <pt x="1549" y="552" on="0"/>
        <pt x="1343" y="563" on="0"/>
        <pt x="1237" y="551" on="0"/>
        <pt x="1237" y="520" on="1"/>
        <pt x="1237" y="381" on="0"/>
        <pt x="1158" y="232" on="1"/>
        <pt x="1016" y="-36" on="0"/>
        <pt x="678" y="-36" on="1"/>
        <pt x="571" y="-36" on="0"/>
        <pt x="345" y="52" on="0"/>
        <pt x="178" y="208" on="0"/>
        <pt x="80" y="437" on="0"/>
        <pt x="80" y="652" on="0"/>
        <pt x="100" y="724" on="1"/>
        <pt x="136" y="854" on="0"/>
        <pt x="290" y="1018" on="0"/>
        <pt x="390" y="1086" on="1"/>
        <pt x="390" y="1092" on="1"/>
        <pt x="298" y="1164" on="0"/>
        <pt x="246" y="1269" on="0"/>
        <pt x="246" y="1340" on="1"/>
        <pt x="246" y="1489" on="0"/>
        <pt x="433" y="1675" on="0"/>
        <pt x="575" y="1675" on="1"/>
        <pt x="625" y="1675" on="0"/>
        <pt x="700" y="1648" on="1"/>
        <pt x="715" y="1642" on="0"/>
        <pt x="751" y="1666" on="0"/>
        <pt x="792" y="1666" on="0"/>
        <pt x="802" y="1647" on="1"/>
        <pt x="806" y="1644" on="0"/>
        <pt x="805" y="1626" on="1"/>
        <pt x="804" y="1603" on="0"/>
        <pt x="829" y="1493" on="1"/>
        <pt x="854" y="1384" on="1"/>
        <pt x="864" y="1340" on="0"/>
        <pt x="864" y="1328" on="1"/>
        <pt x="864" y="1322" on="0"/>
        <pt x="813" y="1297" on="0"/>
        <pt x="809" y="1304" on="1"/>
        <pt x="743" y="1449" on="1"/>
        <pt x="693" y="1537" on="0"/>
        <pt x="498" y="1537" on="0"/>
        <pt x="394" y="1434" on="0"/>
        <pt x="394" y="1343" on="1"/>
        <pt x="394" y="1292" on="0"/>
        <pt x="430" y="1248" on="1"/>
        <pt x="505" y="1157" on="0"/>
        <pt x="634" y="1157" on="1"/>
        <pt x="754" y="1157" on="1"/>
        <pt x="767" y="1157" on="0"/>
        <pt x="767" y="1129" on="1"/>
      </contour>
    </TTGlyph>
    <TTGlyph name="aogonek" xMin="53" yMin="-422" xMax="1074" yMax="973">
      <contour>
        <pt x="213" y="253" on="1"/>
        <pt x="213" y="186" on="0"/>
        <pt x="328" y="119" on="0"/>
        <pt x="448" y="119" on="0"/>
        <pt x="507" y="129" on="0"/>
        <pt x="538" y="142" on="1"/>
        <pt x="596" y="166" on="0"/>
        <pt x="641" y="192" on="1"/>
        <pt x="689" y="218" on="1"/>
        <pt x="631" y="484" on="1"/>
        <pt x="595" y="470" on="0"/>
        <pt x="541" y="453" on="1"/>
        <pt x="445" y="423" on="1"/>
        <pt x="278" y="373" on="0"/>
        <pt x="232" y="311" on="1"/>
        <pt x="213" y="284" on="0"/>
      </contour>
      <contour>
        <pt x="612" y="587" on="1"/>
        <pt x="582" y="861" on="0"/>
        <pt x="453" y="861" on="1"/>
        <pt x="374" y="861" on="0"/>
        <pt x="257" y="748" on="0"/>
        <pt x="257" y="672" on="1"/>
        <pt x="266" y="631" on="1"/>
        <pt x="266" y="623" on="0"/>
        <pt x="226" y="589" on="0"/>
        <pt x="220" y="595" on="1"/>
        <pt x="104" y="744" on="1"/>
        <pt x="104" y="757" on="0"/>
        <pt x="148" y="789" on="0"/>
        <pt x="164" y="805" on="1"/>
        <pt x="188" y="828" on="1"/>
        <pt x="240" y="880" on="0"/>
        <pt x="261" y="894" on="1"/>
        <pt x="310" y="926" on="1"/>
        <pt x="382" y="973" on="0"/>
        <pt x="471" y="973" on="1"/>
        <pt x="600" y="973" on="0"/>
        <pt x="667" y="903" on="1"/>
        <pt x="713" y="855" on="0"/>
        <pt x="748" y="762" on="0"/>
        <pt x="756" y="733" on="1"/>
        <pt x="771" y="677" on="0"/>
        <pt x="784" y="589" on="1"/>
        <pt x="795" y="512" on="1"/>
        <pt x="801" y="466" on="0"/>
        <pt x="814" y="386" on="0"/>
        <pt x="818" y="357" on="0"/>
        <pt x="834" y="284" on="0"/>
        <pt x="841" y="260" on="1"/>
        <pt x="883" y="118" on="0"/>
        <pt x="958" y="118" on="1"/>
        <pt x="988" y="118" on="0"/>
        <pt x="1027" y="176" on="0"/>
        <pt x="1040" y="176" on="1"/>
        <pt x="1046" y="176" on="0"/>
        <pt x="1074" y="148" on="0"/>
        <pt x="1074" y="132" on="0"/>
        <pt x="973" y="15" on="0"/>
        <pt x="940" y="-9" on="1"/>
        <pt x="941" y="-10" on="1"/>
        <pt x="1013" y="-132" on="1"/>
        <pt x="1016" y="-141" on="0"/>
        <pt x="1011" y="-164" on="0"/>
        <pt x="1006" y="-164" on="1"/>
        <pt x="974" y="-153" on="0"/>
        <pt x="904" y="-141" on="0"/>
        <pt x="839" y="-184" on="0"/>
        <pt x="823" y="-275" on="0"/>
        <pt x="873" y="-335" on="0"/>
        <pt x="913" y="-342" on="1"/>
        <pt x="986" y="-355" on="0"/>
        <pt x="1036" y="-288" on="1"/>
        <pt x="1037" y="-286" on="0"/>
        <pt x="1065" y="-293" on="0"/>
        <pt x="1065" y="-301" on="1"/>
        <pt x="1056" y="-349" on="0"/>
        <pt x="955" y="-422" on="0"/>
        <pt x="831" y="-401" on="0"/>
        <pt x="749" y="-286" on="0"/>
        <pt x="770" y="-163" on="0"/>
        <pt x="860" y="-91" on="0"/>
        <pt x="916" y="-97" on="1"/>
        <pt x="868" y="-13" on="1"/>
        <pt x="817" y="3" on="0"/>
        <pt x="733" y="91" on="0"/>
        <pt x="723" y="136" on="1"/>
        <pt x="690" y="106" on="0"/>
        <pt x="610" y="63" on="1"/>
        <pt x="454" y="-21" on="0"/>
        <pt x="266" y="-21" on="0"/>
        <pt x="137" y="33" on="0"/>
        <pt x="53" y="145" on="0"/>
        <pt x="53" y="267" on="0"/>
        <pt x="86" y="349" on="0"/>
        <pt x="140" y="408" on="0"/>
        <pt x="220" y="459" on="0"/>
        <pt x="261" y="476" on="1"/>
        <pt x="349" y="512" on="0"/>
        <pt x="557" y="566" on="0"/>
      </contour>
    </TTGlyph>
    <TTGlyph name="aring" xMin="52" yMin="-21" xMax="1073" yMax="1493">
      <component glyphName="ring" x="181" y="817" flags="0x1004"/>
      <component glyphName="a" x="0" y="0" flags="0x1204"/>
    </TTGlyph>
    <TTGlyph name="asciicircum" xMin="88" yMin="1020" xMax="622" yMax="1394">
      <contour>
        <pt x="346" y="1389" on="1"/>
        <pt x="354" y="1394" on="0"/>
        <pt x="363" y="1389" on="1"/>
        <pt x="612" y="1081" on="1"/>
        <pt x="622" y="1072" on="0"/>
        <pt x="618" y="1066" on="1"/>
        <pt x="594" y="1021" on="0"/>
        <pt x="566" y="1038" on="1"/>
        <pt x="355" y="1188" on="1"/>
        <pt x="143" y="1038" on="1"/>
        <pt x="114" y="1020" on="0"/>
        <pt x="91" y="1067" on="1"/>
        <pt x="88" y="1073" on="0"/>
        <pt x="96" y="1081" on="1"/>
      </contour>
    </TTGlyph>
    <TTGlyph name="asciitilde" xMin="90" yMin="1021" xMax="695" yMax="1323">
      <contour>
        <pt x="384" y="1104" on="1"/>
        <pt x="312" y="1164" on="1"/>
        <pt x="262" y="1206" on="0"/>
        <pt x="236" y="1211" on="0"/>
        <pt x="215" y="1217" on="0"/>
        <pt x="195" y="1209" on="0"/>
        <pt x="172" y="1187" on="0"/>
        <pt x="158" y="1148" on="0"/>
        <pt x="152" y="1123" on="0"/>
        <pt x="145" y="1076" on="0"/>
        <pt x="137" y="1063" on="0"/>
        <pt x="90" y="1082" on="0"/>
        <pt x="90" y="1087" on="1"/>
        <pt x="91" y="1094" on="0"/>
        <pt x="96" y="1161" on="0"/>
        <pt x="103" y="1203" on="0"/>
        <pt x="120" y="1262" on="0"/>
        <pt x="154" y="1301" on="0"/>
        <pt x="204" y="1319" on="0"/>
        <pt x="251" y="1323" on="0"/>
        <pt x="276" y="1315" on="1"/>
        <pt x="330" y="1298" on="0"/>
        <pt x="359" y="1276" on="1"/>
        <pt x="474" y="1186" on="1"/>
        <pt x="524" y="1144" on="0"/>
        <pt x="549" y="1139" on="0"/>
        <pt x="570" y="1133" on="0"/>
        <pt x="590" y="1141" on="0"/>
        <pt x="613" y="1163" on="0"/>
        <pt x="627" y="1202" on="0"/>
        <pt x="633" y="1227" on="0"/>
        <pt x="640" y="1274" on="0"/>
        <pt x="648" y="1289" on="0"/>
        <pt x="695" y="1268" on="0"/>
        <pt x="695" y="1263" on="1"/>
        <pt x="694" y="1256" on="0"/>
        <pt x="689" y="1189" on="0"/>
        <pt x="682" y="1147" on="0"/>
        <pt x="665" y="1088" on="0"/>
        <pt x="631" y="1049" on="0"/>
        <pt x="606" y="1040" on="1"/>
        <pt x="553" y="1021" on="0"/>
        <pt x="518" y="1032" on="1"/>
        <pt x="467" y="1050" on="1"/>
        <pt x="441" y="1060" on="0"/>
      </contour>
    </TTGlyph>
    <TTGlyph name="asterisk" xMin="56" yMin="852" xMax="785" yMax="1638">
      <contour>
        <pt x="365" y="1460" on="1"/>
        <pt x="326" y="1491" on="0"/>
        <pt x="326" y="1580" on="0"/>
        <pt x="384" y="1638" on="0"/>
        <pt x="466" y="1638" on="0"/>
        <pt x="524" y="1580" on="0"/>
        <pt x="524" y="1488" on="0"/>
        <pt x="481" y="1458" on="1"/>
        <pt x="448" y="1291" on="1"/>
        <pt x="580" y="1401" on="1"/>
        <pt x="587" y="1450" on="0"/>
        <pt x="629" y="1474" on="1"/>
        <pt x="652" y="1488" on="0"/>
        <pt x="678" y="1488" on="1"/>
        <pt x="735" y="1488" on="0"/>
        <pt x="785" y="1403" on="0"/>
        <pt x="763" y="1324" on="0"/>
        <pt x="728" y="1303" on="1"/>
        <pt x="680" y="1277" on="0"/>
        <pt x="636" y="1298" on="1"/>
        <pt x="476" y="1244" on="1"/>
        <pt x="635" y="1184" on="1"/>
        <pt x="679" y="1203" on="0"/>
        <pt x="758" y="1158" on="0"/>
        <pt x="779" y="1079" on="0"/>
        <pt x="739" y="1009" on="0"/>
        <pt x="659" y="988" on="0"/>
        <pt x="580" y="1034" on="0"/>
        <pt x="575" y="1085" on="1"/>
        <pt x="448" y="1197" on="1"/>
        <pt x="476" y="1029" on="1"/>
        <pt x="515" y="998" on="0"/>
        <pt x="515" y="910" on="0"/>
        <pt x="457" y="852" on="0"/>
        <pt x="375" y="852" on="0"/>
        <pt x="317" y="910" on="0"/>
        <pt x="317" y="1001" on="0"/>
        <pt x="360" y="1031" on="1"/>
        <pt x="393" y="1199" on="1"/>
        <pt x="261" y="1089" on="1"/>
        <pt x="254" y="1040" on="0"/>
        <pt x="177" y="995" on="0"/>
        <pt x="98" y="1017" on="0"/>
        <pt x="56" y="1087" on="0"/>
        <pt x="78" y="1166" on="0"/>
        <pt x="160" y="1213" on="0"/>
        <pt x="205" y="1191" on="1"/>
        <pt x="366" y="1245" on="1"/>
        <pt x="206" y="1306" on="1"/>
        <pt x="162" y="1287" on="0"/>
        <pt x="83" y="1331" on="0"/>
        <pt x="62" y="1410" on="0"/>
        <pt x="102" y="1480" on="0"/>
        <pt x="182" y="1502" on="0"/>
        <pt x="261" y="1456" on="0"/>
        <pt x="266" y="1404" on="1"/>
        <pt x="393" y="1293" on="1"/>
      </contour>
    </TTGlyph>
    <TTGlyph name="at" xMin="80" yMin="-37" xMax="1812" yMax="1672">
      <contour>
        <pt x="1050" y="564" on="0"/>
        <pt x="1084" y="588" on="0"/>
        <pt x="1116" y="606" on="0"/>
        <pt x="1134" y="624" on="1"/>
        <pt x="1136" y="625" on="0"/>
        <pt x="1134" y="653" on="1"/>
        <pt x="1131" y="700" on="1"/>
        <pt x="1121" y="894" on="0"/>
        <pt x="1066" y="1008" on="1"/>
        <pt x="1023" y="1098" on="0"/>
        <pt x="950" y="1098" on="1"/>
        <pt x="748" y="1098" on="0"/>
        <pt x="718" y="852" on="1"/>
        <pt x="710" y="783" on="0"/>
        <pt x="710" y="631" on="0"/>
        <pt x="817" y="525" on="0"/>
        <pt x="967" y="525" on="0"/>
        <pt x="1035" y="558" on="0"/>
      </contour>
      <contour>
        <pt x="1426" y="277" on="1"/>
        <pt x="1483" y="207" on="0"/>
        <pt x="1469" y="188" on="0"/>
        <pt x="1437" y="157" on="0"/>
        <pt x="1327" y="76" on="0"/>
        <pt x="1207" y="14" on="0"/>
        <pt x="1020" y="-37" on="0"/>
        <pt x="924" y="-37" on="1"/>
        <pt x="750" y="-37" on="0"/>
        <pt x="436" y="101" on="0"/>
        <pt x="212" y="334" on="0"/>
        <pt x="80" y="655" on="0"/>
        <pt x="80" y="998" on="0"/>
        <pt x="217" y="1309" on="0"/>
        <pt x="444" y="1536" on="0"/>
        <pt x="756" y="1672" on="0"/>
        <pt x="1065" y="1672" on="0"/>
        <pt x="1198" y="1632" on="1"/>
        <pt x="1461" y="1553" on="0"/>
        <pt x="1812" y="1122" on="0"/>
        <pt x="1812" y="831" on="1"/>
        <pt x="1812" y="730" on="0"/>
        <pt x="1740" y="551" on="0"/>
        <pt x="1620" y="428" on="0"/>
        <pt x="1452" y="369" on="0"/>
        <pt x="1295" y="396" on="0"/>
        <pt x="1181" y="489" on="0"/>
        <pt x="1169" y="542" on="1"/>
        <pt x="1133" y="506" on="1"/>
        <pt x="1005" y="384" on="0"/>
        <pt x="821" y="385" on="1"/>
        <pt x="714" y="385" on="0"/>
        <pt x="550" y="550" on="0"/>
        <pt x="550" y="740" on="0"/>
        <pt x="565" y="820" on="1"/>
        <pt x="598" y="993" on="0"/>
        <pt x="800" y="1234" on="0"/>
        <pt x="968" y="1234" on="1"/>
        <pt x="1070" y="1234" on="0"/>
        <pt x="1180" y="1130" on="0"/>
        <pt x="1200" y="1064" on="1"/>
        <pt x="1247" y="914" on="0"/>
        <pt x="1266" y="728" on="0"/>
        <pt x="1270" y="696" on="1"/>
        <pt x="1279" y="611" on="0"/>
        <pt x="1338" y="508" on="0"/>
        <pt x="1404" y="504" on="1"/>
        <pt x="1521" y="497" on="0"/>
        <pt x="1668" y="685" on="0"/>
        <pt x="1668" y="921" on="0"/>
        <pt x="1598" y="1124" on="0"/>
        <pt x="1464" y="1305" on="0"/>
        <pt x="1285" y="1447" on="0"/>
        <pt x="1050" y="1530" on="0"/>
        <pt x="924" y="1530" on="1"/>
        <pt x="720" y="1530" on="0"/>
        <pt x="402" y="1356" on="0"/>
        <pt x="224" y="1037" on="0"/>
        <pt x="224" y="678" on="0"/>
        <pt x="340" y="405" on="0"/>
        <pt x="534" y="213" on="0"/>
        <pt x="794" y="101" on="0"/>
        <pt x="1041" y="101" on="0"/>
        <pt x="1130" y="122" on="1"/>
        <pt x="1257" y="152" on="0"/>
        <pt x="1352" y="228" on="1"/>
        <pt x="1404" y="270" on="1"/>
        <pt x="1420" y="284" on="0"/>
      </contour>
    </TTGlyph>
    <TTGlyph name="atilde" xMin="52" yMin="-21" xMax="1073" yMax="1389">
      <component glyphName="asciitilde" x="78" y="66" flags="0x1004"/>
      <component glyphName="a" x="0" y="0" flags="0x1204"/>
    </TTGlyph>
    <TTGlyph name="b" xMin="55" yMin="-18" xMax="1070" yMax="1638">
      <contour>
        <pt x="55" y="1471" on="1"/>
        <pt x="56" y="1489" on="1"/>
        <pt x="56" y="1494" on="0"/>
        <pt x="67" y="1501" on="0"/>
        <pt x="68" y="1502" on="1"/>
        <pt x="248" y="1635" on="1"/>
        <pt x="252" y="1638" on="0"/>
        <pt x="287" y="1638" on="0"/>
        <pt x="303" y="1629" on="0"/>
        <pt x="303" y="1607" on="1"/>
        <pt x="303" y="878" on="1"/>
        <pt x="461" y="974" on="0"/>
        <pt x="576" y="974" on="1"/>
        <pt x="796" y="974" on="0"/>
        <pt x="1070" y="684" on="0"/>
        <pt x="1070" y="267" on="0"/>
        <pt x="781" y="-18" on="0"/>
        <pt x="559" y="-18" on="1"/>
        <pt x="386" y="-18" on="0"/>
        <pt x="249" y="98" on="1"/>
        <pt x="125" y="172" on="1"/>
        <pt x="112" y="180" on="0"/>
        <pt x="112" y="203" on="0"/>
        <pt x="138" y="244" on="0"/>
        <pt x="138" y="254" on="1"/>
        <pt x="138" y="1389" on="1"/>
        <pt x="138" y="1421" on="0"/>
        <pt x="105" y="1449" on="0"/>
        <pt x="69" y="1451" on="0"/>
        <pt x="64" y="1456" on="1"/>
        <pt x="55" y="1462" on="0"/>
      </contour>
      <contour>
        <pt x="303" y="743" on="1"/>
        <pt x="303" y="275" on="1"/>
        <pt x="364" y="189" on="0"/>
        <pt x="499" y="108" on="0"/>
        <pt x="678" y="108" on="0"/>
        <pt x="816" y="207" on="0"/>
        <pt x="896" y="354" on="0"/>
        <pt x="896" y="430" on="1"/>
        <pt x="896" y="588" on="0"/>
        <pt x="700" y="829" on="0"/>
        <pt x="512" y="829" on="1"/>
        <pt x="452" y="829" on="0"/>
        <pt x="340" y="780" on="0"/>
      </contour>
    </TTGlyph>
    <TTGlyph name="backslash" xMin="76" yMin="-26" xMax="1041" yMax="1672">
      <contour>
        <pt x="89" y="1611" on="1"/>
        <pt x="197" y="1666" on="1"/>
        <pt x="209" y="1672" on="0"/>
        <pt x="217" y="1658" on="1"/>
        <pt x="1033" y="56" on="1"/>
        <pt x="1041" y="41" on="0"/>
        <pt x="1028" y="35" on="1"/>
        <pt x="920" y="-20" on="1"/>
        <pt x="908" y="-26" on="0"/>
        <pt x="900" y="-12" on="1"/>
        <pt x="84" y="1590" on="1"/>
        <pt x="76" y="1605" on="0"/>
      </contour>
    </TTGlyph>
    <TTGlyph name="bar" xMin="100" yMin="-104" xMax="250" yMax="1744">
      <contour>
        <pt x="236" y="1744" on="1"/>
        <pt x="250" y="1744" on="0"/>
        <pt x="250" y="1727" on="1"/>
        <pt x="250" y="-87" on="1"/>
        <pt x="250" y="-104" on="0"/>
        <pt x="236" y="-104" on="1"/>
        <pt x="114" y="-104" on="1"/>
        <pt x="100" y="-104" on="0"/>
        <pt x="100" y="-87" on="1"/>
        <pt x="100" y="1727" on="1"/>
        <pt x="100" y="1744" on="0"/>
        <pt x="114" y="1744" on="1"/>
      </contour>
    </TTGlyph>
    <TTGlyph name="braceleft" xMin="100" yMin="-437" xMax="640" yMax="1662">
      <contour>
        <pt x="101" y="657" on="1"/>
        <pt x="101" y="671" on="0"/>
        <pt x="120" y="671" on="1"/>
        <pt x="251" y="671" on="1"/>
        <pt x="280" y="736" on="0"/>
        <pt x="261" y="949" on="0"/>
        <pt x="217" y="1088" on="0"/>
        <pt x="179" y="1249" on="0"/>
        <pt x="175" y="1372" on="0"/>
        <pt x="208" y="1446" on="1"/>
        <pt x="269" y="1566" on="0"/>
        <pt x="511" y="1662" on="0"/>
        <pt x="640" y="1616" on="1"/>
        <pt x="597" y="1530" on="1"/>
        <pt x="532" y="1553" on="0"/>
        <pt x="404" y="1497" on="0"/>
        <pt x="370" y="1429" on="1"/>
        <pt x="305" y="1300" on="0"/>
        <pt x="340" y="1114" on="1"/>
        <pt x="356" y="1037" on="0"/>
        <pt x="370" y="960" on="1"/>
        <pt x="405" y="774" on="0"/>
        <pt x="334" y="636" on="1"/>
        <pt x="327" y="623" on="0"/>
        <pt x="318" y="612" on="1"/>
        <pt x="328" y="600" on="0"/>
        <pt x="334" y="589" on="1"/>
        <pt x="406" y="451" on="0"/>
        <pt x="370" y="265" on="1"/>
        <pt x="356" y="188" on="0"/>
        <pt x="340" y="111" on="1"/>
        <pt x="305" y="-75" on="0"/>
        <pt x="374" y="-212" on="1"/>
        <pt x="404" y="-272" on="0"/>
        <pt x="532" y="-328" on="0"/>
        <pt x="597" y="-305" on="1"/>
        <pt x="640" y="-391" on="1"/>
        <pt x="511" y="-437" on="0"/>
        <pt x="269" y="-341" on="0"/>
        <pt x="158" y="-120" on="0"/>
        <pt x="188" y="8" on="1"/>
        <pt x="252" y="258" on="1"/>
        <pt x="289" y="400" on="0"/>
        <pt x="258" y="536" on="1"/>
        <pt x="255" y="548" on="0"/>
        <pt x="250" y="557" on="1"/>
        <pt x="146" y="557" on="1"/>
        <pt x="102" y="557" on="0"/>
        <pt x="102" y="571" on="1"/>
        <pt x="100" y="611" on="0"/>
      </contour>
    </TTGlyph>
    <TTGlyph name="braceright" xMin="70" yMin="-437" xMax="610" yMax="1662">
      <contour>
        <pt x="608" y="571" on="1"/>
        <pt x="608" y="557" on="0"/>
        <pt x="592" y="557" on="1"/>
        <pt x="460" y="557" on="1"/>
        <pt x="455" y="548" on="0"/>
        <pt x="433" y="456" on="0"/>
        <pt x="449" y="276" on="0"/>
        <pt x="493" y="137" on="0"/>
        <pt x="531" y="-24" on="0"/>
        <pt x="535" y="-147" on="0"/>
        <pt x="502" y="-221" on="1"/>
        <pt x="441" y="-341" on="0"/>
        <pt x="199" y="-437" on="0"/>
        <pt x="70" y="-391" on="1"/>
        <pt x="113" y="-305" on="1"/>
        <pt x="178" y="-328" on="0"/>
        <pt x="306" y="-272" on="0"/>
        <pt x="340" y="-204" on="1"/>
        <pt x="405" y="-75" on="0"/>
        <pt x="370" y="111" on="1"/>
        <pt x="354" y="188" on="0"/>
        <pt x="340" y="265" on="1"/>
        <pt x="305" y="451" on="0"/>
        <pt x="376" y="589" on="1"/>
        <pt x="382" y="600" on="0"/>
        <pt x="392" y="612" on="1"/>
        <pt x="383" y="623" on="0"/>
        <pt x="376" y="636" on="1"/>
        <pt x="304" y="774" on="0"/>
        <pt x="340" y="960" on="1"/>
        <pt x="354" y="1037" on="0"/>
        <pt x="370" y="1114" on="1"/>
        <pt x="405" y="1300" on="0"/>
        <pt x="336" y="1437" on="1"/>
        <pt x="306" y="1497" on="0"/>
        <pt x="178" y="1553" on="0"/>
        <pt x="113" y="1530" on="1"/>
        <pt x="70" y="1616" on="1"/>
        <pt x="199" y="1662" on="0"/>
        <pt x="441" y="1566" on="0"/>
        <pt x="552" y="1344" on="0"/>
        <pt x="522" y="1216" on="1"/>
        <pt x="458" y="966" on="1"/>
        <pt x="421" y="824" on="0"/>
        <pt x="452" y="689" on="1"/>
        <pt x="455" y="680" on="0"/>
        <pt x="459" y="671" on="1"/>
        <pt x="566" y="671" on="1"/>
        <pt x="609" y="671" on="0"/>
        <pt x="609" y="657" on="1"/>
        <pt x="610" y="611" on="0"/>
      </contour>
    </TTGlyph>
    <TTGlyph name="bracketleft" xMin="100" yMin="-413" xMax="530" yMax="1743">
      <contour>
        <pt x="530" y="1652" on="1"/>
        <pt x="530" y="1638" on="0"/>
        <pt x="513" y="1638" on="1"/>
        <pt x="250" y="1638" on="1"/>
        <pt x="250" y="-308" on="1"/>
        <pt x="513" y="-308" on="1"/>
        <pt x="530" y="-308" on="0"/>
        <pt x="530" y="-322" on="1"/>
        <pt x="530" y="-399" on="1"/>
        <pt x="530" y="-413" on="0"/>
        <pt x="513" y="-413" on="1"/>
        <pt x="114" y="-413" on="1"/>
        <pt x="109" y="-413" on="0"/>
        <pt x="100" y="-404" on="0"/>
        <pt x="100" y="-399" on="1"/>
        <pt x="100" y="1729" on="1"/>
        <pt x="100" y="1734" on="0"/>
        <pt x="109" y="1743" on="0"/>
        <pt x="114" y="1743" on="1"/>
        <pt x="513" y="1743" on="1"/>
        <pt x="530" y="1743" on="0"/>
        <pt x="530" y="1729" on="1"/>
      </contour>
    </TTGlyph>
    <TTGlyph name="bracketright" xMin="70" yMin="-413" xMax="500" yMax="1743">
      <component glyphName="bracketleft" x="600" y="1330" scale="-1.0" flags="0x1004"/>
    </TTGlyph>
    <TTGlyph name="breve" xMin="90" yMin="1032" xMax="654" yMax="1347">
      <contour>
        <pt x="654" y="1204" on="0"/>
        <pt x="491" y="1032" on="0"/>
        <pt x="266" y="1032" on="0"/>
        <pt x="90" y="1208" on="0"/>
        <pt x="90" y="1327" on="1"/>
        <pt x="90" y="1336" on="0"/>
        <pt x="135" y="1347" on="0"/>
        <pt x="142" y="1340" on="1"/>
        <pt x="186" y="1223" on="0"/>
        <pt x="288" y="1173" on="1"/>
        <pt x="328" y="1153" on="0"/>
        <pt x="420" y="1153" on="0"/>
        <pt x="504" y="1192" on="0"/>
        <pt x="579" y="1276" on="0"/>
        <pt x="595" y="1320" on="1"/>
        <pt x="602" y="1340" on="1"/>
        <pt x="608" y="1346" on="0"/>
        <pt x="654" y="1336" on="0"/>
        <pt x="654" y="1327" on="1"/>
      </contour>
    </TTGlyph>
    <TTGlyph name="brokenbar" xMin="100" yMin="-104" xMax="250" yMax="1744">
      <contour>
        <pt x="236" y="745" on="1"/>
        <pt x="250" y="745" on="0"/>
        <pt x="250" y="728" on="1"/>
        <pt x="250" y="-87" on="1"/>
        <pt x="250" y="-104" on="0"/>
        <pt x="236" y="-104" on="1"/>
        <pt x="114" y="-104" on="1"/>
        <pt x="100" y="-104" on="0"/>
        <pt x="100" y="-87" on="1"/>
        <pt x="100" y="728" on="1"/>
        <pt x="100" y="745" on="0"/>
        <pt x="114" y="745" on="1"/>
      </contour>
      <contour>
        <pt x="236" y="1744" on="1"/>
        <pt x="250" y="1744" on="0"/>
        <pt x="250" y="1727" on="1"/>
        <pt x="250" y="912" on="1"/>
        <pt x="250" y="895" on="0"/>
        <pt x="236" y="895" on="1"/>
        <pt x="114" y="895" on="1"/>
        <pt x="100" y="895" on="0"/>
        <pt x="100" y="912" on="1"/>
        <pt x="100" y="1727" on="1"/>
        <pt x="100" y="1744" on="0"/>
        <pt x="114" y="1744" on="1"/>
      </contour>
    </TTGlyph>
    <TTGlyph name="bullet" xMin="86" yMin="674" xMax="362" yMax="964">
      <component glyphName="periodcentered" x="0" y="0" flags="0x1004"/>
    </TTGlyph>
    <TTGlyph name="c" xMin="55" yMin="-18" xMax="964" yMax="974">
      <contour>
        <pt x="903" y="259" on="1"/>
        <pt x="919" y="275" on="0"/>
        <pt x="961" y="233" on="1"/>
        <pt x="964" y="230" on="0"/>
        <pt x="960" y="224" on="1"/>
        <pt x="785" y="-18" on="0"/>
        <pt x="540" y="-18" on="1"/>
        <pt x="445" y="-18" on="0"/>
        <pt x="356" y="20" on="1"/>
        <pt x="173" y="100" on="0"/>
        <pt x="95" y="276" on="1"/>
        <pt x="55" y="366" on="0"/>
        <pt x="55" y="613" on="0"/>
        <pt x="180" y="842" on="0"/>
        <pt x="417" y="974" on="0"/>
        <pt x="745" y="974" on="0"/>
        <pt x="862" y="857" on="1"/>
        <pt x="863" y="856" on="0"/>
        <pt x="881" y="844" on="1"/>
        <pt x="883" y="842" on="0"/>
        <pt x="881" y="833" on="1"/>
        <pt x="827" y="665" on="1"/>
        <pt x="822" y="650" on="0"/>
        <pt x="808" y="647" on="0"/>
        <pt x="772" y="659" on="0"/>
        <pt x="768" y="667" on="0"/>
        <pt x="757" y="756" on="0"/>
        <pt x="725" y="786" on="1"/>
        <pt x="643" y="864" on="0"/>
        <pt x="515" y="864" on="1"/>
        <pt x="426" y="864" on="0"/>
        <pt x="278" y="769" on="0"/>
        <pt x="199" y="622" on="0"/>
        <pt x="199" y="420" on="0"/>
        <pt x="307" y="234" on="0"/>
        <pt x="490" y="135" on="0"/>
        <pt x="693" y="136" on="0"/>
        <pt x="838" y="194" on="0"/>
      </contour>
    </TTGlyph>
    <TTGlyph name="cacute" xMin="55" yMin="-18" xMax="964" yMax="1509">
      <component glyphName="acute" x="388" y="63" flags="0x1004"/>
      <component glyphName="c" x="0" y="0" flags="0x1204"/>
    </TTGlyph>
    <TTGlyph name="caron" xMin="87" yMin="1030" xMax="621" yMax="1404">
      <component glyphName="asciicircum" x="709" y="2424" scale="-1.0" flags="0x1004"/>
    </TTGlyph>
    <TTGlyph name="ccaron" xMin="55" yMin="-18" xMax="964" yMax="1467">
      <component glyphName="caron" x="182" y="63" flags="0x1004"/>
      <component glyphName="c" x="0" y="0" flags="0x1204"/>
    </TTGlyph>
    <TTGlyph name="ccedilla" xMin="55" yMin="-411" xMax="964" yMax="974">
      <contour>
        <pt x="383" y="-298" on="1"/>
        <pt x="383" y="-290" on="0"/>
        <pt x="411" y="-283" on="0"/>
        <pt x="412" y="-285" on="1"/>
        <pt x="417" y="-305" on="0"/>
        <pt x="486" y="-341" on="0"/>
        <pt x="518" y="-341" on="1"/>
        <pt x="580" y="-341" on="0"/>
        <pt x="615" y="-279" on="0"/>
        <pt x="615" y="-203" on="0"/>
        <pt x="552" y="-144" on="0"/>
        <pt x="508" y="-144" on="0"/>
        <pt x="486" y="-148" on="0"/>
        <pt x="467" y="-152" on="0"/>
        <pt x="452" y="-157" on="0"/>
        <pt x="442" y="-161" on="0"/>
        <pt x="437" y="-161" on="0"/>
        <pt x="432" y="-138" on="0"/>
        <pt x="435" y="-129" on="1"/>
        <pt x="502" y="-16" on="1"/>
        <pt x="321" y="-1" on="0"/>
        <pt x="189" y="136" on="1"/>
        <pt x="55" y="274" on="0"/>
        <pt x="55" y="492" on="1"/>
        <pt x="55" y="612" on="0"/>
        <pt x="181" y="843" on="0"/>
        <pt x="417" y="974" on="0"/>
        <pt x="730" y="974" on="0"/>
        <pt x="862" y="857" on="1"/>
        <pt x="865" y="854" on="0"/>
        <pt x="878" y="846" on="0"/>
        <pt x="883" y="842" on="0"/>
        <pt x="881" y="833" on="1"/>
        <pt x="827" y="665" on="1"/>
        <pt x="822" y="650" on="0"/>
        <pt x="808" y="647" on="0"/>
        <pt x="773" y="658" on="0"/>
        <pt x="768" y="667" on="0"/>
        <pt x="765" y="690" on="1"/>
        <pt x="758" y="754" on="0"/>
        <pt x="725" y="786" on="1"/>
        <pt x="641" y="864" on="0"/>
        <pt x="515" y="864" on="1"/>
        <pt x="428" y="864" on="0"/>
        <pt x="280" y="770" on="0"/>
        <pt x="199" y="622" on="0"/>
        <pt x="199" y="421" on="0"/>
        <pt x="307" y="234" on="0"/>
        <pt x="490" y="135" on="0"/>
        <pt x="694" y="135" on="0"/>
        <pt x="833" y="192" on="0"/>
        <pt x="903" y="259" on="1"/>
        <pt x="919" y="275" on="0"/>
        <pt x="961" y="233" on="1"/>
        <pt x="964" y="230" on="0"/>
        <pt x="960" y="224" on="1"/>
        <pt x="832" y="-2" on="0"/>
        <pt x="576" y="-17" on="1"/>
        <pt x="532" y="-94" on="1"/>
        <pt x="537" y="-93" on="0"/>
        <pt x="546" y="-93" on="1"/>
        <pt x="604" y="-93" on="0"/>
        <pt x="689" y="-177" on="0"/>
        <pt x="689" y="-309" on="0"/>
        <pt x="596" y="-411" on="0"/>
        <pt x="462" y="-411" on="0"/>
        <pt x="392" y="-346" on="0"/>
      </contour>
    </TTGlyph>
    <TTGlyph name="ccircumflex" xMin="55" yMin="-18" xMax="964" yMax="1458">
      <component glyphName="asciicircum" x="216" y="64" flags="0x1004"/>
      <component glyphName="c" x="0" y="0" flags="0x1204"/>
    </TTGlyph>
    <TTGlyph name="cdotaccent" xMin="55" yMin="-18" xMax="964" yMax="1380">
      <component glyphName="period" x="310" y="1095" flags="0x1004"/>
      <component glyphName="c" x="0" y="0" flags="0x1204"/>
    </TTGlyph>
    <TTGlyph name="cedilla" xMin="22" yMin="-407" xMax="328" yMax="0">
      <contour>
        <pt x="254" y="-199" on="0"/>
        <pt x="192" y="-140" on="0"/>
        <pt x="124" y="-140" on="0"/>
        <pt x="81" y="-157" on="1"/>
        <pt x="76" y="-157" on="0"/>
        <pt x="71" y="-134" on="0"/>
        <pt x="74" y="-125" on="1"/>
        <pt x="146" y="-3" on="1"/>
        <pt x="147" y="-2" on="0"/>
        <pt x="145" y="0" on="1"/>
        <pt x="222" y="0" on="1"/>
        <pt x="171" y="-90" on="1"/>
        <pt x="176" y="-89" on="0"/>
        <pt x="185" y="-89" on="1"/>
        <pt x="243" y="-89" on="0"/>
        <pt x="328" y="-173" on="0"/>
        <pt x="328" y="-305" on="0"/>
        <pt x="235" y="-407" on="0"/>
        <pt x="101" y="-407" on="0"/>
        <pt x="31" y="-342" on="0"/>
        <pt x="22" y="-294" on="1"/>
        <pt x="22" y="-287" on="0"/>
        <pt x="50" y="-279" on="0"/>
        <pt x="51" y="-281" on="1"/>
        <pt x="56" y="-301" on="0"/>
        <pt x="126" y="-337" on="0"/>
        <pt x="160" y="-337" on="1"/>
        <pt x="254" y="-337" on="0"/>
        <pt x="254" y="-234" on="1"/>
      </contour>
    </TTGlyph>
    <TTGlyph name="cent" xMin="110" yMin="-304" xMax="1019" yMax="1276">
      <contour>
        <pt x="496" y="165" on="1"/>
        <pt x="554" y="864" on="1"/>
        <pt x="428" y="857" on="0"/>
        <pt x="254" y="662" on="0"/>
        <pt x="254" y="407" on="0"/>
        <pt x="386" y="209" on="0"/>
      </contour>
      <contour>
        <pt x="958" y="259" on="1"/>
        <pt x="974" y="275" on="0"/>
        <pt x="1016" y="233" on="1"/>
        <pt x="1019" y="230" on="0"/>
        <pt x="1015" y="224" on="1"/>
        <pt x="878" y="-18" on="0"/>
        <pt x="595" y="-18" on="1"/>
        <pt x="583" y="-18" on="1"/>
        <pt x="561" y="-258" on="1"/>
        <pt x="558" y="-286" on="0"/>
        <pt x="511" y="-304" on="0"/>
        <pt x="476" y="-292" on="1"/>
        <pt x="462" y="-286" on="0"/>
        <pt x="464" y="-267" on="1"/>
        <pt x="483" y="-4" on="1"/>
        <pt x="325" y="36" on="0"/>
        <pt x="110" y="297" on="0"/>
        <pt x="110" y="463" on="1"/>
        <pt x="110" y="673" on="0"/>
        <pt x="356" y="951" on="0"/>
        <pt x="563" y="971" on="1"/>
        <pt x="585" y="1249" on="1"/>
        <pt x="592" y="1252" on="0"/>
        <pt x="628" y="1276" on="0"/>
        <pt x="658" y="1260" on="0"/>
        <pt x="677" y="1246" on="0"/>
        <pt x="684" y="1242" on="1"/>
        <pt x="662" y="972" on="1"/>
        <pt x="801" y="960" on="0"/>
        <pt x="917" y="857" on="1"/>
        <pt x="920" y="854" on="0"/>
        <pt x="933" y="846" on="0"/>
        <pt x="938" y="842" on="0"/>
        <pt x="936" y="833" on="1"/>
        <pt x="882" y="665" on="1"/>
        <pt x="877" y="650" on="0"/>
        <pt x="863" y="647" on="0"/>
        <pt x="828" y="658" on="0"/>
        <pt x="822" y="667" on="0"/>
        <pt x="813" y="754" on="0"/>
        <pt x="780" y="786" on="1"/>
        <pt x="722" y="838" on="0"/>
        <pt x="653" y="855" on="1"/>
        <pt x="615" y="347" on="0"/>
        <pt x="597" y="139" on="1"/>
        <pt x="622" y="135" on="0"/>
        <pt x="686" y="135" on="1"/>
        <pt x="828" y="135" on="0"/>
      </contour>
    </TTGlyph>
    <TTGlyph name="colon" xMin="86" yMin="-4" xMax="362" yMax="870">
      <contour>
        <pt x="235" y="591" on="1"/>
        <pt x="221" y="580" on="0"/>
        <pt x="209" y="591" on="1"/>
        <pt x="97" y="707" on="1"/>
        <pt x="86" y="722" on="0"/>
        <pt x="97" y="738" on="1"/>
        <pt x="209" y="859" on="1"/>
        <pt x="222" y="870" on="0"/>
        <pt x="235" y="859" on="1"/>
        <pt x="351" y="738" on="1"/>
        <pt x="362" y="722" on="0"/>
        <pt x="351" y="707" on="1"/>
      </contour>
      <contour>
        <pt x="235" y="6" on="1"/>
        <pt x="221" y="-4" on="0"/>
        <pt x="209" y="6" on="1"/>
        <pt x="97" y="122" on="1"/>
        <pt x="86" y="138" on="0"/>
        <pt x="97" y="153" on="1"/>
        <pt x="209" y="274" on="1"/>
        <pt x="222" y="285" on="0"/>
        <pt x="235" y="274" on="1"/>
        <pt x="351" y="153" on="1"/>
        <pt x="362" y="137" on="0"/>
        <pt x="351" y="122" on="1"/>
      </contour>
    </TTGlyph>
    <TTGlyph name="comma" xMin="65" yMin="-192" xMax="389" yMax="285">
      <contour>
        <pt x="150" y="91" on="1"/>
        <pt x="107" y="130" on="0"/>
        <pt x="124" y="153" on="1"/>
        <pt x="236" y="274" on="1"/>
        <pt x="249" y="285" on="0"/>
        <pt x="262" y="274" on="1"/>
        <pt x="378" y="153" on="1"/>
        <pt x="389" y="137" on="0"/>
        <pt x="378" y="122" on="1"/>
        <pt x="378" y="122" on="0"/>
        <pt x="312" y="51" on="1"/>
        <pt x="130" y="-167" on="1"/>
        <pt x="109" y="-192" on="0"/>
        <pt x="72" y="-153" on="1"/>
        <pt x="65" y="-146" on="0"/>
        <pt x="154" y="-28" on="0"/>
        <pt x="168" y="-8" on="1"/>
        <pt x="196" y="31" on="0"/>
        <pt x="170" y="73" on="1"/>
        <pt x="168" y="74" on="0"/>
      </contour>
    </TTGlyph>
    <TTGlyph name="copyright" xMin="100" yMin="8" xMax="1572" yMax="1480">
      <contour>
        <pt x="551" y="628" on="0"/>
        <pt x="745" y="431" on="0"/>
        <pt x="936" y="431" on="0"/>
        <pt x="1112" y="522" on="0"/>
        <pt x="1155" y="586" on="1"/>
        <pt x="1157" y="590" on="0"/>
        <pt x="1172" y="595" on="0"/>
        <pt x="1174" y="592" on="1"/>
        <pt x="1203" y="550" on="0"/>
        <pt x="1201" y="547" on="1"/>
        <pt x="1163" y="471" on="0"/>
        <pt x="962" y="334" on="0"/>
        <pt x="839" y="334" on="1"/>
        <pt x="669" y="334" on="0"/>
        <pt x="448" y="571" on="0"/>
        <pt x="448" y="897" on="0"/>
        <pt x="680" y="1131" on="0"/>
        <pt x="838" y="1131" on="1"/>
        <pt x="916" y="1131" on="0"/>
        <pt x="1029" y="1090" on="1"/>
        <pt x="1036" y="1087" on="0"/>
        <pt x="1053" y="1098" on="0"/>
        <pt x="1072" y="1098" on="0"/>
        <pt x="1079" y="1087" on="0"/>
        <pt x="1078" y="1079" on="1"/>
        <pt x="1076" y="1070" on="0"/>
        <pt x="1088" y="1017" on="1"/>
        <pt x="1100" y="966" on="1"/>
        <pt x="1105" y="946" on="0"/>
        <pt x="1105" y="938" on="0"/>
        <pt x="1073" y="923" on="0"/>
        <pt x="1071" y="926" on="1"/>
        <pt x="1012" y="1029" on="0"/>
        <pt x="839" y="1029" on="1"/>
        <pt x="720" y="1029" on="0"/>
        <pt x="551" y="856" on="0"/>
      </contour>
      <contour>
        <pt x="100" y="594" on="0"/>
        <pt x="100" y="894" on="0"/>
        <pt x="217" y="1166" on="0"/>
        <pt x="414" y="1363" on="0"/>
        <pt x="686" y="1480" on="0"/>
        <pt x="986" y="1480" on="0"/>
        <pt x="1258" y="1363" on="0"/>
        <pt x="1455" y="1166" on="0"/>
        <pt x="1572" y="894" on="0"/>
        <pt x="1572" y="594" on="0"/>
        <pt x="1455" y="322" on="0"/>
        <pt x="1258" y="125" on="0"/>
        <pt x="986" y="8" on="0"/>
        <pt x="686" y="8" on="0"/>
        <pt x="414" y="125" on="0"/>
        <pt x="217" y="322" on="0"/>
      </contour>
      <contour>
        <pt x="202" y="916" on="0"/>
        <pt x="202" y="572" on="0"/>
        <pt x="372" y="281" on="0"/>
        <pt x="664" y="111" on="0"/>
        <pt x="1008" y="111" on="0"/>
        <pt x="1299" y="281" on="0"/>
        <pt x="1469" y="572" on="0"/>
        <pt x="1469" y="916" on="0"/>
        <pt x="1299" y="1207" on="0"/>
        <pt x="1008" y="1377" on="0"/>
        <pt x="664" y="1377" on="0"/>
        <pt x="372" y="1207" on="0"/>
      </contour>
    </TTGlyph>
    <TTGlyph name="ct" xMin="55" yMin="-27" xMax="1461" yMax="1386">
      <contour>
        <pt x="1028" y="956" on="1"/>
        <pt x="1050" y="971" on="0"/>
        <pt x="1050" y="1137" on="0"/>
        <pt x="965" y="1269" on="0"/>
        <pt x="848" y="1269" on="0"/>
        <pt x="810" y="1251" on="1"/>
        <pt x="741" y="1218" on="0"/>
        <pt x="698" y="1070" on="0"/>
        <pt x="698" y="936" on="0"/>
        <pt x="733" y="855" on="0"/>
        <pt x="768" y="789" on="0"/>
        <pt x="768" y="764" on="0"/>
        <pt x="730" y="739" on="0"/>
        <pt x="716" y="739" on="0"/>
        <pt x="712" y="744" on="1"/>
        <pt x="662" y="815" on="0"/>
        <pt x="577" y="864" on="0"/>
        <pt x="427" y="864" on="0"/>
        <pt x="280" y="770" on="0"/>
        <pt x="199" y="622" on="0"/>
        <pt x="199" y="421" on="0"/>
        <pt x="307" y="234" on="0"/>
        <pt x="490" y="135" on="0"/>
        <pt x="592" y="135" on="1"/>
        <pt x="787" y="135" on="0"/>
        <pt x="905" y="262" on="1"/>
        <pt x="918" y="276" on="0"/>
        <pt x="961" y="233" on="1"/>
        <pt x="964" y="231" on="0"/>
        <pt x="960" y="224" on="1"/>
        <pt x="823" y="-18" on="0"/>
        <pt x="540" y="-18" on="1"/>
        <pt x="446" y="-18" on="0"/>
        <pt x="269" y="58" on="0"/>
        <pt x="136" y="186" on="0"/>
        <pt x="55" y="366" on="0"/>
        <pt x="55" y="610" on="0"/>
        <pt x="184" y="844" on="0"/>
        <pt x="414" y="974" on="0"/>
        <pt x="558" y="974" on="1"/>
        <pt x="578" y="974" on="0"/>
        <pt x="578" y="1098" on="1"/>
        <pt x="578" y="1171" on="0"/>
        <pt x="670" y="1305" on="0"/>
        <pt x="820" y="1386" on="0"/>
        <pt x="1000" y="1386" on="0"/>
        <pt x="1077" y="1326" on="1"/>
        <pt x="1231" y="1205" on="0"/>
        <pt x="1231" y="953" on="1"/>
        <pt x="1408" y="953" on="1"/>
        <pt x="1459" y="953" on="0"/>
        <pt x="1459" y="940" on="1"/>
        <pt x="1459" y="852" on="1"/>
        <pt x="1459" y="839" on="0"/>
        <pt x="1408" y="839" on="1"/>
        <pt x="1231" y="839" on="1"/>
        <pt x="1231" y="218" on="1"/>
        <pt x="1231" y="99" on="0"/>
        <pt x="1301" y="85" on="1"/>
        <pt x="1354" y="74" on="0"/>
        <pt x="1411" y="125" on="1"/>
        <pt x="1434" y="146" on="0"/>
        <pt x="1452" y="124" on="0"/>
        <pt x="1460" y="112" on="0"/>
        <pt x="1461" y="101" on="0"/>
        <pt x="1461" y="95" on="0"/>
        <pt x="1451" y="83" on="0"/>
        <pt x="1450" y="81" on="1"/>
        <pt x="1429" y="63" on="1"/>
        <pt x="1325" y="-27" on="0"/>
        <pt x="1133" y="-11" on="0"/>
        <pt x="1094" y="96" on="1"/>
        <pt x="1073" y="154" on="0"/>
        <pt x="1073" y="237" on="1"/>
        <pt x="1073" y="839" on="1"/>
        <pt x="1027" y="839" on="1"/>
        <pt x="976" y="839" on="0"/>
        <pt x="976" y="852" on="1"/>
        <pt x="976" y="941" on="1"/>
        <pt x="976" y="951" on="0"/>
        <pt x="988" y="952" on="1"/>
      </contour>
    </TTGlyph>
    <TTGlyph name="currency" xMin="69" yMin="356" xMax="1105" yMax="1312">
      <contour>
        <pt x="978" y="1306" on="1"/>
        <pt x="993" y="1312" on="0"/>
        <pt x="1004" y="1298" on="1"/>
        <pt x="1098" y="1200" on="1"/>
        <pt x="1105" y="1180" on="0"/>
        <pt x="1088" y="1168" on="1"/>
        <pt x="993" y="1115" on="0"/>
        <pt x="845" y="1010" on="1"/>
        <pt x="899" y="931" on="0"/>
        <pt x="899" y="737" on="0"/>
        <pt x="845" y="658" on="1"/>
        <pt x="993" y="553" on="0"/>
        <pt x="1088" y="500" on="1"/>
        <pt x="1105" y="488" on="0"/>
        <pt x="1098" y="468" on="1"/>
        <pt x="1004" y="370" on="1"/>
        <pt x="993" y="356" on="0"/>
        <pt x="978" y="362" on="1"/>
        <pt x="784" y="592" on="1"/>
        <pt x="698" y="522" on="0"/>
        <pt x="476" y="522" on="0"/>
        <pt x="390" y="592" on="1"/>
        <pt x="196" y="362" on="1"/>
        <pt x="181" y="356" on="0"/>
        <pt x="170" y="370" on="1"/>
        <pt x="76" y="468" on="1"/>
        <pt x="69" y="488" on="0"/>
        <pt x="86" y="500" on="1"/>
        <pt x="181" y="553" on="0"/>
        <pt x="329" y="658" on="1"/>
        <pt x="275" y="737" on="0"/>
        <pt x="275" y="931" on="0"/>
        <pt x="329" y="1010" on="1"/>
        <pt x="181" y="1115" on="0"/>
        <pt x="86" y="1168" on="1"/>
        <pt x="69" y="1180" on="0"/>
        <pt x="76" y="1200" on="1"/>
        <pt x="170" y="1298" on="1"/>
        <pt x="181" y="1312" on="0"/>
        <pt x="196" y="1306" on="1"/>
        <pt x="390" y="1076" on="1"/>
        <pt x="476" y="1146" on="0"/>
        <pt x="698" y="1146" on="0"/>
        <pt x="784" y="1076" on="1"/>
      </contour>
      <contour>
        <pt x="396" y="913" on="0"/>
        <pt x="396" y="755" on="0"/>
        <pt x="508" y="643" on="0"/>
        <pt x="666" y="643" on="0"/>
        <pt x="778" y="755" on="0"/>
        <pt x="778" y="913" on="0"/>
        <pt x="666" y="1025" on="0"/>
        <pt x="508" y="1025" on="0"/>
      </contour>
    </TTGlyph>
    <TTGlyph name="d" xMin="55" yMin="-18" xMax="1034" yMax="1638">
      <contour>
        <pt x="726" y="1471" on="1"/>
        <pt x="727" y="1489" on="1"/>
        <pt x="727" y="1494" on="0"/>
        <pt x="738" y="1501" on="0"/>
        <pt x="739" y="1502" on="1"/>
        <pt x="919" y="1635" on="1"/>
        <pt x="923" y="1638" on="0"/>
        <pt x="958" y="1638" on="0"/>
        <pt x="974" y="1629" on="0"/>
        <pt x="974" y="1607" on="1"/>
        <pt x="974" y="706" on="0"/>
        <pt x="977" y="213" on="1"/>
        <pt x="980" y="197" on="0"/>
        <pt x="974" y="198" on="1"/>
        <pt x="973" y="198" on="0"/>
        <pt x="986" y="187" on="0"/>
        <pt x="1022" y="185" on="0"/>
        <pt x="1034" y="176" on="0"/>
        <pt x="1034" y="139" on="0"/>
        <pt x="1029" y="136" on="1"/>
        <pt x="863" y="0" on="1"/>
        <pt x="859" y="-3" on="0"/>
        <pt x="816" y="-3" on="0"/>
        <pt x="807" y="6" on="0"/>
        <pt x="807" y="23" on="0"/>
        <pt x="810" y="40" on="0"/>
        <pt x="804" y="66" on="0"/>
        <pt x="795" y="69" on="0"/>
        <pt x="783" y="61" on="1"/>
        <pt x="756" y="44" on="1"/>
        <pt x="654" y="-18" on="0"/>
        <pt x="446" y="-18" on="0"/>
        <pt x="269" y="58" on="0"/>
        <pt x="136" y="186" on="0"/>
        <pt x="55" y="366" on="0"/>
        <pt x="55" y="612" on="0"/>
        <pt x="181" y="844" on="0"/>
        <pt x="417" y="974" on="0"/>
        <pt x="571" y="974" on="1"/>
        <pt x="632" y="974" on="0"/>
        <pt x="767" y="915" on="0"/>
        <pt x="802" y="880" on="1"/>
        <pt x="813" y="880" on="1"/>
        <pt x="813" y="1206" on="0"/>
        <pt x="809" y="1389" on="1"/>
        <pt x="809" y="1421" on="0"/>
        <pt x="777" y="1449" on="0"/>
        <pt x="741" y="1451" on="0"/>
        <pt x="735" y="1456" on="1"/>
        <pt x="726" y="1462" on="0"/>
      </contour>
      <contour>
        <pt x="808" y="227" on="1"/>
        <pt x="811" y="663" on="1"/>
        <pt x="764" y="745" on="0"/>
        <pt x="588" y="839" on="0"/>
        <pt x="478" y="839" on="1"/>
        <pt x="333" y="839" on="0"/>
        <pt x="245" y="691" on="1"/>
        <pt x="199" y="612" on="0"/>
        <pt x="199" y="541" on="1"/>
        <pt x="199" y="356" on="0"/>
        <pt x="429" y="123" on="0"/>
        <pt x="610" y="123" on="1"/>
        <pt x="661" y="123" on="0"/>
        <pt x="770" y="185" on="0"/>
      </contour>
    </TTGlyph>
    <TTGlyph name="dcaron" xMin="55" yMin="-18" xMax="1536" yMax="1644">
      <component glyphName="comma" x="1147" y="1359" flags="0x1004"/>
      <component glyphName="d" x="0" y="0" flags="0x1004"/>
    </TTGlyph>
    <TTGlyph name="degree" xMin="93" yMin="1031" xMax="491" yMax="1428">
      <component glyphName="ring" x="3" y="752" flags="0x1004"/>
    </TTGlyph>
    <TTGlyph name="dieresis" xMin="87" yMin="1026" xMax="650" yMax="1261">
      <contour>
        <pt x="548" y="1036" on="1"/>
        <pt x="536" y="1026" on="0"/>
        <pt x="526" y="1036" on="1"/>
        <pt x="436" y="1129" on="1"/>
        <pt x="427" y="1141" on="0"/>
        <pt x="436" y="1153" on="1"/>
        <pt x="526" y="1250" on="1"/>
        <pt x="537" y="1261" on="0"/>
        <pt x="548" y="1250" on="1"/>
        <pt x="640" y="1153" on="1"/>
        <pt x="650" y="1140" on="0"/>
        <pt x="640" y="1129" on="1"/>
      </contour>
      <contour>
        <pt x="208" y="1036" on="1"/>
        <pt x="196" y="1026" on="0"/>
        <pt x="186" y="1036" on="1"/>
        <pt x="96" y="1129" on="1"/>
        <pt x="87" y="1141" on="0"/>
        <pt x="96" y="1153" on="1"/>
        <pt x="186" y="1250" on="1"/>
        <pt x="197" y="1261" on="0"/>
        <pt x="208" y="1250" on="1"/>
        <pt x="300" y="1153" on="1"/>
        <pt x="310" y="1140" on="0"/>
        <pt x="300" y="1129" on="1"/>
      </contour>
    </TTGlyph>
    <TTGlyph name="divide" xMin="75" yMin="378" xMax="1061" yMax="1377">
      <contour>
        <pt x="580" y="1098" on="1"/>
        <pt x="566" y="1088" on="0"/>
        <pt x="554" y="1098" on="1"/>
        <pt x="442" y="1214" on="1"/>
        <pt x="431" y="1230" on="0"/>
        <pt x="442" y="1245" on="1"/>
        <pt x="554" y="1366" on="1"/>
        <pt x="567" y="1377" on="0"/>
        <pt x="580" y="1366" on="1"/>
        <pt x="696" y="1245" on="1"/>
        <pt x="707" y="1229" on="0"/>
        <pt x="696" y="1214" on="1"/>
      </contour>
      <contour>
        <pt x="580" y="389" on="1"/>
        <pt x="566" y="378" on="0"/>
        <pt x="554" y="389" on="1"/>
        <pt x="442" y="505" on="1"/>
        <pt x="431" y="520" on="0"/>
        <pt x="442" y="536" on="1"/>
        <pt x="554" y="657" on="1"/>
        <pt x="567" y="668" on="0"/>
        <pt x="580" y="657" on="1"/>
        <pt x="696" y="536" on="1"/>
        <pt x="707" y="520" on="0"/>
        <pt x="696" y="505" on="1"/>
      </contour>
      <contour>
        <pt x="1061" y="817" on="1"/>
        <pt x="1061" y="803" on="0"/>
        <pt x="1044" y="803" on="1"/>
        <pt x="92" y="803" on="1"/>
        <pt x="75" y="803" on="0"/>
        <pt x="75" y="817" on="1"/>
        <pt x="75" y="939" on="1"/>
        <pt x="75" y="953" on="0"/>
        <pt x="92" y="953" on="1"/>
        <pt x="1044" y="953" on="1"/>
        <pt x="1061" y="953" on="0"/>
        <pt x="1061" y="939" on="1"/>
      </contour>
    </TTGlyph>
    <TTGlyph name="dollar" xMin="157" yMin="-223" xMax="1008" yMax="1638">
      <contour>
        <pt x="498" y="1018" on="1"/>
        <pt x="522" y="1002" on="0"/>
        <pt x="529" y="997" on="0"/>
        <pt x="541" y="997" on="0"/>
        <pt x="550" y="1012" on="0"/>
        <pt x="561" y="1154" on="1"/>
        <pt x="580" y="1398" on="1"/>
        <pt x="491" y="1421" on="0"/>
        <pt x="358" y="1290" on="0"/>
        <pt x="358" y="1150" on="0"/>
        <pt x="392" y="1108" on="1"/>
        <pt x="414" y="1084" on="1"/>
        <pt x="427" y="1069" on="0"/>
        <pt x="451" y="1051" on="1"/>
      </contour>
      <contour>
        <pt x="616" y="740" on="1"/>
        <pt x="567" y="99" on="1"/>
        <pt x="589" y="84" on="0"/>
        <pt x="736" y="152" on="0"/>
        <pt x="762" y="178" on="1"/>
        <pt x="860" y="278" on="0"/>
        <pt x="860" y="416" on="1"/>
        <pt x="860" y="500" on="0"/>
        <pt x="800" y="612" on="0"/>
        <pt x="732" y="676" on="1"/>
        <pt x="694" y="710" on="1"/>
        <pt x="651" y="748" on="0"/>
        <pt x="626" y="750" on="0"/>
        <pt x="620" y="747" on="1"/>
        <pt x="616" y="741" on="0"/>
      </contour>
      <contour>
        <pt x="548" y="-188" on="1"/>
        <pt x="548" y="-223" on="0"/>
        <pt x="526" y="-223" on="1"/>
        <pt x="488" y="-223" on="0"/>
        <pt x="463" y="-222" on="1"/>
        <pt x="451" y="-222" on="0"/>
        <pt x="451" y="-197" on="1"/>
        <pt x="472" y="-3" on="1"/>
        <pt x="472" y="5" on="0"/>
        <pt x="450" y="14" on="0"/>
        <pt x="449" y="14" on="1"/>
        <pt x="157" y="100" on="0"/>
        <pt x="157" y="388" on="1"/>
        <pt x="157" y="467" on="0"/>
        <pt x="186" y="525" on="1"/>
        <pt x="191" y="537" on="0"/>
        <pt x="210" y="537" on="0"/>
        <pt x="215" y="533" on="1"/>
        <pt x="402" y="417" on="1"/>
        <pt x="410" y="412" on="0"/>
        <pt x="410" y="383" on="0"/>
        <pt x="392" y="364" on="0"/>
        <pt x="375" y="368" on="0"/>
        <pt x="354" y="375" on="0"/>
        <pt x="324" y="375" on="0"/>
        <pt x="284" y="337" on="0"/>
        <pt x="284" y="313" on="1"/>
        <pt x="284" y="238" on="0"/>
        <pt x="382" y="127" on="0"/>
        <pt x="450" y="108" on="1"/>
        <pt x="459" y="105" on="0"/>
        <pt x="469" y="105" on="0"/>
        <pt x="475" y="107" on="1"/>
        <pt x="532" y="807" on="1"/>
        <pt x="506" y="828" on="0"/>
        <pt x="466" y="856" on="1"/>
        <pt x="397" y="905" on="1"/>
        <pt x="319" y="959" on="0"/>
        <pt x="288" y="1005" on="1"/>
        <pt x="230" y="1092" on="0"/>
        <pt x="230" y="1184" on="1"/>
        <pt x="230" y="1355" on="0"/>
        <pt x="430" y="1491" on="0"/>
        <pt x="589" y="1507" on="1"/>
        <pt x="593" y="1600" on="0"/>
        <pt x="595" y="1638" on="0"/>
        <pt x="694" y="1638" on="0"/>
        <pt x="694" y="1611" on="1"/>
        <pt x="692" y="1589" on="0"/>
        <pt x="687" y="1555" on="1"/>
        <pt x="679" y="1499" on="1"/>
        <pt x="903" y="1447" on="0"/>
        <pt x="907" y="1423" on="1"/>
        <pt x="916" y="1368" on="0"/>
        <pt x="935" y="1208" on="1"/>
        <pt x="935" y="1185" on="0"/>
        <pt x="897" y="1185" on="1"/>
        <pt x="892" y="1185" on="0"/>
        <pt x="870" y="1212" on="1"/>
        <pt x="822" y="1272" on="1"/>
        <pt x="796" y="1306" on="0"/>
        <pt x="720" y="1369" on="0"/>
        <pt x="666" y="1380" on="0"/>
        <pt x="666" y="1366" on="1"/>
        <pt x="655" y="1224" on="0"/>
        <pt x="636" y="939" on="1"/>
        <pt x="817" y="825" on="0"/>
        <pt x="839" y="805" on="1"/>
        <pt x="889" y="758" on="1"/>
        <pt x="916" y="732" on="0"/>
        <pt x="930" y="711" on="1"/>
        <pt x="961" y="658" on="1"/>
        <pt x="1008" y="577" on="0"/>
        <pt x="1008" y="445" on="1"/>
        <pt x="1008" y="246" on="0"/>
        <pt x="769" y="-3" on="0"/>
        <pt x="573" y="-3" on="1"/>
        <pt x="565" y="-3" on="0"/>
        <pt x="556" y="-9" on="1"/>
      </contour>
    </TTGlyph>
    <TTGlyph name="dotlessi" xMin="88" yMin="0" xMax="413" yMax="955">
      <contour>
        <pt x="104" y="0" on="1"/>
        <pt x="91" y="0" on="0"/>
        <pt x="91" y="36" on="0"/>
        <pt x="107" y="46" on="0"/>
        <pt x="132" y="56" on="0"/>
        <pt x="139" y="63" on="1"/>
        <pt x="170" y="94" on="0"/>
        <pt x="170" y="132" on="1"/>
        <pt x="170" y="704" on="1"/>
        <pt x="170" y="736" on="0"/>
        <pt x="137" y="764" on="0"/>
        <pt x="101" y="766" on="0"/>
        <pt x="88" y="776" on="0"/>
        <pt x="88" y="807" on="0"/>
        <pt x="91" y="811" on="0"/>
        <pt x="99" y="816" on="0"/>
        <pt x="100" y="817" on="1"/>
        <pt x="280" y="950" on="1"/>
        <pt x="287" y="955" on="0"/>
        <pt x="296" y="950" on="0"/>
        <pt x="334" y="938" on="0"/>
        <pt x="335" y="922" on="1"/>
        <pt x="335" y="175" on="1"/>
        <pt x="335" y="170" on="0"/>
        <pt x="334" y="137" on="0"/>
        <pt x="334" y="132" on="1"/>
        <pt x="342" y="69" on="0"/>
        <pt x="412" y="39" on="0"/>
        <pt x="413" y="28" on="1"/>
        <pt x="413" y="0" on="0"/>
        <pt x="400" y="0" on="1"/>
      </contour>
    </TTGlyph>
    <TTGlyph name="e" xMin="55" yMin="-18" xMax="979" yMax="974">
      <contour>
        <pt x="770" y="695" on="1"/>
        <pt x="711" y="864" on="0"/>
        <pt x="515" y="864" on="1"/>
        <pt x="426" y="864" on="0"/>
        <pt x="278" y="769" on="0"/>
        <pt x="199" y="622" on="0"/>
        <pt x="199" y="492" on="0"/>
        <pt x="203" y="493" on="1"/>
        <pt x="768" y="690" on="1"/>
        <pt x="768" y="696" on="1"/>
      </contour>
      <contour>
        <pt x="225" y="387" on="1"/>
        <pt x="268" y="269" on="0"/>
        <pt x="472" y="135" on="0"/>
        <pt x="602" y="135" on="1"/>
        <pt x="767" y="135" on="0"/>
        <pt x="903" y="290" on="1"/>
        <pt x="924" y="310" on="0"/>
        <pt x="965" y="269" on="1"/>
        <pt x="968" y="266" on="0"/>
        <pt x="964" y="260" on="1"/>
        <pt x="850" y="102" on="0"/>
        <pt x="787" y="58" on="1"/>
        <pt x="680" y="-18" on="0"/>
        <pt x="540" y="-18" on="1"/>
        <pt x="445" y="-18" on="0"/>
        <pt x="356" y="20" on="1"/>
        <pt x="173" y="100" on="0"/>
        <pt x="95" y="276" on="1"/>
        <pt x="55" y="366" on="0"/>
        <pt x="55" y="613" on="0"/>
        <pt x="180" y="842" on="0"/>
        <pt x="417" y="974" on="0"/>
        <pt x="571" y="974" on="1"/>
        <pt x="759" y="974" on="0"/>
        <pt x="905" y="800" on="1"/>
        <pt x="979" y="712" on="0"/>
        <pt x="979" y="660" on="1"/>
      </contour>
    </TTGlyph>
    <TTGlyph name="eacute" xMin="55" yMin="-18" xMax="979" yMax="1509">
      <component glyphName="acute" x="408" y="63" flags="0x1004"/>
      <component glyphName="e" x="0" y="0" flags="0x1204"/>
    </TTGlyph>
    <TTGlyph name="ebreve" xMin="55" yMin="-18" xMax="979" yMax="1411">
      <component glyphName="breve" x="161" y="64" flags="0x1004"/>
      <component glyphName="e" x="0" y="0" flags="0x1204"/>
    </TTGlyph>
    <TTGlyph name="ecaron" xMin="55" yMin="-18" xMax="979" yMax="1467">
      <component glyphName="caron" x="182" y="63" flags="0x1004"/>
      <component glyphName="e" x="0" y="0" flags="0x1204"/>
    </TTGlyph>
    <TTGlyph name="ecircumflex" xMin="55" yMin="-18" xMax="979" yMax="1458">
      <component glyphName="asciicircum" x="162" y="64" flags="0x1004"/>
      <component glyphName="e" x="0" y="0" flags="0x1204"/>
    </TTGlyph>
    <TTGlyph name="edieresis" xMin="55" yMin="-18" xMax="979" yMax="1325">
      <component glyphName="dieresis" x="158" y="64" flags="0x1004"/>
      <component glyphName="e" x="0" y="0" flags="0x1204"/>
    </TTGlyph>
    <TTGlyph name="edotaccent" xMin="55" yMin="-18" xMax="979" yMax="1380">
      <component glyphName="period" x="316" y="1095" flags="0x1004"/>
      <component glyphName="e" x="0" y="0" flags="0x1204"/>
    </TTGlyph>
    <TTGlyph name="egrave" xMin="55" yMin="-18" xMax="979" yMax="1509">
      <component glyphName="grave" x="72" y="63" flags="0x1004"/>
      <component glyphName="e" x="0" y="0" flags="0x1204"/>
    </TTGlyph>
    <TTGlyph name="eight" xMin="102" yMin="-19" xMax="935" yMax="1657">
      <contour>
        <pt x="391" y="728" on="0"/>
        <pt x="281" y="548" on="0"/>
        <pt x="281" y="298" on="0"/>
        <pt x="426" y="109" on="0"/>
        <pt x="629" y="109" on="0"/>
        <pt x="775" y="287" on="0"/>
        <pt x="775" y="407" on="1"/>
        <pt x="775" y="566" on="0"/>
        <pt x="577" y="732" on="1"/>
        <pt x="489" y="803" on="1"/>
      </contour>
      <contour>
        <pt x="544" y="1000" on="1"/>
        <pt x="641" y="1070" on="0"/>
        <pt x="744" y="1210" on="0"/>
        <pt x="744" y="1406" on="0"/>
        <pt x="615" y="1529" on="0"/>
        <pt x="427" y="1529" on="0"/>
        <pt x="298" y="1409" on="0"/>
        <pt x="298" y="1316" on="1"/>
        <pt x="298" y="1196" on="0"/>
        <pt x="448" y="1074" on="1"/>
        <pt x="484" y="1044" on="0"/>
      </contour>
      <contour>
        <pt x="654" y="917" on="1"/>
        <pt x="862" y="756" on="0"/>
        <pt x="913" y="598" on="1"/>
        <pt x="935" y="530" on="0"/>
        <pt x="935" y="325" on="0"/>
        <pt x="828" y="109" on="0"/>
        <pt x="641" y="-19" on="0"/>
        <pt x="449" y="-19" on="0"/>
        <pt x="293" y="51" on="0"/>
        <pt x="174" y="171" on="0"/>
        <pt x="102" y="342" on="0"/>
        <pt x="102" y="430" on="1"/>
        <pt x="102" y="597" on="0"/>
        <pt x="259" y="799" on="0"/>
        <pt x="382" y="887" on="1"/>
        <pt x="262" y="985" on="0"/>
        <pt x="131" y="1174" on="0"/>
        <pt x="131" y="1294" on="1"/>
        <pt x="131" y="1452" on="0"/>
        <pt x="363" y="1657" on="0"/>
        <pt x="694" y="1657" on="0"/>
        <pt x="909" y="1450" on="0"/>
        <pt x="909" y="1108" on="0"/>
        <pt x="733" y="974" on="1"/>
      </contour>
    </TTGlyph>
    <TTGlyph name="emacron" xMin="55" yMin="-18" xMax="979" yMax="1246">
      <component glyphName="macron" x="99" y="64" flags="0x1004"/>
      <component glyphName="e" x="0" y="0" flags="0x1204"/>
    </TTGlyph>
    <TTGlyph name="emdash" xMin="0" yMin="689" xMax="2048" yMax="839">
      <contour>
        <pt x="2048" y="703" on="1"/>
        <pt x="2048" y="689" on="0"/>
        <pt x="2031" y="689" on="1"/>
        <pt x="17" y="689" on="1"/>
        <pt x="0" y="689" on="0"/>
        <pt x="0" y="703" on="1"/>
        <pt x="0" y="825" on="1"/>
        <pt x="0" y="839" on="0"/>
        <pt x="17" y="839" on="1"/>
        <pt x="2031" y="839" on="1"/>
        <pt x="2048" y="839" on="0"/>
        <pt x="2048" y="825" on="1"/>
      </contour>
    </TTGlyph>
    <TTGlyph name="endash" xMin="0" yMin="689" xMax="1024" yMax="839">
      <contour>
        <pt x="1024" y="703" on="1"/>
        <pt x="1024" y="689" on="0"/>
        <pt x="1007" y="689" on="1"/>
        <pt x="17" y="689" on="1"/>
        <pt x="0" y="689" on="0"/>
        <pt x="0" y="703" on="1"/>
        <pt x="0" y="825" on="1"/>
        <pt x="0" y="839" on="0"/>
        <pt x="17" y="839" on="1"/>
        <pt x="1007" y="839" on="1"/>
        <pt x="1024" y="839" on="0"/>
        <pt x="1024" y="825" on="1"/>
      </contour>
    </TTGlyph>
    <TTGlyph name="eogonek" xMin="55" yMin="-419" xMax="979" yMax="974">
      <contour>
        <pt x="770" y="695" on="1"/>
        <pt x="711" y="864" on="0"/>
        <pt x="515" y="864" on="1"/>
        <pt x="428" y="864" on="0"/>
        <pt x="280" y="770" on="0"/>
        <pt x="199" y="622" on="0"/>
        <pt x="199" y="492" on="0"/>
        <pt x="203" y="493" on="1"/>
        <pt x="768" y="690" on="1"/>
        <pt x="768" y="696" on="1"/>
      </contour>
      <contour>
        <pt x="672" y="-285" on="1"/>
        <pt x="673" y="-283" on="0"/>
        <pt x="701" y="-290" on="0"/>
        <pt x="701" y="-298" on="1"/>
        <pt x="692" y="-346" on="0"/>
        <pt x="591" y="-419" on="0"/>
        <pt x="467" y="-398" on="0"/>
        <pt x="385" y="-283" on="0"/>
        <pt x="407" y="-160" on="0"/>
        <pt x="497" y="-88" on="0"/>
        <pt x="552" y="-94" on="1"/>
        <pt x="508" y="-17" on="1"/>
        <pt x="326" y="-4" on="0"/>
        <pt x="191" y="133" on="1"/>
        <pt x="55" y="271" on="0"/>
        <pt x="55" y="491" on="1"/>
        <pt x="55" y="612" on="0"/>
        <pt x="181" y="843" on="0"/>
        <pt x="417" y="974" on="0"/>
        <pt x="571" y="974" on="1"/>
        <pt x="761" y="974" on="0"/>
        <pt x="905" y="800" on="1"/>
        <pt x="978" y="712" on="0"/>
        <pt x="979" y="660" on="1"/>
        <pt x="225" y="387" on="1"/>
        <pt x="268" y="270" on="0"/>
        <pt x="472" y="135" on="0"/>
        <pt x="602" y="135" on="1"/>
        <pt x="768" y="135" on="0"/>
        <pt x="903" y="290" on="1"/>
        <pt x="918" y="305" on="0"/>
        <pt x="965" y="269" on="1"/>
        <pt x="968" y="267" on="0"/>
        <pt x="964" y="260" on="1"/>
        <pt x="901" y="145" on="0"/>
        <pt x="706" y="-5" on="0"/>
        <pt x="582" y="-16" on="1"/>
        <pt x="649" y="-129" on="1"/>
        <pt x="652" y="-138" on="0"/>
        <pt x="647" y="-161" on="0"/>
        <pt x="642" y="-161" on="1"/>
        <pt x="610" y="-150" on="0"/>
        <pt x="540" y="-138" on="0"/>
        <pt x="475" y="-181" on="0"/>
        <pt x="459" y="-272" on="0"/>
        <pt x="510" y="-332" on="0"/>
        <pt x="549" y="-339" on="1"/>
        <pt x="622" y="-352" on="0"/>
      </contour>
    </TTGlyph>
    <TTGlyph name="equal" xMin="75" yMin="503" xMax="1061" yMax="953">
      <contour>
        <pt x="1061" y="517" on="1"/>
        <pt x="1061" y="503" on="0"/>
        <pt x="1044" y="503" on="1"/>
        <pt x="92" y="503" on="1"/>
        <pt x="75" y="503" on="0"/>
        <pt x="75" y="517" on="1"/>
        <pt x="75" y="639" on="1"/>
        <pt x="75" y="653" on="0"/>
        <pt x="92" y="653" on="1"/>
        <pt x="1044" y="653" on="1"/>
        <pt x="1061" y="653" on="0"/>
        <pt x="1061" y="639" on="1"/>
      </contour>
      <contour>
        <pt x="1061" y="817" on="1"/>
        <pt x="1061" y="803" on="0"/>
        <pt x="1044" y="803" on="1"/>
        <pt x="92" y="803" on="1"/>
        <pt x="75" y="803" on="0"/>
        <pt x="75" y="817" on="1"/>
        <pt x="75" y="939" on="1"/>
        <pt x="75" y="953" on="0"/>
        <pt x="92" y="953" on="1"/>
        <pt x="1044" y="953" on="1"/>
        <pt x="1061" y="953" on="0"/>
        <pt x="1061" y="939" on="1"/>
      </contour>
    </TTGlyph>
    <TTGlyph name="eth" xMin="55" yMin="-18" xMax="1051" yMax="1565">
      <contour>
        <pt x="786" y="1293" on="1"/>
        <pt x="1051" y="967" on="0"/>
        <pt x="1051" y="479" on="1"/>
        <pt x="1051" y="267" on="0"/>
        <pt x="762" y="-18" on="0"/>
        <pt x="540" y="-18" on="1"/>
        <pt x="446" y="-18" on="0"/>
        <pt x="269" y="58" on="0"/>
        <pt x="136" y="186" on="0"/>
        <pt x="55" y="366" on="0"/>
        <pt x="55" y="612" on="0"/>
        <pt x="181" y="843" on="0"/>
        <pt x="417" y="974" on="0"/>
        <pt x="700" y="974" on="0"/>
        <pt x="811" y="909" on="1"/>
        <pt x="753" y="1097" on="0"/>
        <pt x="648" y="1238" on="1"/>
        <pt x="392" y="1134" on="1"/>
        <pt x="356" y="1119" on="0"/>
        <pt x="340" y="1127" on="1"/>
        <pt x="307" y="1209" on="1"/>
        <pt x="310" y="1223" on="0"/>
        <pt x="324" y="1229" on="1"/>
        <pt x="571" y="1330" on="1"/>
        <pt x="482" y="1426" on="0"/>
        <pt x="304" y="1561" on="0"/>
        <pt x="300" y="1565" on="1"/>
        <pt x="453" y="1565" on="1"/>
        <pt x="591" y="1493" on="0"/>
        <pt x="703" y="1384" on="1"/>
        <pt x="917" y="1470" on="1"/>
        <pt x="954" y="1486" on="0"/>
        <pt x="969" y="1477" on="1"/>
        <pt x="1002" y="1395" on="1"/>
        <pt x="998" y="1381" on="0"/>
        <pt x="986" y="1376" on="1"/>
      </contour>
      <contour>
        <pt x="261" y="756" on="0"/>
        <pt x="199" y="623" on="0"/>
        <pt x="199" y="419" on="0"/>
        <pt x="312" y="215" on="0"/>
        <pt x="509" y="96" on="0"/>
        <pt x="704" y="96" on="0"/>
        <pt x="827" y="184" on="0"/>
        <pt x="892" y="324" on="0"/>
        <pt x="892" y="408" on="1"/>
        <pt x="892" y="585" on="0"/>
        <pt x="667" y="839" on="0"/>
        <pt x="478" y="839" on="1"/>
        <pt x="391" y="839" on="0"/>
      </contour>
    </TTGlyph>
    <TTGlyph name="exclam" xMin="109" yMin="-4" xMax="337" yMax="1498">
      <contour>
        <pt x="234" y="6" on="1"/>
        <pt x="223" y="-4" on="0"/>
        <pt x="213" y="6" on="1"/>
        <pt x="123" y="99" on="1"/>
        <pt x="114" y="111" on="0"/>
        <pt x="123" y="123" on="1"/>
        <pt x="213" y="220" on="1"/>
        <pt x="224" y="230" on="0"/>
        <pt x="234" y="220" on="1"/>
        <pt x="327" y="123" on="1"/>
        <pt x="337" y="110" on="0"/>
        <pt x="327" y="99" on="1"/>
      </contour>
      <contour>
        <pt x="109" y="1452" on="0"/>
        <pt x="142" y="1480" on="0"/>
        <pt x="223" y="1498" on="0"/>
        <pt x="304" y="1480" on="0"/>
        <pt x="336" y="1452" on="0"/>
        <pt x="336" y="1443" on="1"/>
        <pt x="306" y="1133" on="0"/>
        <pt x="285" y="662" on="0"/>
        <pt x="285" y="327" on="1"/>
        <pt x="285" y="286" on="0"/>
        <pt x="161" y="286" on="0"/>
        <pt x="161" y="327" on="1"/>
        <pt x="161" y="672" on="0"/>
        <pt x="141" y="1139" on="0"/>
        <pt x="110" y="1443" on="1"/>
      </contour>
    </TTGlyph>
    <TTGlyph name="exclamdown" xMin="73" yMin="-4" xMax="301" yMax="1498">
      <component glyphName="exclam" x="410" y="1494" scale="-1.0" flags="0x1004"/>
    </TTGlyph>
    <TTGlyph name="f" xMin="9" yMin="0" xMax="891" yMax="1637">
      <contour>
        <pt x="692" y="1370" on="1"/>
        <pt x="700" y="1428" on="1"/>
        <pt x="700" y="1448" on="0"/>
        <pt x="638" y="1511" on="0"/>
        <pt x="539" y="1511" on="0"/>
        <pt x="429" y="1446" on="0"/>
        <pt x="342" y="1343" on="0"/>
        <pt x="286" y="1202" on="0"/>
        <pt x="286" y="1131" on="1"/>
        <pt x="286" y="953" on="1"/>
        <pt x="673" y="953" on="1"/>
        <pt x="714" y="953" on="0"/>
        <pt x="724" y="940" on="1"/>
        <pt x="724" y="852" on="1"/>
        <pt x="713" y="839" on="0"/>
        <pt x="673" y="839" on="1"/>
        <pt x="286" y="839" on="1"/>
        <pt x="286" y="132" on="1"/>
        <pt x="286" y="112" on="0"/>
        <pt x="311" y="61" on="0"/>
        <pt x="364" y="39" on="0"/>
        <pt x="364" y="28" on="1"/>
        <pt x="364" y="0" on="0"/>
        <pt x="351" y="0" on="1"/>
        <pt x="56" y="0" on="1"/>
        <pt x="43" y="0" on="0"/>
        <pt x="43" y="36" on="0"/>
        <pt x="60" y="46" on="0"/>
        <pt x="85" y="56" on="0"/>
        <pt x="100" y="71" on="0"/>
        <pt x="112" y="90" on="0"/>
        <pt x="118" y="103" on="0"/>
        <pt x="121" y="128" on="0"/>
        <pt x="122" y="137" on="0"/>
        <pt x="121" y="170" on="0"/>
        <pt x="121" y="175" on="1"/>
        <pt x="121" y="839" on="1"/>
        <pt x="60" y="839" on="1"/>
        <pt x="20" y="839" on="0"/>
        <pt x="9" y="852" on="1"/>
        <pt x="9" y="940" on="1"/>
        <pt x="19" y="953" on="0"/>
        <pt x="60" y="953" on="1"/>
        <pt x="121" y="953" on="1"/>
        <pt x="121" y="1180" on="1"/>
        <pt x="121" y="1302" on="0"/>
        <pt x="214" y="1429" on="1"/>
        <pt x="308" y="1556" on="0"/>
        <pt x="444" y="1608" on="1"/>
        <pt x="519" y="1637" on="0"/>
        <pt x="597" y="1637" on="1"/>
        <pt x="755" y="1637" on="0"/>
        <pt x="865" y="1527" on="1"/>
        <pt x="891" y="1499" on="0"/>
        <pt x="867" y="1476" on="1"/>
        <pt x="733" y="1352" on="1"/>
        <pt x="726" y="1346" on="0"/>
        <pt x="692" y="1359" on="0"/>
      </contour>
    </TTGlyph>
    <TTGlyph name="five" xMin="87" yMin="0" xMax="956" yMax="1684">
      <contour>
        <pt x="107" y="0" on="1"/>
        <pt x="87" y="0" on="0"/>
        <pt x="87" y="104" on="0"/>
        <pt x="105" y="108" on="1"/>
        <pt x="452" y="188" on="0"/>
        <pt x="630" y="364" on="1"/>
        <pt x="768" y="499" on="0"/>
        <pt x="766" y="858" on="0"/>
        <pt x="556" y="908" on="1"/>
        <pt x="377" y="950" on="0"/>
        <pt x="118" y="849" on="1"/>
        <pt x="109" y="846" on="0"/>
        <pt x="102" y="865" on="0"/>
        <pt x="104" y="876" on="1"/>
        <pt x="209" y="1619" on="1"/>
        <pt x="211" y="1638" on="0"/>
        <pt x="225" y="1638" on="1"/>
        <pt x="262" y="1639" on="0"/>
        <pt x="839" y="1633" on="0"/>
        <pt x="879" y="1659" on="1"/>
        <pt x="883" y="1662" on="0"/>
        <pt x="904" y="1684" on="0"/>
        <pt x="956" y="1684" on="0"/>
        <pt x="956" y="1668" on="1"/>
        <pt x="955" y="1663" on="1"/>
        <pt x="955" y="1637" on="0"/>
        <pt x="900" y="1556" on="0"/>
        <pt x="872" y="1530" on="1"/>
        <pt x="806" y="1468" on="0"/>
        <pt x="698" y="1468" on="1"/>
        <pt x="324" y="1468" on="1"/>
        <pt x="264" y="1050" on="1"/>
        <pt x="270" y="1047" on="0"/>
        <pt x="272" y="1048" on="1"/>
        <pt x="441" y="1103" on="0"/>
        <pt x="562" y="1103" on="1"/>
        <pt x="720" y="1103" on="0"/>
        <pt x="938" y="872" on="0"/>
        <pt x="938" y="705" on="1"/>
        <pt x="938" y="580" on="0"/>
        <pt x="826" y="361" on="0"/>
        <pt x="654" y="208" on="0"/>
        <pt x="541" y="148" on="1"/>
        <pt x="339" y="40" on="0"/>
        <pt x="116" y="1" on="1"/>
        <pt x="113" y="0" on="0"/>
      </contour>
    </TTGlyph>
    <TTGlyph name="four" xMin="118" yMin="0" xMax="974" yMax="1638">
      <contour>
        <pt x="630" y="590" on="1"/>
        <pt x="630" y="590" on="0"/>
        <pt x="126" y="590" on="1"/>
        <pt x="118" y="590" on="0"/>
        <pt x="118" y="596" on="1"/>
        <pt x="118" y="596" on="0"/>
        <pt x="118" y="701" on="1"/>
        <pt x="118" y="701" on="0"/>
        <pt x="679" y="1625" on="1"/>
        <pt x="690" y="1637" on="0"/>
        <pt x="693" y="1638" on="1"/>
        <pt x="814" y="1638" on="1"/>
        <pt x="824" y="1638" on="0"/>
        <pt x="824" y="1625" on="1"/>
        <pt x="824" y="1625" on="0"/>
        <pt x="824" y="725" on="1"/>
        <pt x="824" y="725" on="0"/>
        <pt x="827" y="723" on="1"/>
        <pt x="889" y="750" on="0"/>
        <pt x="918" y="801" on="1"/>
        <pt x="922" y="808" on="0"/>
        <pt x="926" y="806" on="1"/>
        <pt x="972" y="784" on="1"/>
        <pt x="974" y="782" on="0"/>
        <pt x="925" y="662" on="0"/>
        <pt x="880" y="582" on="1"/>
        <pt x="874" y="572" on="0"/>
        <pt x="845" y="590" on="0"/>
        <pt x="828" y="590" on="1"/>
        <pt x="824" y="590" on="0"/>
        <pt x="824" y="579" on="1"/>
        <pt x="824" y="175" on="1"/>
        <pt x="824" y="70" on="0"/>
        <pt x="873" y="51" on="1"/>
        <pt x="902" y="40" on="0"/>
        <pt x="902" y="28" on="1"/>
        <pt x="902" y="0" on="0"/>
        <pt x="889" y="0" on="1"/>
        <pt x="564" y="0" on="1"/>
        <pt x="551" y="0" on="0"/>
        <pt x="551" y="36" on="0"/>
        <pt x="567" y="46" on="0"/>
        <pt x="580" y="51" on="1"/>
        <pt x="609" y="62" on="0"/>
        <pt x="630" y="121" on="0"/>
        <pt x="630" y="175" on="1"/>
      </contour>
      <contour>
        <pt x="267" y="718" on="1"/>
        <pt x="630" y="718" on="1"/>
        <pt x="630" y="1330" on="1"/>
        <pt x="626" y="1330" on="1"/>
        <pt x="267" y="729" on="1"/>
        <pt x="260" y="718" on="0"/>
      </contour>
    </TTGlyph>
    <TTGlyph name="fraction" xMin="25" yMin="-10" xMax="795" yMax="1648">
      <contour>
        <pt x="25" y="182" on="1"/>
        <pt x="26" y="197" on="0"/>
        <pt x="33" y="212" on="1"/>
        <pt x="757" y="1638" on="1"/>
        <pt x="763" y="1648" on="0"/>
        <pt x="793" y="1633" on="0"/>
        <pt x="795" y="1620" on="1"/>
        <pt x="795" y="1456" on="1"/>
        <pt x="795" y="1446" on="0"/>
        <pt x="786" y="1426" on="1"/>
        <pt x="62" y="0" on="1"/>
        <pt x="56" y="-10" on="0"/>
        <pt x="27" y="5" on="0"/>
        <pt x="25" y="18" on="1"/>
      </contour>
    </TTGlyph>
    <TTGlyph name="g" xMin="31" yMin="-414" xMax="987" yMax="961">
      <contour>
        <pt x="290" y="265" on="1"/>
        <pt x="261" y="255" on="0"/>
        <pt x="348" y="194" on="0"/>
        <pt x="536" y="153" on="0"/>
        <pt x="669" y="132" on="0"/>
        <pt x="814" y="89" on="0"/>
        <pt x="919" y="36" on="0"/>
        <pt x="987" y="-60" on="0"/>
        <pt x="987" y="-188" on="0"/>
        <pt x="958" y="-240" on="1"/>
        <pt x="862" y="-414" on="0"/>
        <pt x="495" y="-414" on="1"/>
        <pt x="327" y="-414" on="0"/>
        <pt x="61" y="-254" on="0"/>
        <pt x="32" y="-106" on="1"/>
        <pt x="32" y="-94" on="1"/>
        <pt x="32" y="-86" on="0"/>
        <pt x="31" y="-82" on="1"/>
        <pt x="204" y="66" on="1"/>
        <pt x="212" y="66" on="0"/>
        <pt x="238" y="40" on="0"/>
        <pt x="238" y="24" on="0"/>
        <pt x="206" y="-8" on="0"/>
        <pt x="206" y="-152" on="0"/>
        <pt x="326" y="-269" on="0"/>
        <pt x="409" y="-291" on="1"/>
        <pt x="588" y="-321" on="0"/>
        <pt x="714" y="-272" on="1"/>
        <pt x="758" y="-255" on="0"/>
        <pt x="814" y="-186" on="0"/>
        <pt x="814" y="-107" on="0"/>
        <pt x="774" y="-82" on="1"/>
        <pt x="719" y="-48" on="0"/>
        <pt x="278" y="54" on="0"/>
        <pt x="169" y="99" on="1"/>
        <pt x="146" y="109" on="0"/>
        <pt x="146" y="120" on="0"/>
        <pt x="207" y="236" on="0"/>
        <pt x="245" y="293" on="1"/>
        <pt x="176" y="343" on="0"/>
        <pt x="93" y="495" on="0"/>
        <pt x="93" y="581" on="1"/>
        <pt x="93" y="749" on="0"/>
        <pt x="304" y="961" on="0"/>
        <pt x="619" y="961" on="0"/>
        <pt x="721" y="862" on="1"/>
        <pt x="725" y="863" on="1"/>
        <pt x="763" y="944" on="0"/>
        <pt x="768" y="953" on="0"/>
        <pt x="772" y="953" on="1"/>
        <pt x="939" y="953" on="1"/>
        <pt x="946" y="953" on="0"/>
        <pt x="961" y="924" on="0"/>
        <pt x="956" y="921" on="1"/>
        <pt x="933" y="910" on="0"/>
        <pt x="900" y="896" on="1"/>
        <pt x="832" y="867" on="0"/>
        <pt x="786" y="776" on="1"/>
        <pt x="832" y="690" on="0"/>
        <pt x="832" y="594" on="1"/>
        <pt x="832" y="436" on="0"/>
        <pt x="617" y="224" on="0"/>
        <pt x="453" y="224" on="1"/>
        <pt x="369" y="224" on="0"/>
      </contour>
      <contour>
        <pt x="407" y="839" on="1"/>
        <pt x="215" y="839" on="0"/>
        <pt x="215" y="630" on="1"/>
        <pt x="215" y="508" on="0"/>
        <pt x="398" y="343" on="0"/>
        <pt x="615" y="343" on="0"/>
        <pt x="705" y="439" on="0"/>
        <pt x="705" y="665" on="0"/>
        <pt x="534" y="839" on="0"/>
      </contour>
    </TTGlyph>
    <TTGlyph name="gbreve" xMin="31" yMin="-414" xMax="987" yMax="1411">
      <component glyphName="breve" x="105" y="64" flags="0x1004"/>
      <component glyphName="g" x="0" y="0" flags="0x1204"/>
    </TTGlyph>
    <TTGlyph name="gcircumflex" xMin="31" yMin="-414" xMax="987" yMax="1458">
      <component glyphName="asciicircum" x="122" y="64" flags="0x1004"/>
      <component glyphName="g" x="0" y="0" flags="0x1204"/>
    </TTGlyph>
    <TTGlyph name="gdotaccent" xMin="31" yMin="-414" xMax="987" yMax="1380">
      <component glyphName="period" x="252" y="1095" flags="0x1004"/>
      <component glyphName="g" x="0" y="0" flags="0x1204"/>
    </TTGlyph>
    <TTGlyph name="germandbls" xMin="98" yMin="-21" xMax="1103" yMax="1637">
      <contour>
        <pt x="111" y="0" on="1"/>
        <pt x="98" y="0" on="0"/>
        <pt x="98" y="36" on="0"/>
        <pt x="115" y="46" on="0"/>
        <pt x="140" y="56" on="0"/>
        <pt x="155" y="71" on="0"/>
        <pt x="167" y="90" on="0"/>
        <pt x="173" y="103" on="0"/>
        <pt x="176" y="128" on="0"/>
        <pt x="177" y="137" on="0"/>
        <pt x="176" y="170" on="0"/>
        <pt x="176" y="175" on="1"/>
        <pt x="176" y="1180" on="1"/>
        <pt x="176" y="1302" on="0"/>
        <pt x="363" y="1556" on="0"/>
        <pt x="499" y="1608" on="1"/>
        <pt x="574" y="1637" on="0"/>
        <pt x="714" y="1637" on="0"/>
        <pt x="832" y="1585" on="0"/>
        <pt x="916" y="1505" on="0"/>
        <pt x="967" y="1405" on="0"/>
        <pt x="966" y="1313" on="0"/>
        <pt x="944" y="1236" on="0"/>
        <pt x="928" y="1212" on="1"/>
        <pt x="896" y="1160" on="0"/>
        <pt x="841" y="1127" on="1"/>
        <pt x="789" y="1095" on="1"/>
        <pt x="693" y="1038" on="0"/>
        <pt x="617" y="919" on="0"/>
        <pt x="617" y="878" on="1"/>
        <pt x="617" y="808" on="0"/>
        <pt x="694" y="757" on="1"/>
        <pt x="767" y="708" on="1"/>
        <pt x="810" y="679" on="0"/>
        <pt x="831" y="659" on="1"/>
        <pt x="946" y="557" on="1"/>
        <pt x="1015" y="493" on="0"/>
        <pt x="1055" y="432" on="0"/>
        <pt x="1103" y="343" on="0"/>
        <pt x="1102" y="268" on="1"/>
        <pt x="1102" y="122" on="0"/>
        <pt x="902" y="-21" on="0"/>
        <pt x="767" y="-21" on="1"/>
        <pt x="689" y="-21" on="0"/>
        <pt x="534" y="12" on="0"/>
        <pt x="524" y="14" on="1"/>
        <pt x="480" y="20" on="0"/>
        <pt x="476" y="35" on="1"/>
        <pt x="449" y="105" on="0"/>
        <pt x="449" y="196" on="1"/>
        <pt x="449" y="208" on="0"/>
        <pt x="477" y="223" on="0"/>
        <pt x="489" y="223" on="1"/>
        <pt x="507" y="223" on="0"/>
        <pt x="554" y="165" on="0"/>
        <pt x="730" y="96" on="0"/>
        <pt x="868" y="96" on="0"/>
        <pt x="954" y="166" on="0"/>
        <pt x="954" y="223" on="1"/>
        <pt x="954" y="346" on="0"/>
        <pt x="800" y="472" on="1"/>
        <pt x="771" y="495" on="0"/>
        <pt x="728" y="526" on="1"/>
        <pt x="651" y="579" on="1"/>
        <pt x="568" y="635" on="0"/>
        <pt x="533" y="678" on="1"/>
        <pt x="467" y="759" on="0"/>
        <pt x="466" y="842" on="1"/>
        <pt x="466" y="966" on="0"/>
        <pt x="595" y="1131" on="0"/>
        <pt x="764" y="1227" on="1"/>
        <pt x="805" y="1251" on="0"/>
        <pt x="822" y="1313" on="0"/>
        <pt x="821" y="1389" on="0"/>
        <pt x="788" y="1459" on="0"/>
        <pt x="708" y="1511" on="0"/>
        <pt x="594" y="1511" on="0"/>
        <pt x="484" y="1446" on="0"/>
        <pt x="397" y="1343" on="0"/>
        <pt x="341" y="1202" on="0"/>
        <pt x="341" y="1131" on="1"/>
        <pt x="341" y="132" on="1"/>
        <pt x="341" y="108" on="0"/>
        <pt x="366" y="61" on="0"/>
        <pt x="419" y="39" on="0"/>
        <pt x="419" y="28" on="1"/>
        <pt x="419" y="0" on="0"/>
        <pt x="406" y="0" on="1"/>
      </contour>
    </TTGlyph>
    <TTGlyph name="grave" xMin="173" yMin="1019" xMax="496" yMax="1446">
      <contour>
        <pt x="328" y="1435" on="1"/>
        <pt x="489" y="1074" on="1"/>
        <pt x="496" y="1064" on="0"/>
        <pt x="490" y="1058" on="1"/>
        <pt x="454" y="1019" on="0"/>
        <pt x="434" y="1042" on="1"/>
        <pt x="244" y="1273" on="0"/>
        <pt x="184" y="1333" on="1"/>
        <pt x="173" y="1348" on="0"/>
        <pt x="184" y="1364" on="1"/>
        <pt x="302" y="1435" on="1"/>
        <pt x="315" y="1446" on="0"/>
      </contour>
    </TTGlyph>
    <TTGlyph name="greater" xMin="59" yMin="49" xMax="1030" yMax="1354">
      <component glyphName="less" x="1094" y="1403" scale="-1.0" flags="0x1004"/>
    </TTGlyph>
    <TTGlyph name="guillemotleft" xMin="97" yMin="946" xMax="833" yMax="1486">
      <contour>
        <pt x="103" y="1205" on="1"/>
        <pt x="102" y="1205" on="1"/>
        <pt x="97" y="1214" on="0"/>
        <pt x="102" y="1222" on="1"/>
        <pt x="103" y="1222" on="1"/>
        <pt x="410" y="1471" on="1"/>
        <pt x="420" y="1486" on="0"/>
        <pt x="462" y="1449" on="0"/>
        <pt x="460" y="1443" on="1"/>
        <pt x="454" y="1425" on="1"/>
        <pt x="304" y="1213" on="1"/>
        <pt x="454" y="1002" on="1"/>
        <pt x="460" y="984" on="1"/>
        <pt x="465" y="970" on="0"/>
        <pt x="424" y="950" on="1"/>
        <pt x="417" y="946" on="0"/>
        <pt x="410" y="955" on="1"/>
      </contour>
      <contour>
        <pt x="471" y="1205" on="1"/>
        <pt x="470" y="1205" on="1"/>
        <pt x="465" y="1214" on="0"/>
        <pt x="470" y="1222" on="1"/>
        <pt x="471" y="1222" on="1"/>
        <pt x="778" y="1471" on="1"/>
        <pt x="788" y="1486" on="0"/>
        <pt x="830" y="1449" on="0"/>
        <pt x="828" y="1443" on="1"/>
        <pt x="822" y="1425" on="1"/>
        <pt x="672" y="1213" on="1"/>
        <pt x="822" y="1002" on="1"/>
        <pt x="828" y="984" on="1"/>
        <pt x="833" y="970" on="0"/>
        <pt x="792" y="950" on="1"/>
        <pt x="785" y="946" on="0"/>
        <pt x="778" y="955" on="1"/>
      </contour>
    </TTGlyph>
</ttFont>
